{
	"asset":
	{
		"version": "2.0",
		"generator": "Unreal Engine 4.25.0 glTF Exporter 1.0.6"
	},
	"scene": 0,
	"accessors": [
		{
			"bufferView": 0,
			"count": 4398,
			"type": "SCALAR",
			"componentType": 5123
		},
		{
			"bufferView": 1,
			"count": 4316,
			"type": "VEC3",
			"componentType": 5126,
			"min": [ -3.83487988,
				-5.54478312,
				-4.29657745
			],
			"max": [ 3.39746094,
				5.50129032,
				2.92234278
			]
		},
		{
			"bufferView": 2,
			"count": 4316,
			"type": "VEC3",
			"componentType": 5126
		},
		{
			"bufferView": 3,
			"count": 4316,
			"type": "VEC4",
			"componentType": 5126
		},
		{
			"bufferView": 4,
			"count": 4316,
			"type": "VEC2",
			"componentType": 5126
		},
		{
			"bufferView": 5,
			"count": 4316,
			"type": "VEC2",
			"componentType": 5126
		},
		{
			"bufferView": 6,
			"count": 1392,
			"type": "SCALAR",
			"componentType": 5123
		},
		{
			"bufferView": 7,
			"count": 1196,
			"type": "VEC3",
			"componentType": 5126,
			"min": [ -7.05938721,
				-3.54862213,
				-6.85634089
			],
			"max": [ 6.35013103,
				9.14232254,
				6.01479244
			]
		},
		{
			"bufferView": 8,
			"count": 1196,
			"type": "VEC3",
			"componentType": 5126
		},
		{
			"bufferView": 9,
			"count": 1196,
			"type": "VEC4",
			"componentType": 5126
		},
		{
			"bufferView": 10,
			"count": 1196,
			"type": "VEC2",
			"componentType": 5126
		},
		{
			"bufferView": 11,
			"count": 1196,
			"type": "VEC2",
			"componentType": 5126
		}
	],
	"buffers": [
		{
			"uri": "tr1.bin",
			"byteLength": 320252
		}
	],
	"bufferViews": [
		{
			"buffer": 0,
			"byteLength": 8796,
			"target": 34963
		},
		{
			"buffer": 0,
			"byteLength": 51792,
			"byteOffset": 8796,
			"target": 34962
		},
		{
			"buffer": 0,
			"byteLength": 51792,
			"byteOffset": 60588,
			"target": 34962
		},
		{
			"buffer": 0,
			"byteLength": 69056,
			"byteOffset": 112380,
			"target": 34962
		},
		{
			"buffer": 0,
			"byteLength": 34528,
			"byteOffset": 181436,
			"target": 34962
		},
		{
			"buffer": 0,
			"byteLength": 34528,
			"byteOffset": 215964,
			"target": 34962
		},
		{
			"buffer": 0,
			"byteLength": 2784,
			"byteOffset": 250492,
			"target": 34963
		},
		{
			"buffer": 0,
			"byteLength": 14352,
			"byteOffset": 253276,
			"target": 34962
		},
		{
			"buffer": 0,
			"byteLength": 14352,
			"byteOffset": 267628,
			"target": 34962
		},
		{
			"buffer": 0,
			"byteLength": 19136,
			"byteOffset": 281980,
			"target": 34962
		},
		{
			"buffer": 0,
			"byteLength": 9568,
			"byteOffset": 301116,
			"target": 34962
		},
		{
			"buffer": 0,
			"byteLength": 9568,
			"byteOffset": 310684,
			"target": 34962
		}
	],
	"images": [
		{
			"uri": "Material0-material_tr_prim0_29_BaseColor.png"
		},
		{
			"uri": "7b1a2731-8306-4a89-a4a7-57626e6292a8.png"
		}
	],
	"materials": [
		{
			"name": "Material1-material",
			"pbrMetallicRoughness":
			{
				"baseColorTexture":
				{
					"index": 0
				},
				"metallicFactor": 0,
				"roughnessFactor": 0.5
			}
		},
		{
			"name": "Material0-material_tr_prim0_29",
			"pbrMetallicRoughness":
			{
				"baseColorTexture":
				{
					"index": 1,
					"texCoord": 1
				},
				"metallicFactor": 0,
				"roughnessFactor": 0.5
			},
			"alphaMode": "MASK",
			"alphaCutoff": 0.333299994,
			"doubleSided": true
		}
	],
	"meshes": [
		{
			"name": "tr_prim1",
			"primitives": [
				{
					"attributes":
					{
						"POSITION": 1,
						"NORMAL": 2,
						"TANGENT": 3,
						"TEXCOORD_0": 4,
						"TEXCOORD_1": 5
					},
					"indices": 0,
					"material": 0
				}
			]
		},
		{
			"name": "tr_prim0_29",
			"primitives": [
				{
					"attributes":
					{
						"POSITION": 7,
						"NORMAL": 8,
						"TANGENT": 9,
						"TEXCOORD_0": 10,
						"TEXCOORD_1": 11
					},
					"indices": 6,
					"material": 1
				}
			]
		}
	],
	"nodes": [
		{
			"name": "tr_prim1_27_StaticMeshComponent0",
			"translation": [ 61.7999992,
				6.39999962,
				77
			],
			"mesh": 0
		},
		{
			"name": "tr_prim0_29_StaticMeshComponent0",
			"translation": [ 61.7999992,
				6.39999962,
				77
			],
			"mesh": 1
		}
	],
	"samplers": [
		{
			"name": "Material0-material_tr_prim0_29_BaseColor",
			"minFilter": 9987,
			"magFilter": 9729
		},
		{
			"name": "7b1a2731-8306-4a89-a4a7-57626e6292a8",
			"minFilter": 9987,
			"magFilter": 9729
		}
	],
	"scenes": [
		{
			"name": "ThirdPersonExampleMap",
			"nodes": [ 0, 1 ]
		}
	],
	"textures": [
		{
			"name": "7b1a2731-8306-4a89-a4a7-57626e6292a8",
			"sampler": 1,
			"source": 1
		},
		{
			"name": "Material0-material_tr_prim0_29_BaseColor",
			"sampler": 0,
			"source": 0
		}
	]
}