{
	"asset":
	{
		"version": "2.0",
		"generator": "Unreal Engine 4.25.0 glTF Exporter 1.0.6"
	},
	"scene": 0,
	"accessors": [
		{
			"bufferView": 0,
			"count": 99474,
			"type": "SCALAR",
			"componentType": 5123
		},
		{
			"bufferView": 1,
			"count": 17065,
			"type": "VEC3",
			"componentType": 5126,
			"min": [ -0.127682,
				-0.0889130011,
				-0.0775519982
			],
			"max": [ 0.126166984,
				0.228294998,
				0.076624997
			]
		},
		{
			"bufferView": 2,
			"count": 17065,
			"type": "VEC3",
			"componentType": 5126
		},
		{
			"bufferView": 3,
			"count": 17065,
			"type": "VEC4",
			"componentType": 5126
		},
		{
			"bufferView": 4,
			"count": 17065,
			"type": "VEC2",
			"componentType": 5126
		},
		{
			"bufferView": 5,
			"count": 17065,
			"type": "VEC2",
			"componentType": 5126
		},
		{
			"bufferView": 6,
			"count": 4308,
			"type": "SCALAR",
			"componentType": 5123
		},
		{
			"bufferView": 7,
			"count": 1640,
			"type": "VEC3",
			"componentType": 5126,
			"min": [ -2.98275137,
				-6.7355575e-19,
				-0.698330462
			],
			"max": [ 2.82915521,
				0.104193285,
				-0.035330411
			]
		},
		{
			"bufferView": 8,
			"count": 1640,
			"type": "VEC3",
			"componentType": 5126
		},
		{
			"bufferView": 9,
			"count": 1640,
			"type": "VEC4",
			"componentType": 5126
		},
		{
			"bufferView": 10,
			"count": 1640,
			"type": "VEC2",
			"componentType": 5126
		},
		{
			"bufferView": 11,
			"count": 1640,
			"type": "VEC2",
			"componentType": 5126
		},
		{
			"bufferView": 12,
			"count": 30,
			"type": "SCALAR",
			"componentType": 5121
		},
		{
			"bufferView": 13,
			"count": 20,
			"type": "VEC3",
			"componentType": 5126,
			"min": [ -0.093486838,
				-0.144373223,
				-0.270552129
			],
			"max": [ 0.093486838,
				0.144373223,
				0.270552129
			]
		},
		{
			"bufferView": 14,
			"count": 20,
			"type": "VEC3",
			"componentType": 5126
		},
		{
			"bufferView": 15,
			"count": 20,
			"type": "VEC4",
			"componentType": 5126
		},
		{
			"bufferView": 16,
			"count": 20,
			"type": "VEC2",
			"componentType": 5126
		},
		{
			"bufferView": 17,
			"count": 20,
			"type": "VEC2",
			"componentType": 5126
		},
		{
			"bufferView": 18,
			"count": 6,
			"type": "SCALAR",
			"componentType": 5121
		},
		{
			"bufferView": 19,
			"count": 4,
			"type": "VEC3",
			"componentType": 5126,
			"min": [ 0.00101329328,
				-0.144373223,
				-0.253889084
			],
			"max": [ 0.093486838,
				0.144373223,
				0.270552129
			]
		},
		{
			"bufferView": 20,
			"count": 4,
			"type": "VEC3",
			"componentType": 5126
		},
		{
			"bufferView": 21,
			"count": 4,
			"type": "VEC4",
			"componentType": 5126
		},
		{
			"bufferView": 22,
			"count": 4,
			"type": "VEC2",
			"componentType": 5126
		},
		{
			"bufferView": 23,
			"count": 4,
			"type": "VEC2",
			"componentType": 5126
		},
		{
			"bufferView": 24,
			"count": 30,
			"type": "SCALAR",
			"componentType": 5121
		},
		{
			"bufferView": 25,
			"count": 20,
			"type": "VEC3",
			"componentType": 5126,
			"min": [ -0.758677363,
				-0.0747010186,
				-0.758677363
			],
			"max": [ 0.758677363,
				0.0747010186,
				0.758677363
			]
		},
		{
			"bufferView": 26,
			"count": 20,
			"type": "VEC3",
			"componentType": 5126
		},
		{
			"bufferView": 27,
			"count": 20,
			"type": "VEC4",
			"componentType": 5126
		},
		{
			"bufferView": 28,
			"count": 20,
			"type": "VEC2",
			"componentType": 5126
		},
		{
			"bufferView": 29,
			"count": 20,
			"type": "VEC2",
			"componentType": 5126
		},
		{
			"bufferView": 30,
			"count": 6,
			"type": "SCALAR",
			"componentType": 5121
		},
		{
			"bufferView": 31,
			"count": 4,
			"type": "VEC3",
			"componentType": 5126,
			"min": [ -0.758677363,
				-0.0747010186,
				-0.758677363
			],
			"max": [ 0.758677363,
				-0.0747010186,
				0.758677363
			]
		},
		{
			"bufferView": 32,
			"count": 4,
			"type": "VEC3",
			"componentType": 5126
		},
		{
			"bufferView": 33,
			"count": 4,
			"type": "VEC4",
			"componentType": 5126
		},
		{
			"bufferView": 34,
			"count": 4,
			"type": "VEC2",
			"componentType": 5126
		},
		{
			"bufferView": 35,
			"count": 4,
			"type": "VEC2",
			"componentType": 5126
		},
		{
			"bufferView": 36,
			"count": 30,
			"type": "SCALAR",
			"componentType": 5121
		},
		{
			"bufferView": 37,
			"count": 20,
			"type": "VEC3",
			"componentType": 5126,
			"min": [ -0.564285338,
				-0.954039335,
				-0.564285338
			],
			"max": [ 0.564285338,
				0.954039335,
				0.564285338
			]
		},
		{
			"bufferView": 38,
			"count": 20,
			"type": "VEC3",
			"componentType": 5126
		},
		{
			"bufferView": 39,
			"count": 20,
			"type": "VEC4",
			"componentType": 5126
		},
		{
			"bufferView": 40,
			"count": 20,
			"type": "VEC2",
			"componentType": 5126
		},
		{
			"bufferView": 41,
			"count": 20,
			"type": "VEC2",
			"componentType": 5126
		},
		{
			"bufferView": 42,
			"count": 6,
			"type": "SCALAR",
			"componentType": 5121
		},
		{
			"bufferView": 43,
			"count": 4,
			"type": "VEC3",
			"componentType": 5126,
			"min": [ -0.564285338,
				-0.954039335,
				-0.564285338
			],
			"max": [ 0.564285338,
				-0.954039335,
				0.564285338
			]
		},
		{
			"bufferView": 44,
			"count": 4,
			"type": "VEC3",
			"componentType": 5126
		},
		{
			"bufferView": 45,
			"count": 4,
			"type": "VEC4",
			"componentType": 5126
		},
		{
			"bufferView": 46,
			"count": 4,
			"type": "VEC2",
			"componentType": 5126
		},
		{
			"bufferView": 47,
			"count": 4,
			"type": "VEC2",
			"componentType": 5126
		},
		{
			"bufferView": 48,
			"count": 30,
			"type": "SCALAR",
			"componentType": 5121
		},
		{
			"bufferView": 49,
			"count": 20,
			"type": "VEC3",
			"componentType": 5126,
			"min": [ -0.508688867,
				-0.0427391231,
				-0.508688867
			],
			"max": [ 0.508688867,
				0.0427391231,
				0.508688867
			]
		},
		{
			"bufferView": 50,
			"count": 20,
			"type": "VEC3",
			"componentType": 5126
		},
		{
			"bufferView": 51,
			"count": 20,
			"type": "VEC4",
			"componentType": 5126
		},
		{
			"bufferView": 52,
			"count": 20,
			"type": "VEC2",
			"componentType": 5126
		},
		{
			"bufferView": 53,
			"count": 20,
			"type": "VEC2",
			"componentType": 5126
		},
		{
			"bufferView": 54,
			"count": 6,
			"type": "SCALAR",
			"componentType": 5121
		},
		{
			"bufferView": 55,
			"count": 4,
			"type": "VEC3",
			"componentType": 5126,
			"min": [ -0.508688867,
				-0.0427391231,
				-0.508688867
			],
			"max": [ 0.508688867,
				-0.0427391231,
				0.508688867
			]
		},
		{
			"bufferView": 56,
			"count": 4,
			"type": "VEC3",
			"componentType": 5126
		},
		{
			"bufferView": 57,
			"count": 4,
			"type": "VEC4",
			"componentType": 5126
		},
		{
			"bufferView": 58,
			"count": 4,
			"type": "VEC2",
			"componentType": 5126
		},
		{
			"bufferView": 59,
			"count": 4,
			"type": "VEC2",
			"componentType": 5126
		}
	],
	"buffers": [
		{
			"uri": "pushkin.bin",
			"byteLength": 1260580
		}
	],
	"bufferViews": [
		{
			"buffer": 0,
			"byteLength": 198948,
			"target": 34963
		},
		{
			"buffer": 0,
			"byteLength": 204780,
			"byteOffset": 198948,
			"target": 34962
		},
		{
			"buffer": 0,
			"byteLength": 204780,
			"byteOffset": 403728,
			"target": 34962
		},
		{
			"buffer": 0,
			"byteLength": 273040,
			"byteOffset": 608508,
			"target": 34962
		},
		{
			"buffer": 0,
			"byteLength": 136520,
			"byteOffset": 881548,
			"target": 34962
		},
		{
			"buffer": 0,
			"byteLength": 136520,
			"byteOffset": 1018068,
			"target": 34962
		},
		{
			"buffer": 0,
			"byteLength": 8616,
			"byteOffset": 1154588,
			"target": 34963
		},
		{
			"buffer": 0,
			"byteLength": 19680,
			"byteOffset": 1163204,
			"target": 34962
		},
		{
			"buffer": 0,
			"byteLength": 19680,
			"byteOffset": 1182884,
			"target": 34962
		},
		{
			"buffer": 0,
			"byteLength": 26240,
			"byteOffset": 1202564,
			"target": 34962
		},
		{
			"buffer": 0,
			"byteLength": 13120,
			"byteOffset": 1228804,
			"target": 34962
		},
		{
			"buffer": 0,
			"byteLength": 13120,
			"byteOffset": 1241924,
			"target": 34962
		},
		{
			"buffer": 0,
			"byteLength": 30,
			"byteOffset": 1255044,
			"target": 34963
		},
		{
			"buffer": 0,
			"byteLength": 240,
			"byteOffset": 1255076,
			"target": 34962
		},
		{
			"buffer": 0,
			"byteLength": 240,
			"byteOffset": 1255316,
			"target": 34962
		},
		{
			"buffer": 0,
			"byteLength": 320,
			"byteOffset": 1255556,
			"target": 34962
		},
		{
			"buffer": 0,
			"byteLength": 160,
			"byteOffset": 1255876,
			"target": 34962
		},
		{
			"buffer": 0,
			"byteLength": 160,
			"byteOffset": 1256036,
			"target": 34962
		},
		{
			"buffer": 0,
			"byteLength": 6,
			"byteOffset": 1256196,
			"target": 34963
		},
		{
			"buffer": 0,
			"byteLength": 48,
			"byteOffset": 1256204,
			"target": 34962
		},
		{
			"buffer": 0,
			"byteLength": 48,
			"byteOffset": 1256252,
			"target": 34962
		},
		{
			"buffer": 0,
			"byteLength": 64,
			"byteOffset": 1256300,
			"target": 34962
		},
		{
			"buffer": 0,
			"byteLength": 32,
			"byteOffset": 1256364,
			"target": 34962
		},
		{
			"buffer": 0,
			"byteLength": 32,
			"byteOffset": 1256396,
			"target": 34962
		},
		{
			"buffer": 0,
			"byteLength": 30,
			"byteOffset": 1256428,
			"target": 34963
		},
		{
			"buffer": 0,
			"byteLength": 240,
			"byteOffset": 1256460,
			"target": 34962
		},
		{
			"buffer": 0,
			"byteLength": 240,
			"byteOffset": 1256700,
			"target": 34962
		},
		{
			"buffer": 0,
			"byteLength": 320,
			"byteOffset": 1256940,
			"target": 34962
		},
		{
			"buffer": 0,
			"byteLength": 160,
			"byteOffset": 1257260,
			"target": 34962
		},
		{
			"buffer": 0,
			"byteLength": 160,
			"byteOffset": 1257420,
			"target": 34962
		},
		{
			"buffer": 0,
			"byteLength": 6,
			"byteOffset": 1257580,
			"target": 34963
		},
		{
			"buffer": 0,
			"byteLength": 48,
			"byteOffset": 1257588,
			"target": 34962
		},
		{
			"buffer": 0,
			"byteLength": 48,
			"byteOffset": 1257636,
			"target": 34962
		},
		{
			"buffer": 0,
			"byteLength": 64,
			"byteOffset": 1257684,
			"target": 34962
		},
		{
			"buffer": 0,
			"byteLength": 32,
			"byteOffset": 1257748,
			"target": 34962
		},
		{
			"buffer": 0,
			"byteLength": 32,
			"byteOffset": 1257780,
			"target": 34962
		},
		{
			"buffer": 0,
			"byteLength": 30,
			"byteOffset": 1257812,
			"target": 34963
		},
		{
			"buffer": 0,
			"byteLength": 240,
			"byteOffset": 1257844,
			"target": 34962
		},
		{
			"buffer": 0,
			"byteLength": 240,
			"byteOffset": 1258084,
			"target": 34962
		},
		{
			"buffer": 0,
			"byteLength": 320,
			"byteOffset": 1258324,
			"target": 34962
		},
		{
			"buffer": 0,
			"byteLength": 160,
			"byteOffset": 1258644,
			"target": 34962
		},
		{
			"buffer": 0,
			"byteLength": 160,
			"byteOffset": 1258804,
			"target": 34962
		},
		{
			"buffer": 0,
			"byteLength": 6,
			"byteOffset": 1258964,
			"target": 34963
		},
		{
			"buffer": 0,
			"byteLength": 48,
			"byteOffset": 1258972,
			"target": 34962
		},
		{
			"buffer": 0,
			"byteLength": 48,
			"byteOffset": 1259020,
			"target": 34962
		},
		{
			"buffer": 0,
			"byteLength": 64,
			"byteOffset": 1259068,
			"target": 34962
		},
		{
			"buffer": 0,
			"byteLength": 32,
			"byteOffset": 1259132,
			"target": 34962
		},
		{
			"buffer": 0,
			"byteLength": 32,
			"byteOffset": 1259164,
			"target": 34962
		},
		{
			"buffer": 0,
			"byteLength": 30,
			"byteOffset": 1259196,
			"target": 34963
		},
		{
			"buffer": 0,
			"byteLength": 240,
			"byteOffset": 1259228,
			"target": 34962
		},
		{
			"buffer": 0,
			"byteLength": 240,
			"byteOffset": 1259468,
			"target": 34962
		},
		{
			"buffer": 0,
			"byteLength": 320,
			"byteOffset": 1259708,
			"target": 34962
		},
		{
			"buffer": 0,
			"byteLength": 160,
			"byteOffset": 1260028,
			"target": 34962
		},
		{
			"buffer": 0,
			"byteLength": 160,
			"byteOffset": 1260188,
			"target": 34962
		},
		{
			"buffer": 0,
			"byteLength": 6,
			"byteOffset": 1260348,
			"target": 34963
		},
		{
			"buffer": 0,
			"byteLength": 48,
			"byteOffset": 1260356,
			"target": 34962
		},
		{
			"buffer": 0,
			"byteLength": 48,
			"byteOffset": 1260404,
			"target": 34962
		},
		{
			"buffer": 0,
			"byteLength": 64,
			"byteOffset": 1260452,
			"target": 34962
		},
		{
			"buffer": 0,
			"byteLength": 32,
			"byteOffset": 1260516,
			"target": 34962
		},
		{
			"buffer": 0,
			"byteLength": 32,
			"byteOffset": 1260548,
			"target": 34962
		}
	],
	"images": [
		{
			"uri": "default_MetallicRoughness.png"
		},
		{
			"uri": "default_Occlusion.png"
		},
		{
			"uri": "Brass_scoacdjp_inst_BaseColor.png"
		},
		{
			"uri": "Brass_scoacdjp_inst_MetallicRoughness.png"
		},
		{
			"uri": "Brass_scoacdjp_inst_Normal.png"
		},
		{
			"uri": "Black_Galaxy_Granite_Square_Tiles_uidkbbdl_inst_BaseColor.png"
		},
		{
			"uri": "Black_Galaxy_Granite_Square_Tiles_uidkbbdl_inst_MetallicRoughness.png"
		},
		{
			"uri": "Black_Galaxy_Granite_Square_Tiles_uidkbbdl_inst_Normal.png"
		},
		{
			"uri": "Gray_Granite_tgvgdiuv_inst_BaseColor.png"
		},
		{
			"uri": "Gray_Granite_tgvgdiuv_inst_MetallicRoughness.png"
		},
		{
			"uri": "Gray_Granite_tgvgdiuv_inst_Normal.png"
		},
		{
			"uri": "WorldGridMaterial_BaseColor.png"
		},
		{
			"uri": "WorldGridMaterial_MetallicRoughness.png"
		},
		{
			"uri": "WorldGridMaterial_Normal.png"
		},
		{
			"uri": "pushkin_default_color.png"
		},
		{
			"uri": "pushkin_default_nmap.png"
		}
	],
	"materials": [
		{
			"name": "default",
			"pbrMetallicRoughness":
			{
				"baseColorTexture":
				{
					"index": 0
				},
				"metallicRoughnessTexture":
				{
					"index": 1
				}
			},
			"normalTexture":
			{
				"index": 2
			},
			"occlusionTexture":
			{
				"index": 3
			}
		},
		{
			"name": "Brass_scoacdjp_inst",
			"pbrMetallicRoughness":
			{
				"baseColorTexture":
				{
					"index": 4
				},
				"metallicRoughnessTexture":
				{
					"index": 5
				}
			},
			"normalTexture":
			{
				"index": 6
			}
		},
		{
			"name": "Black_Galaxy_Granite_Square_Tiles_uidkbbdl_inst",
			"pbrMetallicRoughness":
			{
				"baseColorTexture":
				{
					"index": 7
				},
				"metallicRoughnessTexture":
				{
					"index": 8
				}
			},
			"normalTexture":
			{
				"index": 9
			}
		},
		{
			"name": "Gray_Granite_tgvgdiuv_inst",
			"pbrMetallicRoughness":
			{
				"baseColorTexture":
				{
					"index": 10
				},
				"metallicRoughnessTexture":
				{
					"index": 11
				}
			},
			"normalTexture":
			{
				"index": 12
			}
		},
		{
			"name": "WorldGridMaterial",
			"pbrMetallicRoughness":
			{
				"baseColorTexture":
				{
					"index": 13
				},
				"metallicRoughnessTexture":
				{
					"index": 14
				}
			},
			"normalTexture":
			{
				"index": 15
			}
		}
	],
	"meshes": [
		{
			"name": "pushkin",
			"primitives": [
				{
					"attributes":
					{
						"POSITION": 1,
						"NORMAL": 2,
						"TANGENT": 3,
						"TEXCOORD_0": 4,
						"TEXCOORD_1": 5
					},
					"indices": 0,
					"material": 0
				}
			]
		},
		{
			"name": "name",
			"primitives": [
				{
					"attributes":
					{
						"POSITION": 7,
						"NORMAL": 8,
						"TANGENT": 9,
						"TEXCOORD_0": 10,
						"TEXCOORD_1": 11
					},
					"indices": 6,
					"material": 1
				}
			]
		},
		{
			"name": "Box_Brush6_StaticMesh",
			"primitives": [
				{
					"attributes":
					{
						"POSITION": 13,
						"NORMAL": 14,
						"TANGENT": 15,
						"TEXCOORD_0": 16,
						"TEXCOORD_1": 17
					},
					"indices": 12,
					"material": 2
				},
				{
					"attributes":
					{
						"POSITION": 19,
						"NORMAL": 20,
						"TANGENT": 21,
						"TEXCOORD_0": 22,
						"TEXCOORD_1": 23
					},
					"indices": 18,
					"material": 3
				}
			]
		},
		{
			"name": "Box_Brush3_StaticMesh",
			"primitives": [
				{
					"attributes":
					{
						"POSITION": 25,
						"NORMAL": 26,
						"TANGENT": 27,
						"TEXCOORD_0": 28,
						"TEXCOORD_1": 29
					},
					"indices": 24,
					"material": 2
				},
				{
					"attributes":
					{
						"POSITION": 31,
						"NORMAL": 32,
						"TANGENT": 33,
						"TEXCOORD_0": 34,
						"TEXCOORD_1": 35
					},
					"indices": 30,
					"material": 4
				}
			]
		},
		{
			"name": "Box_Brush_StaticMesh1",
			"primitives": [
				{
					"attributes":
					{
						"POSITION": 37,
						"NORMAL": 38,
						"TANGENT": 39,
						"TEXCOORD_0": 40,
						"TEXCOORD_1": 41
					},
					"indices": 36,
					"material": 3
				},
				{
					"attributes":
					{
						"POSITION": 43,
						"NORMAL": 44,
						"TANGENT": 45,
						"TEXCOORD_0": 46,
						"TEXCOORD_1": 47
					},
					"indices": 42,
					"material": 4
				}
			]
		},
		{
			"name": "Box_Brush5_StaticMesh1",
			"primitives": [
				{
					"attributes":
					{
						"POSITION": 49,
						"NORMAL": 50,
						"TANGENT": 51,
						"TEXCOORD_0": 52,
						"TEXCOORD_1": 53
					},
					"indices": 48,
					"material": 3
				},
				{
					"attributes":
					{
						"POSITION": 55,
						"NORMAL": 56,
						"TANGENT": 57,
						"TEXCOORD_0": 58,
						"TEXCOORD_1": 59
					},
					"indices": 54,
					"material": 4
				}
			]
		}
	],
	"nodes": [
		{
			"name": "pushkin_2_StaticMeshComponent0",
			"translation": [ 39.417366,
				3.77999997,
				25.9015179
			],
			"rotation": [ -0,
				-0.766046226,
				0,
				0.64278543
			],
			"scale": [ 3.51499987,
				3.51499987,
				3.51499987
			],
			"mesh": 0
		},
		{
			"name": "name_6_StaticMeshComponent0",
			"translation": [ 38.8899994,
				3.01999998,
				25.8400002
			],
			"rotation": [ 0.454516649,
				-0.541677356,
				0.541681349,
				0.454512298
			],
			"scale": [ 0.0799999982,
				0.0799999982,
				0.0799999982
			],
			"mesh": 1
		},
		{
			"name": "Box_Brush6_StaticMesh_StaticMeshComponent0",
			"translation": [ 38.9399986,
				3.03999996,
				25.8499985
			],
			"mesh": 2
		},
		{
			"name": "Box_Brush3_StaticMesh_StaticMeshComponent0",
			"translation": [ 39.3999977,
				1.5,
				25.8999996
			],
			"mesh": 3
		},
		{
			"name": "Box_Brush_StaticMesh1_StaticMeshComponent0",
			"translation": [ 39.3999977,
				2.5,
				25.8999996
			],
			"mesh": 4
		},
		{
			"name": "Box_Brush5_StaticMesh1_StaticMeshComponent0",
			"translation": [ 39.3999977,
				3.46000004,
				25.8999996
			],
			"mesh": 5
		}
	],
	"samplers": [
		{
			"name": "default_MetallicRoughness",
			"minFilter": 9987,
			"magFilter": 9729
		},
		{
			"name": "default_Occlusion",
			"minFilter": 9987,
			"magFilter": 9729
		},
		{
			"name": "Brass_scoacdjp_inst_BaseColor",
			"minFilter": 9987,
			"magFilter": 9729
		},
		{
			"name": "Brass_scoacdjp_inst_MetallicRoughness",
			"minFilter": 9987,
			"magFilter": 9729
		},
		{
			"name": "Brass_scoacdjp_inst_Normal",
			"minFilter": 9987,
			"magFilter": 9729
		},
		{
			"name": "Black_Galaxy_Granite_Square_Tiles_uidkbbdl_inst_BaseColor",
			"minFilter": 9987,
			"magFilter": 9729
		},
		{
			"name": "Black_Galaxy_Granite_Square_Tiles_uidkbbdl_inst_MetallicRoughness",
			"minFilter": 9987,
			"magFilter": 9729
		},
		{
			"name": "Black_Galaxy_Granite_Square_Tiles_uidkbbdl_inst_Normal",
			"minFilter": 9987,
			"magFilter": 9729
		},
		{
			"name": "Gray_Granite_tgvgdiuv_inst_BaseColor",
			"minFilter": 9987,
			"magFilter": 9729
		},
		{
			"name": "Gray_Granite_tgvgdiuv_inst_MetallicRoughness",
			"minFilter": 9987,
			"magFilter": 9729
		},
		{
			"name": "Gray_Granite_tgvgdiuv_inst_Normal",
			"minFilter": 9987,
			"magFilter": 9729
		},
		{
			"name": "WorldGridMaterial_BaseColor",
			"minFilter": 9987,
			"magFilter": 9729
		},
		{
			"name": "WorldGridMaterial_MetallicRoughness",
			"minFilter": 9987,
			"magFilter": 9729
		},
		{
			"name": "WorldGridMaterial_Normal",
			"minFilter": 9987,
			"magFilter": 9729
		},
		{
			"name": "pushkin_default_color",
			"minFilter": 9987,
			"magFilter": 9729
		},
		{
			"name": "pushkin_default_nmap",
			"minFilter": 9987,
			"magFilter": 9729
		}
	],
	"scenes": [
		{
			"name": "ThirdPersonExampleMap",
			"nodes": [ 0, 1, 2, 3, 4, 5 ]
		}
	],
	"textures": [
		{
			"name": "pushkin_default_color",
			"sampler": 14,
			"source": 14
		},
		{
			"name": "default_MetallicRoughness",
			"sampler": 0,
			"source": 0
		},
		{
			"name": "pushkin_default_nmap",
			"sampler": 15,
			"source": 15
		},
		{
			"name": "default_Occlusion",
			"sampler": 1,
			"source": 1
		},
		{
			"name": "Brass_scoacdjp_inst_BaseColor",
			"sampler": 2,
			"source": 2
		},
		{
			"name": "Brass_scoacdjp_inst_MetallicRoughness",
			"sampler": 3,
			"source": 3
		},
		{
			"name": "Brass_scoacdjp_inst_Normal",
			"sampler": 4,
			"source": 4
		},
		{
			"name": "Black_Galaxy_Granite_Square_Tiles_uidkbbdl_inst_BaseColor",
			"sampler": 5,
			"source": 5
		},
		{
			"name": "Black_Galaxy_Granite_Square_Tiles_uidkbbdl_inst_MetallicRoughness",
			"sampler": 6,
			"source": 6
		},
		{
			"name": "Black_Galaxy_Granite_Square_Tiles_uidkbbdl_inst_Normal",
			"sampler": 7,
			"source": 7
		},
		{
			"name": "Gray_Granite_tgvgdiuv_inst_BaseColor",
			"sampler": 8,
			"source": 8
		},
		{
			"name": "Gray_Granite_tgvgdiuv_inst_MetallicRoughness",
			"sampler": 9,
			"source": 9
		},
		{
			"name": "Gray_Granite_tgvgdiuv_inst_Normal",
			"sampler": 10,
			"source": 10
		},
		{
			"name": "WorldGridMaterial_BaseColor",
			"sampler": 11,
			"source": 11
		},
		{
			"name": "WorldGridMaterial_MetallicRoughness",
			"sampler": 12,
			"source": 12
		},
		{
			"name": "WorldGridMaterial_Normal",
			"sampler": 13,
			"source": 13
		}
	]
}