{
	"asset":
	{
		"version": "2.0",
		"generator": "Unreal Engine 4.25.0 glTF Exporter 1.0.6"
	},
	"scene": 0,
	"accessors": [
		{
			"bufferView": 0,
			"count": 65,
			"type": "MAT4",
			"componentType": 5126
		},
		{
			"bufferView": 1,
			"count": 134073,
			"type": "SCALAR",
			"componentType": 5123
		},
		{
			"bufferView": 2,
			"count": 28841,
			"type": "VEC3",
			"componentType": 5126,
			"min": [ -0.954383969,
				-0.00640299963,
				-0.266397983
			],
			"max": [ 0.954383969,
				2.10083485,
				0.372597009
			]
		},
		{
			"bufferView": 3,
			"count": 28841,
			"type": "VEC3",
			"componentType": 5126
		},
		{
			"bufferView": 4,
			"count": 28841,
			"type": "VEC4",
			"componentType": 5126
		},
		{
			"bufferView": 5,
			"count": 28841,
			"type": "VEC2",
			"componentType": 5126
		},
		{
			"bufferView": 6,
			"count": 28841,
			"type": "VEC4",
			"componentType": 5121
		},
		{
			"bufferView": 7,
			"count": 28841,
			"type": "VEC4",
			"componentType": 5121,
			"normalized": true
		},
		{
			"bufferView": 8,
			"count": 28841,
			"type": "VEC4",
			"componentType": 5121
		},
		{
			"bufferView": 9,
			"count": 28841,
			"type": "VEC4",
			"componentType": 5121,
			"normalized": true
		}
	],
	"buffers": [
		{
			"uri": "engineer.bin",
			"byteLength": 2118132
		}
	],
	"bufferViews": [
		{
			"buffer": 0,
			"byteLength": 4160
		},
		{
			"buffer": 0,
			"byteLength": 268146,
			"byteOffset": 4160,
			"target": 34963
		},
		{
			"buffer": 0,
			"byteLength": 346092,
			"byteOffset": 272308,
			"target": 34962
		},
		{
			"buffer": 0,
			"byteLength": 346092,
			"byteOffset": 618400,
			"target": 34962
		},
		{
			"buffer": 0,
			"byteLength": 461456,
			"byteOffset": 964492,
			"target": 34962
		},
		{
			"buffer": 0,
			"byteLength": 230728,
			"byteOffset": 1425948,
			"target": 34962
		},
		{
			"buffer": 0,
			"byteLength": 115364,
			"byteOffset": 1656676,
			"target": 34962
		},
		{
			"buffer": 0,
			"byteLength": 115364,
			"byteOffset": 1772040,
			"target": 34962
		},
		{
			"buffer": 0,
			"byteLength": 115364,
			"byteOffset": 1887404,
			"target": 34962
		},
		{
			"buffer": 0,
			"byteLength": 115364,
			"byteOffset": 2002768,
			"target": 34962
		}
	],
	"images": [
		{
			"uri": "models_characters_body_variants__kz4_hgh_e.png"
		}
	],
	"materials": [
		{
			"name": "models_characters_body_variants__kz4_hgh_Mat",
			"pbrMetallicRoughness":
			{
				"baseColorTexture":
				{
					"index": 0
				},
				"metallicFactor": 0,
				"roughnessFactor": 0.5
			}
		}
	],
	"meshes": [
		{
			"name": "HGH_EngineerTrooper",
			"primitives": [
				{
					"attributes":
					{
						"POSITION": 2,
						"NORMAL": 3,
						"TANGENT": 4,
						"TEXCOORD_0": 5,
						"JOINTS_0": 6,
						"JOINTS_1": 8,
						"WEIGHTS_0": 7,
						"WEIGHTS_1": 9
					},
					"indices": 1,
					"material": 0
				}
			]
		}
	],
	"nodes": [
		{
			"name": "HGH_EngineerTrooper_Skeleton_5_SkeletalMeshComponent0",
			"translation": [ 31.2999992,
				1.39999998,
				2.20000005
			],
			"skin": 0,
			"mesh": 0,
			"children": [ 1 ]
		},
		{
			"name": "Hips",
			"translation": [ 0,
				1.0997479,
				0.0452057198
			],
			"rotation": [ 0.707106709,
				-0,
				-0,
				0.707106829
			],
			"children": [ 2, 56, 61 ]
		},
		{
			"name": "Spine",
			"translation": [ 0,
				-0.00947759394,
				-0.134655297
			],
			"rotation": [ 0.035126891,
				-0,
				-0,
				-0.999382854
			],
			"children": [ 3 ]
		},
		{
			"name": "Spine1",
			"translation": [ 0,
				-1.35091226e-11,
				-0.157486409
			],
			"children": [ 4 ]
		},
		{
			"name": "Spine2",
			"translation": [ 0,
				4.31373687e-11,
				-0.17998457
			],
			"children": [ 5, 8, 32 ]
		},
		{
			"name": "Neck",
			"translation": [ 0,
				1.08358522e-09,
				-0.202482566
			],
			"rotation": [ -0.0351268947,
				-0,
				0,
				-0.999382854
			],
			"children": [ 6 ]
		},
		{
			"name": "Head",
			"translation": [ 0,
				0.00195548777,
				-0.0172038265
			],
			"children": [ 7 ]
		},
		{
			"name": "HeadTop_End",
			"translation": [ 0,
				0.035149496,
				-0.309235215
			]
		},
		{
			"name": "LeftShoulder",
			"translation": [ 0.0836001113,
				-0.00132640614,
				-0.162900373
			],
			"rotation": [ 0.59392637,
				-0.603847027,
				-0.379232258,
				0.372562855
			],
			"children": [ 9 ]
		},
		{
			"name": "LeftArm",
			"translation": [ 7.99270858e-11,
				-1.81982862e-09,
				-0.192636296
			],
			"rotation": [ 0.0189765282,
				0.0451788343,
				0.000858372368,
				-0.998798311
			],
			"children": [ 10 ]
		},
		{
			"name": "LeftForeArm",
			"translation": [ 1.75391091e-09,
				9.26773935e-10,
				-0.31187126
			],
			"rotation": [ 0.0126860077,
				-0.176700175,
				-0.00227763969,
				-0.984180331
			],
			"children": [ 11 ]
		},
		{
			"name": "LeftHand",
			"translation": [ -2.43991627e-09,
				2.94411406e-09,
				-0.213542521
			],
			"rotation": [ -0.0897004902,
				0.0564811602,
				-0.105118066,
				-0.988794148
			],
			"children": [ 12, 16, 20, 24, 28 ]
		},
		{
			"name": "LeftHandThumb1",
			"translation": [ -0.0244035311,
				0.0212249663,
				-0.0635263994
			],
			"rotation": [ -0.152434379,
				-0.0890711918,
				0.0137955463,
				-0.984194994
			],
			"children": [ 13 ]
		},
		{
			"name": "LeftHandThumb2",
			"translation": [ -0.0100816451,
				2.8904894e-09,
				-0.0561301708
			],
			"rotation": [ -0.199945867,
				4.10691369e-17,
				6.24381536e-17,
				-0.97980696
			],
			"children": [ 14 ]
		},
		{
			"name": "LeftHandThumb3",
			"translation": [ -0.00205249689,
				1.29209621e-09,
				-0.0517815165
			],
			"rotation": [ 0.0398180522,
				-5.57434235e-17,
				4.72304496e-18,
				-0.99920696
			],
			"children": [ 15 ]
		},
		{
			"name": "LeftHandThumb4",
			"translation": [ 0.0121341366,
				-9.11478532e-11,
				-0.0441437252
			]
		},
		{
			"name": "LeftHandIndex1",
			"translation": [ -0.0425418019,
				-0.000440376956,
				-0.189804286
			],
			"rotation": [ -0.0783455074,
				-0.0349409916,
				0.00274759578,
				-0.996309996
			],
			"children": [ 17 ]
		},
		{
			"name": "LeftHandIndex2",
			"translation": [ 0.000285992515,
				-8.94705143e-10,
				-0.0342179909
			],
			"rotation": [ -0.0953685418,
				-2.76290666e-17,
				2.64700877e-18,
				-0.995442033
			],
			"children": [ 18 ]
		},
		{
			"name": "LeftHandIndex3",
			"translation": [ -0.00102387753,
				1.21576982e-09,
				-0.0346181989
			],
			"rotation": [ 0.113095395,
				-2.75774985e-17,
				-3.1390278e-18,
				-0.993584096
			],
			"children": [ 19 ]
		},
		{
			"name": "LeftHandIndex4",
			"translation": [ 0.000737886992,
				1.84090257e-10,
				-0.026277246
			]
		},
		{
			"name": "LeftHandMiddle1",
			"translation": [ -0.0192508865,
				-0.00290129869,
				-0.186135098
			],
			"rotation": [ 0.00275045633,
				0.0852122307,
				0.000235215281,
				-0.996358991
			],
			"children": [ 21 ]
		},
		{
			"name": "LeftHandMiddle2",
			"translation": [ 0.00250801863,
				4.29918129e-10,
				-0.0450213291
			],
			"rotation": [ -0.333757401,
				4.5787074e-17,
				-1.62113503e-17,
				-0.94265902
			],
			"children": [ 22 ]
		},
		{
			"name": "LeftHandMiddle3",
			"translation": [ -0.00176408165,
				1.46944645e-09,
				-0.0402838551
			],
			"rotation": [ 0.0653966591,
				-2.63348185e-17,
				-2.2587242e-17,
				-0.997859359
			],
			"children": [ 23 ]
		},
		{
			"name": "LeftHandMiddle4",
			"translation": [ -0.000743936049,
				-1.75871831e-10,
				-0.0299578141
			]
		},
		{
			"name": "LeftHandRing1",
			"translation": [ 0.0161060225,
				-0.00346254837,
				-0.185125142
			],
			"rotation": [ -0.143681452,
				0.185117498,
				-0.0273706298,
				-0.971770525
			],
			"children": [ 25 ]
		},
		{
			"name": "LeftHandRing2",
			"translation": [ 0.000478924398,
				-1.61476577e-09,
				-0.0357792191
			],
			"rotation": [ -0.211998269,
				3.46413811e-17,
				-3.96458072e-18,
				-0.977270067
			],
			"children": [ 26 ]
		},
		{
			"name": "LeftHandRing3",
			"translation": [ -0.000210418773,
				1.6196082e-10,
				-0.0300763808
			],
			"rotation": [ -0.0730219409,
				1.29540289e-17,
				-1.31240294e-17,
				-0.997330308
			],
			"children": [ 27 ]
		},
		{
			"name": "LeftHandRing4",
			"translation": [ -0.000268506614,
				-8.23825938e-11,
				-0.0230242033
			]
		},
		{
			"name": "LeftHandPinky1",
			"translation": [ 0.0456866361,
				-0.00619144924,
				-0.167425036
			],
			"rotation": [ -0.276289344,
				0.17376101,
				-0.0508634597,
				-0.943866611
			],
			"children": [ 29 ]
		},
		{
			"name": "LeftHandPinky2",
			"translation": [ 6.21342188e-05,
				-2.65576144e-10,
				-0.0270891227
			],
			"rotation": [ -0.0670533627,
				-8.5517439e-18,
				-2.37661944e-17,
				-0.997749388
			],
			"children": [ 30 ]
		},
		{
			"name": "LeftHandPinky3",
			"translation": [ -0.00017937721,
				-3.3994027e-10,
				-0.0238286033
			],
			"rotation": [ 0.192429215,
				-1.3352459e-18,
				6.80921184e-18,
				-0.981310844
			],
			"children": [ 31 ]
		},
		{
			"name": "LeftHandPinky4",
			"translation": [ 0.000117243304,
				-2.67046968e-10,
				-0.0122346105
			]
		},
		{
			"name": "RightShoulder",
			"translation": [ -0.0836001113,
				-0.0042311186,
				-0.163104817
			],
			"rotation": [ -0.583136737,
				-0.613408685,
				-0.38602823,
				-0.366965324
			],
			"children": [ 33 ]
		},
		{
			"name": "RightArm",
			"translation": [ 2.86349694e-10,
				-1.79188042e-09,
				-0.192636296
			],
			"rotation": [ 0.0171898957,
				-0.0154434089,
				-0.000265536073,
				-0.999732912
			],
			"children": [ 34 ]
		},
		{
			"name": "RightForeArm",
			"translation": [ 6.89980739e-10,
				1.44216805e-09,
				-0.311301351
			],
			"rotation": [ 0.0114579704,
				0.158415124,
				0.00183845661,
				-0.987304389
			],
			"children": [ 35 ]
		},
		{
			"name": "RightHand",
			"translation": [ -1.61748615e-09,
				3.36518124e-09,
				-0.213026419
			],
			"rotation": [ -0.0861281529,
				-0.0494106896,
				0.114940718,
				-0.988397241
			],
			"children": [ 36, 40, 44, 48, 52 ]
		},
		{
			"name": "RightHandThumb1",
			"translation": [ 0.0245758817,
				0.023882255,
				-0.0648991764
			],
			"rotation": [ -0.166354463,
				0.0953131765,
				-0.0161576588,
				-0.981315732
			],
			"children": [ 37 ]
		},
		{
			"name": "RightHandThumb2",
			"translation": [ 0.00930191111,
				-6.20622664e-10,
				-0.0579711534
			],
			"rotation": [ -0.187777087,
				9.22092706e-17,
				3.88881164e-17,
				-0.982211649
			],
			"children": [ 38 ]
		},
		{
			"name": "RightHandThumb3",
			"translation": [ -0.00136282272,
				-6.67128575e-10,
				-0.051249072
			],
			"rotation": [ 0.0353978723,
				-2.72469356e-17,
				-1.48515779e-17,
				-0.999373257
			],
			"children": [ 39 ]
		},
		{
			"name": "RightHandThumb4",
			"translation": [ -0.00793909002,
				-1.96048755e-09,
				-0.0421253443
			]
		},
		{
			"name": "RightHandIndex1",
			"translation": [ 0.0427443124,
				-0.000644255022,
				-0.187973127
			],
			"rotation": [ -0.112530433,
				0.012181635,
				-0.00137967221,
				-0.993572652
			],
			"children": [ 41 ]
		},
		{
			"name": "RightHandIndex2",
			"translation": [ 9.42154584e-05,
				2.38955677e-09,
				-0.0346429497
			],
			"rotation": [ -0.0719874129,
				6.92089115e-17,
				-4.99513031e-18,
				-0.997405529
			],
			"children": [ 42 ]
		},
		{
			"name": "RightHandIndex3",
			"translation": [ 0.000880616426,
				-5.89967575e-10,
				-0.0366461761
			],
			"rotation": [ 0.154637262,
				5.48434246e-17,
				8.58409245e-18,
				-0.987971306
			],
			"children": [ 43 ]
		},
		{
			"name": "RightHandIndex4",
			"translation": [ -0.000974831171,
				2.00982342e-09,
				-0.0272586476
			]
		},
		{
			"name": "RightHandMiddle1",
			"translation": [ 0.0159464665,
				-0.00613443041,
				-0.19135423
			],
			"rotation": [ -0.0828265175,
				-0.102876887,
				0.00859657489,
				-0.991202414
			],
			"children": [ 45 ]
		},
		{
			"name": "RightHandMiddle2",
			"translation": [ -0.0010579396,
				3.64160369e-09,
				-0.0436322242
			],
			"rotation": [ -0.256147265,
				3.03843424e-17,
				6.30527769e-18,
				-0.966637731
			],
			"children": [ 46 ]
		},
		{
			"name": "RightHandMiddle3",
			"translation": [ 0.000712950656,
				-7.43716699e-10,
				-0.038195923
			],
			"rotation": [ 0.0507137775,
				4.28114274e-17,
				-2.2143491e-17,
				-0.998713195
			],
			"children": [ 47 ]
		},
		{
			"name": "RightHandMiddle4",
			"translation": [ 0.000344988744,
				8.59639027e-10,
				-0.0315027647
			]
		},
		{
			"name": "RightHandRing1",
			"translation": [ -0.0131378854,
				-0.00289344834,
				-0.181310341
			],
			"rotation": [ -0.101519495,
				-0.230867177,
				0.024228055,
				-0.967371225
			],
			"children": [ 49 ]
		},
		{
			"name": "RightHandRing2",
			"translation": [ 0.000221675306,
				-1.49450297e-09,
				-0.0365133025
			],
			"rotation": [ -0.233363807,
				-2.0376165e-17,
				-7.00370847e-17,
				-0.972389519
			],
			"children": [ 50 ]
		},
		{
			"name": "RightHandRing3",
			"translation": [ -0.000181793308,
				4.24682844e-10,
				-0.0301729105
			],
			"rotation": [ 0.101013482,
				-4.18732971e-18,
				-2.74516033e-17,
				-0.994885027
			],
			"children": [ 51 ]
		},
		{
			"name": "RightHandRing4",
			"translation": [ -3.98816956e-05,
				2.55340915e-10,
				-0.0248774979
			]
		},
		{
			"name": "RightHandPinky1",
			"translation": [ -0.0455529019,
				-0.00390937971,
				-0.164668724
			],
			"rotation": [ -0.208729401,
				-0.183237925,
				0.0398479663,
				-0.959827065
			],
			"children": [ 53 ]
		},
		{
			"name": "RightHandPinky2",
			"translation": [ -0.000308380142,
				1.32589739e-09,
				-0.0286639594
			],
			"rotation": [ -0.172426581,
				-7.17869853e-18,
				-4.1009795e-17,
				-0.985022366
			],
			"children": [ 54 ]
		},
		{
			"name": "RightHandPinky3",
			"translation": [ 1.57891427e-05,
				-1.85680582e-10,
				-0.0233239122
			],
			"rotation": [ 0.0473431945,
				-9.85528211e-19,
				2.07933403e-17,
				-0.998878658
			],
			"children": [ 55 ]
		},
		{
			"name": "RightHandPinky4",
			"translation": [ 0.000292591256,
				1.6401841e-10,
				-0.0161479171
			]
		},
		{
			"name": "LeftUpLeg",
			"translation": [ 0.116263017,
				-0.019635167,
				0.0748992935
			],
			"rotation": [ 0.00164239004,
				-0.997442603,
				-0.0243920926,
				0.0671606809
			],
			"children": [ 57 ]
		},
		{
			"name": "LeftLeg",
			"translation": [ -4.63300787e-10,
				-3.91655985e-10,
				-0.483914912
			],
			"rotation": [ 0.0300339609,
				0.00189877115,
				5.70529519e-05,
				-0.999547064
			],
			"children": [ 58 ]
		},
		{
			"name": "LeftFoot",
			"translation": [ 1.06054976e-09,
				1.09702525e-09,
				-0.379987359
			],
			"rotation": [ -0.426306814,
				-0.0227425657,
				-0.0481736064,
				-0.90300864
			],
			"children": [ 59 ]
		},
		{
			"name": "LeftToeBase",
			"translation": [ -4.4163101e-10,
				-3.84932891e-10,
				-0.240420505
			],
			"rotation": [ -0.389784932,
				-0.0417607948,
				-0.0980017111,
				-0.914723694
			],
			"children": [ 60 ]
		},
		{
			"name": "LeftToe_End",
			"translation": [ -3.37113698e-10,
				2.20683593e-11,
				-0.0936829671
			]
		},
		{
			"name": "RightUpLeg",
			"translation": [ -0.116263017,
				-0.0147100491,
				0.0748992935
			],
			"rotation": [ -0.00349646807,
				-0.996396124,
				-0.0521489345,
				-0.0668061003
			],
			"children": [ 62 ]
		},
		{
			"name": "RightLeg",
			"translation": [ -1.20962607e-09,
				2.36953945e-09,
				-0.485954434
			],
			"rotation": [ -0.0248087216,
				-0.00137042534,
				3.4009372e-05,
				-0.999691248
			],
			"children": [ 63 ]
		},
		{
			"name": "RightFoot",
			"translation": [ -3.40166006e-09,
				7.53791404e-11,
				-0.378334343
			],
			"rotation": [ -0.407659262,
				0.0237077959,
				0.0529967062,
				-0.911286592
			],
			"children": [ 64 ]
		},
		{
			"name": "RightToeBase",
			"translation": [ 6.61510791e-10,
				-6.42487974e-09,
				-0.243383229
			],
			"rotation": [ -0.384057522,
				0.0379499495,
				0.0907162279,
				-0.918057859
			],
			"children": [ 65 ]
		},
		{
			"name": "RightToe_End",
			"translation": [ -1.44680393e-10,
				-8.62117322e-11,
				-0.097789079
			]
		}
	],
	"samplers": [
		{
			"name": "models_characters_body_variants__kz4_hgh_e",
			"minFilter": 9987,
			"magFilter": 9729
		}
	],
	"scenes": [
		{
			"name": "ThirdPersonExampleMap",
			"nodes": [ 0 ]
		}
	],
	"skins": [
		{
			"name": "HGH_EngineerTrooper_Skeleton",
			"inverseBindMatrices": 0,
			"skeleton": 0,
			"joints": [ 1, 2, 3, 4, 5, 6, 7, 8, 9, 10, 11, 12, 13, 14, 15, 16, 17, 18, 19, 20, 21, 22, 23, 24, 25, 26, 27, 28, 29, 30, 31, 32, 33, 34, 35, 36, 37, 38, 39, 40, 41, 42, 43, 44, 45, 46, 47, 48, 49, 50, 51, 52, 53, 54, 55, 56, 57, 58, 59, 60, 61, 62, 63, 64, 65 ]
		}
	],
	"textures": [
		{
			"name": "models_characters_body_variants__kz4_hgh_e",
			"sampler": 0,
			"source": 0
		}
	]
}