{
	"asset":
	{
		"version": "2.0",
		"generator": "Unreal Engine 4.25.0 glTF Exporter 1.0.6"
	},
	"scene": 0,
	"accessors": [
		{
			"bufferView": 0,
			"count": 11928,
			"type": "SCALAR",
			"componentType": 5123
		},
		{
			"bufferView": 1,
			"count": 3537,
			"type": "VEC3",
			"componentType": 5126,
			"min": [ -8.5419178,
				-0.0281982385,
				-14.0574055
			],
			"max": [ -6.34256077,
				5.80054045,
				-8.21713924
			]
		},
		{
			"bufferView": 2,
			"count": 3537,
			"type": "VEC3",
			"componentType": 5126
		},
		{
			"bufferView": 3,
			"count": 3537,
			"type": "VEC4",
			"componentType": 5126
		},
		{
			"bufferView": 4,
			"count": 3537,
			"type": "VEC2",
			"componentType": 5126
		},
		{
			"bufferView": 5,
			"count": 3537,
			"type": "VEC2",
			"componentType": 5126
		},
		{
			"bufferView": 6,
			"count": 11928,
			"type": "SCALAR",
			"componentType": 5123
		},
		{
			"bufferView": 7,
			"count": 3535,
			"type": "VEC3",
			"componentType": 5126,
			"min": [ 6.18218088,
				-0.0281982385,
				-14.0574055
			],
			"max": [ 8.38153553,
				5.80054045,
				-8.21713924
			]
		},
		{
			"bufferView": 8,
			"count": 3535,
			"type": "VEC3",
			"componentType": 5126
		},
		{
			"bufferView": 9,
			"count": 3535,
			"type": "VEC4",
			"componentType": 5126
		},
		{
			"bufferView": 10,
			"count": 3535,
			"type": "VEC2",
			"componentType": 5126
		},
		{
			"bufferView": 11,
			"count": 3535,
			"type": "VEC2",
			"componentType": 5126
		},
		{
			"bufferView": 12,
			"count": 11928,
			"type": "SCALAR",
			"componentType": 5123
		},
		{
			"bufferView": 13,
			"count": 3523,
			"type": "VEC3",
			"componentType": 5126,
			"min": [ -8.42545795,
				-0.0689656585,
				8.70026493
			],
			"max": [ -6.18891335,
				5.46721745,
				14.2473946
			]
		},
		{
			"bufferView": 14,
			"count": 3523,
			"type": "VEC3",
			"componentType": 5126
		},
		{
			"bufferView": 15,
			"count": 3523,
			"type": "VEC4",
			"componentType": 5126
		},
		{
			"bufferView": 16,
			"count": 3523,
			"type": "VEC2",
			"componentType": 5126
		},
		{
			"bufferView": 17,
			"count": 3523,
			"type": "VEC2",
			"componentType": 5126
		},
		{
			"bufferView": 18,
			"count": 11928,
			"type": "SCALAR",
			"componentType": 5123
		},
		{
			"bufferView": 19,
			"count": 3522,
			"type": "VEC3",
			"componentType": 5126,
			"min": [ 6.02853203,
				-0.0689654201,
				8.70026493
			],
			"max": [ 8.26507568,
				5.46721745,
				14.2473946
			]
		},
		{
			"bufferView": 20,
			"count": 3522,
			"type": "VEC3",
			"componentType": 5126
		},
		{
			"bufferView": 21,
			"count": 3522,
			"type": "VEC4",
			"componentType": 5126
		},
		{
			"bufferView": 22,
			"count": 3522,
			"type": "VEC2",
			"componentType": 5126
		},
		{
			"bufferView": 23,
			"count": 3522,
			"type": "VEC2",
			"componentType": 5126
		},
		{
			"bufferView": 24,
			"count": 29472,
			"type": "SCALAR",
			"componentType": 5123
		},
		{
			"bufferView": 25,
			"count": 8125,
			"type": "VEC3",
			"componentType": 5126,
			"min": [ -9.43195534,
				0.920981944,
				-18.6993351
			],
			"max": [ 9.27157307,
				9.1559248,
				19.4901943
			]
		},
		{
			"bufferView": 26,
			"count": 8125,
			"type": "VEC3",
			"componentType": 5126
		},
		{
			"bufferView": 27,
			"count": 8125,
			"type": "VEC4",
			"componentType": 5126
		},
		{
			"bufferView": 28,
			"count": 8125,
			"type": "VEC2",
			"componentType": 5126
		},
		{
			"bufferView": 29,
			"count": 8125,
			"type": "VEC2",
			"componentType": 5126
		},
		{
			"bufferView": 30,
			"count": 1482,
			"type": "SCALAR",
			"componentType": 5123
		},
		{
			"bufferView": 31,
			"count": 436,
			"type": "VEC3",
			"componentType": 5126,
			"min": [ -7.48488998,
				4.06048918,
				-16.2251873
			],
			"max": [ 7.32450676,
				8.76127625,
				17.9663715
			]
		},
		{
			"bufferView": 32,
			"count": 436,
			"type": "VEC3",
			"componentType": 5126
		},
		{
			"bufferView": 33,
			"count": 436,
			"type": "VEC4",
			"componentType": 5126
		},
		{
			"bufferView": 34,
			"count": 436,
			"type": "VEC2",
			"componentType": 5126
		},
		{
			"bufferView": 35,
			"count": 436,
			"type": "VEC2",
			"componentType": 5126
		},
		{
			"bufferView": 36,
			"count": 546,
			"type": "SCALAR",
			"componentType": 5121
		},
		{
			"bufferView": 37,
			"count": 230,
			"type": "VEC3",
			"componentType": 5126,
			"min": [ -8.50180912,
				1.13531303,
				-16.9421482
			],
			"max": [ 8.34142971,
				5.7730689,
				18.2827015
			]
		},
		{
			"bufferView": 38,
			"count": 230,
			"type": "VEC3",
			"componentType": 5126
		},
		{
			"bufferView": 39,
			"count": 230,
			"type": "VEC4",
			"componentType": 5126
		},
		{
			"bufferView": 40,
			"count": 230,
			"type": "VEC2",
			"componentType": 5126
		},
		{
			"bufferView": 41,
			"count": 230,
			"type": "VEC2",
			"componentType": 5126
		},
		{
			"bufferView": 42,
			"count": 23142,
			"type": "SCALAR",
			"componentType": 5123
		},
		{
			"bufferView": 43,
			"count": 6758,
			"type": "VEC3",
			"componentType": 5126,
			"min": [ -7.64228058,
				1.34134996,
				-3.49110317
			],
			"max": [ 25.9922867,
				9.51107311,
				12.5262718
			]
		},
		{
			"bufferView": 44,
			"count": 6758,
			"type": "VEC3",
			"componentType": 5126
		},
		{
			"bufferView": 45,
			"count": 6758,
			"type": "VEC4",
			"componentType": 5126
		},
		{
			"bufferView": 46,
			"count": 6758,
			"type": "VEC2",
			"componentType": 5126
		},
		{
			"bufferView": 47,
			"count": 6758,
			"type": "VEC2",
			"componentType": 5126
		},
		{
			"bufferView": 48,
			"count": 24201,
			"type": "SCALAR",
			"componentType": 5123
		},
		{
			"bufferView": 49,
			"count": 7323,
			"type": "VEC3",
			"componentType": 5126,
			"min": [ -8.60919571,
				0.923569441,
				-17.4889698
			],
			"max": [ 8.44881439,
				10.0034361,
				18.9794788
			]
		},
		{
			"bufferView": 50,
			"count": 7323,
			"type": "VEC3",
			"componentType": 5126
		},
		{
			"bufferView": 51,
			"count": 7323,
			"type": "VEC4",
			"componentType": 5126
		},
		{
			"bufferView": 52,
			"count": 7323,
			"type": "VEC2",
			"componentType": 5126
		},
		{
			"bufferView": 53,
			"count": 7323,
			"type": "VEC2",
			"componentType": 5126
		},
		{
			"bufferView": 54,
			"count": 1344,
			"type": "SCALAR",
			"componentType": 5123
		},
		{
			"bufferView": 55,
			"count": 296,
			"type": "VEC3",
			"componentType": 5126,
			"min": [ -3.29586792,
				4.18326712,
				-11.6773481
			],
			"max": [ 3.36166883,
				8.28504753,
				18.3202686
			]
		},
		{
			"bufferView": 56,
			"count": 296,
			"type": "VEC3",
			"componentType": 5126
		},
		{
			"bufferView": 57,
			"count": 296,
			"type": "VEC4",
			"componentType": 5126
		},
		{
			"bufferView": 58,
			"count": 296,
			"type": "VEC2",
			"componentType": 5126
		},
		{
			"bufferView": 59,
			"count": 296,
			"type": "VEC2",
			"componentType": 5126
		},
		{
			"bufferView": 60,
			"count": 726,
			"type": "SCALAR",
			"componentType": 5121
		},
		{
			"bufferView": 61,
			"count": 169,
			"type": "VEC3",
			"componentType": 5126,
			"min": [ -7.27186871,
				5.74152756,
				-16.2251873
			],
			"max": [ 7.13274574,
				6.63889503,
				-14.662364
			]
		},
		{
			"bufferView": 62,
			"count": 169,
			"type": "VEC3",
			"componentType": 5126
		},
		{
			"bufferView": 63,
			"count": 169,
			"type": "VEC4",
			"componentType": 5126
		},
		{
			"bufferView": 64,
			"count": 169,
			"type": "VEC2",
			"componentType": 5126
		},
		{
			"bufferView": 65,
			"count": 169,
			"type": "VEC2",
			"componentType": 5126
		}
	],
	"buffers": [
		{
			"uri": "car2.bin",
			"byteLength": 2353408
		}
	],
	"bufferViews": [
		{
			"buffer": 0,
			"byteLength": 23856,
			"target": 34963
		},
		{
			"buffer": 0,
			"byteLength": 42444,
			"byteOffset": 23856,
			"target": 34962
		},
		{
			"buffer": 0,
			"byteLength": 42444,
			"byteOffset": 66300,
			"target": 34962
		},
		{
			"buffer": 0,
			"byteLength": 56592,
			"byteOffset": 108744,
			"target": 34962
		},
		{
			"buffer": 0,
			"byteLength": 28296,
			"byteOffset": 165336,
			"target": 34962
		},
		{
			"buffer": 0,
			"byteLength": 28296,
			"byteOffset": 193632,
			"target": 34962
		},
		{
			"buffer": 0,
			"byteLength": 23856,
			"byteOffset": 221928,
			"target": 34963
		},
		{
			"buffer": 0,
			"byteLength": 42420,
			"byteOffset": 245784,
			"target": 34962
		},
		{
			"buffer": 0,
			"byteLength": 42420,
			"byteOffset": 288204,
			"target": 34962
		},
		{
			"buffer": 0,
			"byteLength": 56560,
			"byteOffset": 330624,
			"target": 34962
		},
		{
			"buffer": 0,
			"byteLength": 28280,
			"byteOffset": 387184,
			"target": 34962
		},
		{
			"buffer": 0,
			"byteLength": 28280,
			"byteOffset": 415464,
			"target": 34962
		},
		{
			"buffer": 0,
			"byteLength": 23856,
			"byteOffset": 443744,
			"target": 34963
		},
		{
			"buffer": 0,
			"byteLength": 42276,
			"byteOffset": 467600,
			"target": 34962
		},
		{
			"buffer": 0,
			"byteLength": 42276,
			"byteOffset": 509876,
			"target": 34962
		},
		{
			"buffer": 0,
			"byteLength": 56368,
			"byteOffset": 552152,
			"target": 34962
		},
		{
			"buffer": 0,
			"byteLength": 28184,
			"byteOffset": 608520,
			"target": 34962
		},
		{
			"buffer": 0,
			"byteLength": 28184,
			"byteOffset": 636704,
			"target": 34962
		},
		{
			"buffer": 0,
			"byteLength": 23856,
			"byteOffset": 664888,
			"target": 34963
		},
		{
			"buffer": 0,
			"byteLength": 42264,
			"byteOffset": 688744,
			"target": 34962
		},
		{
			"buffer": 0,
			"byteLength": 42264,
			"byteOffset": 731008,
			"target": 34962
		},
		{
			"buffer": 0,
			"byteLength": 56352,
			"byteOffset": 773272,
			"target": 34962
		},
		{
			"buffer": 0,
			"byteLength": 28176,
			"byteOffset": 829624,
			"target": 34962
		},
		{
			"buffer": 0,
			"byteLength": 28176,
			"byteOffset": 857800,
			"target": 34962
		},
		{
			"buffer": 0,
			"byteLength": 58944,
			"byteOffset": 885976,
			"target": 34963
		},
		{
			"buffer": 0,
			"byteLength": 97500,
			"byteOffset": 944920,
			"target": 34962
		},
		{
			"buffer": 0,
			"byteLength": 97500,
			"byteOffset": 1042420,
			"target": 34962
		},
		{
			"buffer": 0,
			"byteLength": 130000,
			"byteOffset": 1139920,
			"target": 34962
		},
		{
			"buffer": 0,
			"byteLength": 65000,
			"byteOffset": 1269920,
			"target": 34962
		},
		{
			"buffer": 0,
			"byteLength": 65000,
			"byteOffset": 1334920,
			"target": 34962
		},
		{
			"buffer": 0,
			"byteLength": 2964,
			"byteOffset": 1399920,
			"target": 34963
		},
		{
			"buffer": 0,
			"byteLength": 5232,
			"byteOffset": 1402884,
			"target": 34962
		},
		{
			"buffer": 0,
			"byteLength": 5232,
			"byteOffset": 1408116,
			"target": 34962
		},
		{
			"buffer": 0,
			"byteLength": 6976,
			"byteOffset": 1413348,
			"target": 34962
		},
		{
			"buffer": 0,
			"byteLength": 3488,
			"byteOffset": 1420324,
			"target": 34962
		},
		{
			"buffer": 0,
			"byteLength": 3488,
			"byteOffset": 1423812,
			"target": 34962
		},
		{
			"buffer": 0,
			"byteLength": 546,
			"byteOffset": 1427300,
			"target": 34963
		},
		{
			"buffer": 0,
			"byteLength": 2760,
			"byteOffset": 1427848,
			"target": 34962
		},
		{
			"buffer": 0,
			"byteLength": 2760,
			"byteOffset": 1430608,
			"target": 34962
		},
		{
			"buffer": 0,
			"byteLength": 3680,
			"byteOffset": 1433368,
			"target": 34962
		},
		{
			"buffer": 0,
			"byteLength": 1840,
			"byteOffset": 1437048,
			"target": 34962
		},
		{
			"buffer": 0,
			"byteLength": 1840,
			"byteOffset": 1438888,
			"target": 34962
		},
		{
			"buffer": 0,
			"byteLength": 46284,
			"byteOffset": 1440728,
			"target": 34963
		},
		{
			"buffer": 0,
			"byteLength": 81096,
			"byteOffset": 1487012,
			"target": 34962
		},
		{
			"buffer": 0,
			"byteLength": 81096,
			"byteOffset": 1568108,
			"target": 34962
		},
		{
			"buffer": 0,
			"byteLength": 108128,
			"byteOffset": 1649204,
			"target": 34962
		},
		{
			"buffer": 0,
			"byteLength": 54064,
			"byteOffset": 1757332,
			"target": 34962
		},
		{
			"buffer": 0,
			"byteLength": 54064,
			"byteOffset": 1811396,
			"target": 34962
		},
		{
			"buffer": 0,
			"byteLength": 48402,
			"byteOffset": 1865460,
			"target": 34963
		},
		{
			"buffer": 0,
			"byteLength": 87876,
			"byteOffset": 1913864,
			"target": 34962
		},
		{
			"buffer": 0,
			"byteLength": 87876,
			"byteOffset": 2001740,
			"target": 34962
		},
		{
			"buffer": 0,
			"byteLength": 117168,
			"byteOffset": 2089616,
			"target": 34962
		},
		{
			"buffer": 0,
			"byteLength": 58584,
			"byteOffset": 2206784,
			"target": 34962
		},
		{
			"buffer": 0,
			"byteLength": 58584,
			"byteOffset": 2265368,
			"target": 34962
		},
		{
			"buffer": 0,
			"byteLength": 2688,
			"byteOffset": 2323952,
			"target": 34963
		},
		{
			"buffer": 0,
			"byteLength": 3552,
			"byteOffset": 2326640,
			"target": 34962
		},
		{
			"buffer": 0,
			"byteLength": 3552,
			"byteOffset": 2330192,
			"target": 34962
		},
		{
			"buffer": 0,
			"byteLength": 4736,
			"byteOffset": 2333744,
			"target": 34962
		},
		{
			"buffer": 0,
			"byteLength": 2368,
			"byteOffset": 2338480,
			"target": 34962
		},
		{
			"buffer": 0,
			"byteLength": 2368,
			"byteOffset": 2340848,
			"target": 34962
		},
		{
			"buffer": 0,
			"byteLength": 726,
			"byteOffset": 2343216,
			"target": 34963
		},
		{
			"buffer": 0,
			"byteLength": 2028,
			"byteOffset": 2343944,
			"target": 34962
		},
		{
			"buffer": 0,
			"byteLength": 2028,
			"byteOffset": 2345972,
			"target": 34962
		},
		{
			"buffer": 0,
			"byteLength": 2704,
			"byteOffset": 2348000,
			"target": 34962
		},
		{
			"buffer": 0,
			"byteLength": 1352,
			"byteOffset": 2350704,
			"target": 34962
		},
		{
			"buffer": 0,
			"byteLength": 1352,
			"byteOffset": 2352056,
			"target": 34962
		}
	],
	"images": [
		{
			"uri": "Red_MetallicRoughness.png"
		},
		{
			"uri": "Red_Normal.png"
		}
	],
	"materials": [
		{
			"name": "Carbon_001",
			"pbrMetallicRoughness":
			{
				"baseColorFactor": [ 0,
					0,
					0,
					1
				],
				"metallicFactor": 0,
				"roughnessFactor": 0.5
			}
		},
		{
			"name": "Grille",
			"pbrMetallicRoughness":
			{
				"baseColorFactor": [ 0.0198369715,
					0.0198369715,
					0.0198369715,
					1
				],
				"metallicFactor": 0,
				"roughnessFactor": 0.5
			}
		},
		{
			"name": "M_Glass",
			"pbrMetallicRoughness":
			{
				"baseColorFactor": [ 0.0458334275,
					0.0416159853,
					0.0307692699,
					0.99000001
				],
				"metallicFactor": 0,
				"roughnessFactor": 0
			},
			"alphaMode": "BLEND"
		},
		{
			"name": "Carbon_002",
			"pbrMetallicRoughness":
			{
				"baseColorFactor": [ 0.0331047662,
					0.0331047662,
					0.0331047662,
					1
				],
				"metallicFactor": 0,
				"roughnessFactor": 0.5
			}
		},
		{
			"name": "Red",
			"pbrMetallicRoughness":
			{
				"baseColorFactor": [ 0.230740041,
					0,
					0,
					1
				],
				"metallicRoughnessTexture":
				{
					"index": 0
				}
			},
			"normalTexture":
			{
				"index": 1
			}
		},
		{
			"name": "Color_A08",
			"pbrMetallicRoughness":
			{
				"baseColorFactor": [ 0.39312312,
					0,
					0,
					1
				],
				"metallicFactor": 0,
				"roughnessFactor": 0.5
			}
		}
	],
	"meshes": [
		{
			"name": "uploads_files_2792345_Koenigsegg_RR",
			"primitives": [
				{
					"attributes":
					{
						"POSITION": 1,
						"NORMAL": 2,
						"TANGENT": 3,
						"TEXCOORD_0": 4,
						"TEXCOORD_1": 5
					},
					"indices": 0,
					"material": 0
				}
			]
		},
		{
			"name": "uploads_files_2792345_Koenigsegg_RL",
			"primitives": [
				{
					"attributes":
					{
						"POSITION": 7,
						"NORMAL": 8,
						"TANGENT": 9,
						"TEXCOORD_0": 10,
						"TEXCOORD_1": 11
					},
					"indices": 6,
					"material": 0
				}
			]
		},
		{
			"name": "uploads_files_2792345_Koenigsegg_FR",
			"primitives": [
				{
					"attributes":
					{
						"POSITION": 13,
						"NORMAL": 14,
						"TANGENT": 15,
						"TEXCOORD_0": 16,
						"TEXCOORD_1": 17
					},
					"indices": 12,
					"material": 0
				}
			]
		},
		{
			"name": "uploads_files_2792345_Koenigsegg_FL",
			"primitives": [
				{
					"attributes":
					{
						"POSITION": 19,
						"NORMAL": 20,
						"TANGENT": 21,
						"TEXCOORD_0": 22,
						"TEXCOORD_1": 23
					},
					"indices": 18,
					"material": 0
				}
			]
		},
		{
			"name": "uploads_files_2792345_Koenigsegg_Body",
			"primitives": [
				{
					"attributes":
					{
						"POSITION": 25,
						"NORMAL": 26,
						"TANGENT": 27,
						"TEXCOORD_0": 28,
						"TEXCOORD_1": 29
					},
					"indices": 24,
					"material": 1
				},
				{
					"attributes":
					{
						"POSITION": 31,
						"NORMAL": 32,
						"TANGENT": 33,
						"TEXCOORD_0": 34,
						"TEXCOORD_1": 35
					},
					"indices": 30,
					"material": 2
				},
				{
					"attributes":
					{
						"POSITION": 37,
						"NORMAL": 38,
						"TANGENT": 39,
						"TEXCOORD_0": 40,
						"TEXCOORD_1": 41
					},
					"indices": 36,
					"material": 0
				},
				{
					"attributes":
					{
						"POSITION": 43,
						"NORMAL": 44,
						"TANGENT": 45,
						"TEXCOORD_0": 46,
						"TEXCOORD_1": 47
					},
					"indices": 42,
					"material": 3
				},
				{
					"attributes":
					{
						"POSITION": 49,
						"NORMAL": 50,
						"TANGENT": 51,
						"TEXCOORD_0": 52,
						"TEXCOORD_1": 53
					},
					"indices": 48,
					"material": 4
				},
				{
					"attributes":
					{
						"POSITION": 55,
						"NORMAL": 56,
						"TANGENT": 57,
						"TEXCOORD_0": 58,
						"TEXCOORD_1": 59
					},
					"indices": 54,
					"material": 0
				},
				{
					"attributes":
					{
						"POSITION": 61,
						"NORMAL": 62,
						"TANGENT": 63,
						"TEXCOORD_0": 64,
						"TEXCOORD_1": 65
					},
					"indices": 60,
					"material": 5
				}
			]
		}
	],
	"nodes": [
		{
			"name": "uploads_files_2792345_Koenigsegg_RR_346_StaticMeshComponent0",
			"translation": [ 16.0101242,
				1.22542596,
				30.6965714
			],
			"scale": [ 0.25,
				0.25,
				0.25
			],
			"mesh": 0
		},
		{
			"name": "uploads_files_2792345_Koenigsegg_RL_348_StaticMeshComponent0",
			"translation": [ 16.0101242,
				1.22542596,
				30.6965714
			],
			"scale": [ 0.25,
				0.25,
				0.25
			],
			"mesh": 1
		},
		{
			"name": "uploads_files_2792345_Koenigsegg_FR_350_StaticMeshComponent0",
			"translation": [ 16.0101242,
				1.22542596,
				30.6965714
			],
			"scale": [ 0.25,
				0.25,
				0.25
			],
			"mesh": 2
		},
		{
			"name": "uploads_files_2792345_Koenigsegg_FL_352_StaticMeshComponent0",
			"translation": [ 16.0101242,
				1.22542596,
				30.6965714
			],
			"scale": [ 0.25,
				0.25,
				0.25
			],
			"mesh": 3
		},
		{
			"name": "uploads_files_2792345_Koenigsegg_Body_354_StaticMeshComponent0",
			"translation": [ 16.0101242,
				1.22542596,
				30.6965714
			],
			"scale": [ 0.25,
				0.25,
				0.25
			],
			"mesh": 4
		}
	],
	"samplers": [
		{
			"name": "Red_MetallicRoughness",
			"minFilter": 9987,
			"magFilter": 9729
		},
		{
			"name": "Red_Normal",
			"minFilter": 9987,
			"magFilter": 9729
		}
	],
	"scenes": [
		{
			"name": "ThirdPersonExampleMap",
			"nodes": [ 0, 1, 2, 3, 4 ]
		}
	],
	"textures": [
		{
			"name": "Red_MetallicRoughness",
			"sampler": 0,
			"source": 0
		},
		{
			"name": "Red_Normal",
			"sampler": 1,
			"source": 1
		}
	]
}