{
	"asset":
	{
		"version": "2.0",
		"generator": "Unreal Engine 4.25.0 glTF Exporter 1.0.6"
	},
	"scene": 0,
	"accessors": [
		{
			"bufferView": 0,
			"count": 1176,
			"type": "SCALAR",
			"componentType": 5123
		},
		{
			"bufferView": 1,
			"count": 588,
			"type": "VEC3",
			"componentType": 5126,
			"min": [ -3.48898244,
				2.84492445,
				-3.58136892
			],
			"max": [ 4.56813097,
				13.0528107,
				2.35317445
			]
		},
		{
			"bufferView": 2,
			"count": 588,
			"type": "VEC3",
			"componentType": 5126
		},
		{
			"bufferView": 3,
			"count": 588,
			"type": "VEC4",
			"componentType": 5126
		},
		{
			"bufferView": 4,
			"count": 588,
			"type": "VEC2",
			"componentType": 5126
		},
		{
			"bufferView": 5,
			"count": 588,
			"type": "VEC2",
			"componentType": 5126
		},
		{
			"bufferView": 6,
			"count": 588,
			"type": "VEC2",
			"componentType": 5126
		},
		{
			"bufferView": 7,
			"count": 8070,
			"type": "SCALAR",
			"componentType": 5123
		},
		{
			"bufferView": 8,
			"count": 2690,
			"type": "VEC3",
			"componentType": 5126,
			"min": [ -4.79824162,
				1.73306894,
				-4.83715725
			],
			"max": [ 5.67540264,
				14.3530531,
				3.6345098
			]
		},
		{
			"bufferView": 9,
			"count": 2690,
			"type": "VEC3",
			"componentType": 5126
		},
		{
			"bufferView": 10,
			"count": 2690,
			"type": "VEC4",
			"componentType": 5126
		},
		{
			"bufferView": 11,
			"count": 2690,
			"type": "VEC2",
			"componentType": 5126
		},
		{
			"bufferView": 12,
			"count": 2690,
			"type": "VEC2",
			"componentType": 5126
		},
		{
			"bufferView": 13,
			"count": 2690,
			"type": "VEC2",
			"componentType": 5126
		},
		{
			"bufferView": 14,
			"count": 11247,
			"type": "SCALAR",
			"componentType": 5123
		},
		{
			"bufferView": 15,
			"count": 2438,
			"type": "VEC3",
			"componentType": 5126,
			"min": [ -2.85740685,
				-0.13962771,
				-3.01138639
			],
			"max": [ 4.20834637,
				12.2378035,
				1.87715316
			]
		},
		{
			"bufferView": 16,
			"count": 2438,
			"type": "VEC3",
			"componentType": 5126
		},
		{
			"bufferView": 17,
			"count": 2438,
			"type": "VEC4",
			"componentType": 5126
		},
		{
			"bufferView": 18,
			"count": 2438,
			"type": "VEC2",
			"componentType": 5126
		},
		{
			"bufferView": 19,
			"count": 2438,
			"type": "VEC2",
			"componentType": 5126
		},
		{
			"bufferView": 20,
			"count": 2438,
			"type": "VEC2",
			"componentType": 5126
		},
		{
			"bufferView": 21,
			"count": 0,
			"type": "VEC3",
			"componentType": 5126
		},
		{
			"bufferView": 22,
			"count": 0,
			"type": "VEC3",
			"componentType": 5126
		},
		{
			"bufferView": 23,
			"count": 0,
			"type": "VEC4",
			"componentType": 5126
		},
		{
			"bufferView": 24,
			"count": 0,
			"type": "VEC2",
			"componentType": 5126
		},
		{
			"bufferView": 25,
			"count": 0,
			"type": "VEC2",
			"componentType": 5126
		},
		{
			"bufferView": 26,
			"count": 0,
			"type": "VEC2",
			"componentType": 5126
		}
	],
	"buffers": [
		{
			"uri": "birch.bin",
			"byteLength": 406812
		}
	],
	"bufferViews": [
		{
			"buffer": 0,
			"byteLength": 2352,
			"target": 34963
		},
		{
			"buffer": 0,
			"byteLength": 7056,
			"byteOffset": 2352,
			"target": 34962
		},
		{
			"buffer": 0,
			"byteLength": 7056,
			"byteOffset": 9408,
			"target": 34962
		},
		{
			"buffer": 0,
			"byteLength": 9408,
			"byteOffset": 16464,
			"target": 34962
		},
		{
			"buffer": 0,
			"byteLength": 4704,
			"byteOffset": 25872,
			"target": 34962
		},
		{
			"buffer": 0,
			"byteLength": 4704,
			"byteOffset": 30576,
			"target": 34962
		},
		{
			"buffer": 0,
			"byteLength": 4704,
			"byteOffset": 35280,
			"target": 34962
		},
		{
			"buffer": 0,
			"byteLength": 16140,
			"byteOffset": 39984,
			"target": 34963
		},
		{
			"buffer": 0,
			"byteLength": 32280,
			"byteOffset": 56124,
			"target": 34962
		},
		{
			"buffer": 0,
			"byteLength": 32280,
			"byteOffset": 88404,
			"target": 34962
		},
		{
			"buffer": 0,
			"byteLength": 43040,
			"byteOffset": 120684,
			"target": 34962
		},
		{
			"buffer": 0,
			"byteLength": 21520,
			"byteOffset": 163724,
			"target": 34962
		},
		{
			"buffer": 0,
			"byteLength": 21520,
			"byteOffset": 185244,
			"target": 34962
		},
		{
			"buffer": 0,
			"byteLength": 21520,
			"byteOffset": 206764,
			"target": 34962
		},
		{
			"buffer": 0,
			"byteLength": 22494,
			"byteOffset": 228284,
			"target": 34963
		},
		{
			"buffer": 0,
			"byteLength": 29256,
			"byteOffset": 250780,
			"target": 34962
		},
		{
			"buffer": 0,
			"byteLength": 29256,
			"byteOffset": 280036,
			"target": 34962
		},
		{
			"buffer": 0,
			"byteLength": 39008,
			"byteOffset": 309292,
			"target": 34962
		},
		{
			"buffer": 0,
			"byteLength": 19504,
			"byteOffset": 348300,
			"target": 34962
		},
		{
			"buffer": 0,
			"byteLength": 19504,
			"byteOffset": 367804,
			"target": 34962
		},
		{
			"buffer": 0,
			"byteLength": 19504,
			"byteOffset": 387308,
			"target": 34962
		},
		{
			"buffer": 0,
			"byteLength": 0,
			"byteOffset": 406812,
			"target": 34962
		},
		{
			"buffer": 0,
			"byteLength": 0,
			"byteOffset": 406812,
			"target": 34962
		},
		{
			"buffer": 0,
			"byteLength": 0,
			"byteOffset": 406812,
			"target": 34962
		},
		{
			"buffer": 0,
			"byteLength": 0,
			"byteOffset": 406812,
			"target": 34962
		},
		{
			"buffer": 0,
			"byteLength": 0,
			"byteOffset": 406812,
			"target": 34962
		},
		{
			"buffer": 0,
			"byteLength": 0,
			"byteOffset": 406812,
			"target": 34962
		}
	],
	"images": [
		{
			"uri": "MI_AmericanAspen_Bare_Leaf_5_SM_AmericanAspen_Fall_20_BaseColor.png"
		},
		{
			"uri": "MI_AmericanAspen_Bare_Leaf_5_SM_AmericanAspen_Fall_20_MetallicRoughness.png"
		},
		{
			"uri": "MI_AmericanAspen_Bare_Leaf_5_SM_AmericanAspen_Fall_20_Normal.png"
		},
		{
			"uri": "MI_AmericanAspen_Fall_Leaf_5_SM_AmericanAspen_Fall_20_BaseColor.png"
		},
		{
			"uri": "MI_AmericanAspen_Fall_Leaf_5_SM_AmericanAspen_Fall_20_Normal.png"
		},
		{
			"uri": "MI_AmericanAspen_Bark_5_SM_AmericanAspen_Fall_20_BaseColor.png"
		},
		{
			"uri": "MI_AmericanAspen_Bark_5_SM_AmericanAspen_Fall_20_Normal.png"
		},
		{
			"uri": "MI_AmericanAspen_Fall_B_5_BaseColor.png"
		},
		{
			"uri": "MI_AmericanAspen_Fall_B_5_Normal.png"
		}
	],
	"materials": [
		{
			"name": "MI_AmericanAspen_Bare_Leaf_5_SM_AmericanAspen_Fall_20",
			"pbrMetallicRoughness":
			{
				"baseColorTexture":
				{
					"index": 0,
					"texCoord": 2
				},
				"metallicRoughnessTexture":
				{
					"index": 1,
					"texCoord": 2
				}
			},
			"normalTexture":
			{
				"index": 2,
				"texCoord": 2
			},
			"alphaMode": "MASK",
			"alphaCutoff": 0.333332986,
			"doubleSided": true
		},
		{
			"name": "MI_AmericanAspen_Fall_Leaf_5_SM_AmericanAspen_Fall_20",
			"pbrMetallicRoughness":
			{
				"baseColorTexture":
				{
					"index": 3,
					"texCoord": 2
				},
				"metallicFactor": 0
			},
			"normalTexture":
			{
				"index": 4,
				"texCoord": 2
			},
			"alphaMode": "MASK",
			"alphaCutoff": 0.333332986,
			"doubleSided": true
		},
		{
			"name": "MI_AmericanAspen_Bark_5_SM_AmericanAspen_Fall_20",
			"pbrMetallicRoughness":
			{
				"baseColorTexture":
				{
					"index": 5,
					"texCoord": 2
				},
				"metallicFactor": 0
			},
			"normalTexture":
			{
				"index": 6,
				"texCoord": 2
			}
		},
		{
			"name": "MI_AmericanAspen_Fall_B_5",
			"pbrMetallicRoughness":
			{
				"baseColorTexture":
				{
					"index": 7
				},
				"metallicFactor": 0
			},
			"normalTexture":
			{
				"index": 8
			},
			"alphaMode": "MASK",
			"alphaCutoff": 0.333299994,
			"doubleSided": true
		}
	],
	"meshes": [
		{
			"name": "SM_AmericanAspen_Fall_20",
			"primitives": [
				{
					"attributes":
					{
						"POSITION": 1,
						"NORMAL": 2,
						"TANGENT": 3,
						"TEXCOORD_0": 4,
						"TEXCOORD_1": 5,
						"TEXCOORD_2": 6
					},
					"indices": 0,
					"material": 0
				},
				{
					"attributes":
					{
						"POSITION": 8,
						"NORMAL": 9,
						"TANGENT": 10,
						"TEXCOORD_0": 11,
						"TEXCOORD_1": 12,
						"TEXCOORD_2": 13
					},
					"indices": 7,
					"material": 1
				},
				{
					"attributes":
					{
						"POSITION": 15,
						"NORMAL": 16,
						"TANGENT": 17,
						"TEXCOORD_0": 18,
						"TEXCOORD_1": 19,
						"TEXCOORD_2": 20
					},
					"indices": 14,
					"material": 2
				},
				{
					"attributes":
					{
						"POSITION": 21,
						"NORMAL": 22,
						"TANGENT": 23,
						"TEXCOORD_0": 24,
						"TEXCOORD_1": 25,
						"TEXCOORD_2": 26
					},
					"material": 3
				}
			]
		}
	],
	"nodes": [
		{
			"name": "SM_AmericanAspen_Fall_20_StaticMeshComponent0",
			"translation": [ 47.7000008,
				1.39999998,
				55.7999992
			],
			"mesh": 0
		}
	],
	"samplers": [
		{
			"name": "MI_AmericanAspen_Bare_Leaf_5_SM_AmericanAspen_Fall_20_BaseColor",
			"minFilter": 9987,
			"magFilter": 9729
		},
		{
			"name": "MI_AmericanAspen_Bare_Leaf_5_SM_AmericanAspen_Fall_20_MetallicRoughness",
			"minFilter": 9987,
			"magFilter": 9729
		},
		{
			"name": "MI_AmericanAspen_Bare_Leaf_5_SM_AmericanAspen_Fall_20_Normal",
			"minFilter": 9987,
			"magFilter": 9729
		},
		{
			"name": "MI_AmericanAspen_Fall_Leaf_5_SM_AmericanAspen_Fall_20_BaseColor",
			"minFilter": 9987,
			"magFilter": 9729
		},
		{
			"name": "MI_AmericanAspen_Fall_Leaf_5_SM_AmericanAspen_Fall_20_Normal",
			"minFilter": 9987,
			"magFilter": 9729
		},
		{
			"name": "MI_AmericanAspen_Bark_5_SM_AmericanAspen_Fall_20_BaseColor",
			"minFilter": 9987,
			"magFilter": 9729
		},
		{
			"name": "MI_AmericanAspen_Bark_5_SM_AmericanAspen_Fall_20_Normal",
			"minFilter": 9987,
			"magFilter": 9729
		},
		{
			"name": "MI_AmericanAspen_Fall_B_5_BaseColor",
			"minFilter": 9987,
			"magFilter": 9729
		},
		{
			"name": "MI_AmericanAspen_Fall_B_5_Normal",
			"minFilter": 9987,
			"magFilter": 9729
		}
	],
	"scenes": [
		{
			"name": "ThirdPersonExampleMap",
			"nodes": [ 0 ]
		}
	],
	"textures": [
		{
			"name": "MI_AmericanAspen_Bare_Leaf_5_SM_AmericanAspen_Fall_20_BaseColor",
			"sampler": 0,
			"source": 0
		},
		{
			"name": "MI_AmericanAspen_Bare_Leaf_5_SM_AmericanAspen_Fall_20_MetallicRoughness",
			"sampler": 1,
			"source": 1
		},
		{
			"name": "MI_AmericanAspen_Bare_Leaf_5_SM_AmericanAspen_Fall_20_Normal",
			"sampler": 2,
			"source": 2
		},
		{
			"name": "MI_AmericanAspen_Fall_Leaf_5_SM_AmericanAspen_Fall_20_BaseColor",
			"sampler": 3,
			"source": 3
		},
		{
			"name": "MI_AmericanAspen_Fall_Leaf_5_SM_AmericanAspen_Fall_20_Normal",
			"sampler": 4,
			"source": 4
		},
		{
			"name": "MI_AmericanAspen_Bark_5_SM_AmericanAspen_Fall_20_BaseColor",
			"sampler": 5,
			"source": 5
		},
		{
			"name": "MI_AmericanAspen_Bark_5_SM_AmericanAspen_Fall_20_Normal",
			"sampler": 6,
			"source": 6
		},
		{
			"name": "MI_AmericanAspen_Fall_B_5_BaseColor",
			"sampler": 7,
			"source": 7
		},
		{
			"name": "MI_AmericanAspen_Fall_B_5_Normal",
			"sampler": 8,
			"source": 8
		}
	]
}