{
	"asset":
	{
		"version": "2.0",
		"generator": "Unreal Engine 4.25.0 glTF Exporter 1.0.6"
	},
	"scene": 0,
	"accessors": [
		{
			"bufferView": 0,
			"count": 14457,
			"type": "SCALAR",
			"componentType": 5123
		},
		{
			"bufferView": 1,
			"count": 3573,
			"type": "VEC3",
			"componentType": 5126,
			"min": [ -2.33120608,
				-3.70990133,
				-1.48908174
			],
			"max": [ 1.16198373,
				3.54766011,
				2.06176758
			]
		},
		{
			"bufferView": 2,
			"count": 3573,
			"type": "VEC3",
			"componentType": 5126
		},
		{
			"bufferView": 3,
			"count": 3573,
			"type": "VEC4",
			"componentType": 5126
		},
		{
			"bufferView": 4,
			"count": 3573,
			"type": "VEC2",
			"componentType": 5126
		},
		{
			"bufferView": 5,
			"count": 3573,
			"type": "VEC2",
			"componentType": 5126
		},
		{
			"bufferView": 6,
			"count": 27648,
			"type": "SCALAR",
			"componentType": 5123
		},
		{
			"bufferView": 7,
			"count": 11520,
			"type": "VEC3",
			"componentType": 5126,
			"min": [ -3.08619189,
				-3.05244017,
				-2.40367937
			],
			"max": [ 2.09909749,
				3.70990133,
				2.92375636
			]
		},
		{
			"bufferView": 8,
			"count": 11520,
			"type": "VEC3",
			"componentType": 5126
		},
		{
			"bufferView": 9,
			"count": 11520,
			"type": "VEC4",
			"componentType": 5126
		},
		{
			"bufferView": 10,
			"count": 11520,
			"type": "VEC2",
			"componentType": 5126
		},
		{
			"bufferView": 11,
			"count": 11520,
			"type": "VEC2",
			"componentType": 5126
		}
	],
	"buffers": [
		{
			"uri": "birch.bin",
			"byteLength": 929420
		}
	],
	"bufferViews": [
		{
			"buffer": 0,
			"byteLength": 28914,
			"target": 34963
		},
		{
			"buffer": 0,
			"byteLength": 42876,
			"byteOffset": 28916,
			"target": 34962
		},
		{
			"buffer": 0,
			"byteLength": 42876,
			"byteOffset": 71792,
			"target": 34962
		},
		{
			"buffer": 0,
			"byteLength": 57168,
			"byteOffset": 114668,
			"target": 34962
		},
		{
			"buffer": 0,
			"byteLength": 28584,
			"byteOffset": 171836,
			"target": 34962
		},
		{
			"buffer": 0,
			"byteLength": 28584,
			"byteOffset": 200420,
			"target": 34962
		},
		{
			"buffer": 0,
			"byteLength": 55296,
			"byteOffset": 229004,
			"target": 34963
		},
		{
			"buffer": 0,
			"byteLength": 138240,
			"byteOffset": 284300,
			"target": 34962
		},
		{
			"buffer": 0,
			"byteLength": 138240,
			"byteOffset": 422540,
			"target": 34962
		},
		{
			"buffer": 0,
			"byteLength": 184320,
			"byteOffset": 560780,
			"target": 34962
		},
		{
			"buffer": 0,
			"byteLength": 92160,
			"byteOffset": 745100,
			"target": 34962
		},
		{
			"buffer": 0,
			"byteLength": 92160,
			"byteOffset": 837260,
			"target": 34962
		}
	],
	"images": [
		{
			"uri": "Material1-material_birch_32_BaseColor.png"
		},
		{
			"uri": "fe0d9b5f-4544-4390-81cc-67ac47388f26.png"
		}
	],
	"materials": [
		{
			"name": "Material0-material",
			"pbrMetallicRoughness":
			{
				"baseColorTexture":
				{
					"index": 0
				},
				"metallicFactor": 0,
				"roughnessFactor": 0.5
			}
		},
		{
			"name": "Material1-material_birch_32",
			"pbrMetallicRoughness":
			{
				"baseColorTexture":
				{
					"index": 1,
					"texCoord": 1
				},
				"metallicFactor": 0,
				"roughnessFactor": 0.5
			},
			"alphaMode": "MASK",
			"alphaCutoff": 0.333299994,
			"doubleSided": true
		}
	],
	"meshes": [
		{
			"name": "birch_32",
			"primitives": [
				{
					"attributes":
					{
						"POSITION": 1,
						"NORMAL": 2,
						"TANGENT": 3,
						"TEXCOORD_0": 4,
						"TEXCOORD_1": 5
					},
					"indices": 0,
					"material": 0
				},
				{
					"attributes":
					{
						"POSITION": 7,
						"NORMAL": 8,
						"TANGENT": 9,
						"TEXCOORD_0": 10,
						"TEXCOORD_1": 11
					},
					"indices": 6,
					"material": 1
				}
			]
		}
	],
	"nodes": [
		{
			"name": "birch_32_StaticMeshComponent0",
			"translation": [ 48.2000008,
				7.89999962,
				84.5
			],
			"scale": [ 1.79499996,
				1.79499996,
				1.79499996
			],
			"mesh": 0
		}
	],
	"samplers": [
		{
			"name": "Material1-material_birch_32_BaseColor",
			"minFilter": 9987,
			"magFilter": 9729
		},
		{
			"name": "fe0d9b5f-4544-4390-81cc-67ac47388f26",
			"minFilter": 9987,
			"magFilter": 9729
		}
	],
	"scenes": [
		{
			"name": "ThirdPersonExampleMap",
			"nodes": [ 0 ]
		}
	],
	"textures": [
		{
			"name": "fe0d9b5f-4544-4390-81cc-67ac47388f26",
			"sampler": 1,
			"source": 1
		},
		{
			"name": "Material1-material_birch_32_BaseColor",
			"sampler": 0,
			"source": 0
		}
	]
}