{
	"asset":
	{
		"version": "2.0",
		"generator": "Unreal Engine 4.25.0 glTF Exporter 1.0.6"
	},
	"scene": 0,
	"accessors": [
		{
			"bufferView": 0,
			"count": 78,
			"type": "SCALAR",
			"componentType": 5121
		},
		{
			"bufferView": 1,
			"count": 52,
			"type": "VEC3",
			"componentType": 5126,
			"min": [ -0.0199999493,
				-0.00120135001,
				-0.0199999996
			],
			"max": [ 0.0199999493,
				0.00120135001,
				0.0199999996
			]
		},
		{
			"bufferView": 2,
			"count": 52,
			"type": "VEC3",
			"componentType": 5126
		},
		{
			"bufferView": 3,
			"count": 52,
			"type": "VEC4",
			"componentType": 5126
		},
		{
			"bufferView": 4,
			"count": 52,
			"type": "VEC2",
			"componentType": 5126
		},
		{
			"bufferView": 5,
			"count": 52,
			"type": "VEC2",
			"componentType": 5126
		}
	],
	"buffers": [
		{
			"uri": "leaves.bin",
			"byteLength": 2992
		}
	],
	"bufferViews": [
		{
			"buffer": 0,
			"byteLength": 78,
			"target": 34963
		},
		{
			"buffer": 0,
			"byteLength": 624,
			"byteOffset": 80,
			"target": 34962
		},
		{
			"buffer": 0,
			"byteLength": 624,
			"byteOffset": 704,
			"target": 34962
		},
		{
			"buffer": 0,
			"byteLength": 832,
			"byteOffset": 1328,
			"target": 34962
		},
		{
			"buffer": 0,
			"byteLength": 416,
			"byteOffset": 2160,
			"target": 34962
		},
		{
			"buffer": 0,
			"byteLength": 416,
			"byteOffset": 2576,
			"target": 34962
		}
	],
	"images": [
		{
			"uri": "e8841697-5edd-4ff5-b459-3cb0df0a3cb4.png"
		},
		{
			"uri": "leaves_NORMAL.png"
		}
	],
	"materials": [
		{
			"name": "Material0-material",
			"pbrMetallicRoughness":
			{
				"baseColorTexture":
				{
					"index": 0
				},
				"metallicFactor": 0,
				"roughnessFactor": 0.5
			},
			"normalTexture":
			{
				"index": 1
			},
			"alphaMode": "MASK",
			"alphaCutoff": 0.333299994,
			"doubleSided": true
		}
	],
	"meshes": [
		{
			"name": "leaves",
			"primitives": [
				{
					"attributes":
					{
						"POSITION": 1,
						"NORMAL": 2,
						"TANGENT": 3,
						"TEXCOORD_0": 4,
						"TEXCOORD_1": 5
					},
					"indices": 0,
					"material": 0
				}
			]
		}
	],
	"nodes": [
		{
			"name": "leaves_2_StaticMeshComponent0",
			"translation": [ 13.5999994,
				1.39999998,
				24.2999992
			],
			"scale": [ 44.25,
				44.25,
				44.25
			],
			"mesh": 0
		}
	],
	"samplers": [
		{
			"name": "e8841697-5edd-4ff5-b459-3cb0df0a3cb4",
			"minFilter": 9987,
			"magFilter": 9729
		},
		{
			"name": "leaves_NORMAL",
			"minFilter": 9987,
			"magFilter": 9729
		}
	],
	"scenes": [
		{
			"name": "ThirdPersonExampleMap",
			"nodes": [ 0 ]
		}
	],
	"textures": [
		{
			"name": "e8841697-5edd-4ff5-b459-3cb0df0a3cb4",
			"sampler": 0,
			"source": 0
		},
		{
			"name": "leaves_NORMAL",
			"sampler": 1,
			"source": 1
		}
	]
}