{
  "accessors": [
    {
      "bufferView": 2,
      "componentType": 5126,
      "count": 1505,
      "max": [
        100.71900177001953,
        28.39150047302246,
        97.98300170898438
      ],
      "min": [
        -95.63770294189453,
        -32.75270080566406,
        0.006225590128451586
      ],
      "type": "VEC3"
    },
    {
      "bufferView": 2,
      "byteOffset": 18060,
      "componentType": 5126,
      "count": 1505,
      "max": [
        1.0,
        1.0,
        1.0
      ],
      "min": [
        -1.0,
        -1.0,
        -1.0
      ],
      "type": "VEC3"
    },
    {
      "bufferView": 3,
      "componentType": 5126,
      "count": 1505,
      "max": [
        1.0,
        1.0,
        1.0,
        1.0
      ],
      "min": [
        -1.0,
        -1.0,
        -1.0,
        -1.0
      ],
      "type": "VEC4"
    },
    {
      "bufferView": 1,
      "componentType": 5126,
      "count": 1505,
      "max": [
        0.9931910037994385,
        0.7810270190238953
      ],
      "min": [
        0.0074282498098909855,
        0.0037678899243474007
      ],
      "type": "VEC2"
    },
    {
      "bufferView": 0,
      "componentType": 5125,
      "count": 4974,
      "type": "SCALAR"
    }
  ],
  "asset": {
    "extras": {
      "author": "lomepawol (https://sketchfab.com/lomepawol)",
      "license": "CC-BY-4.0 (http://creativecommons.org/licenses/by/4.0/)",
      "source": "https://sketchfab.com/3d-models/seucrity-fence-df54031cf88147e6aa139736b6ca7102",
      "title": "Seucrity Fence"
    },
    "generator": "Sketchfab-12.23.0",
    "version": "2.0"
  },
  "bufferViews": [
    {
      "buffer": 0,
      "byteLength": 19896,
      "name": "floatBufferViews",
      "target": 34963
    },
    {
      "buffer": 0,
      "byteLength": 12040,
      "byteOffset": 19896,
      "byteStride": 8,
      "name": "floatBufferViews",
      "target": 34962
    },
    {
      "buffer": 0,
      "byteLength": 36120,
      "byteOffset": 31936,
      "byteStride": 12,
      "name": "floatBufferViews",
      "target": 34962
    },
    {
      "buffer": 0,
      "byteLength": 24080,
      "byteOffset": 68056,
      "byteStride": 16,
      "name": "floatBufferViews",
      "target": 34962
    }
  ],
  "buffers": [
    {
      "byteLength": 92136,
      "uri": "scene.bin"
    }
  ],
  "images": [
    {
      "uri": "textures/blinn4_baseColor.png"
    },
    {
      "uri": "textures/blinn4_metallicRoughness.png"
    },
    {
      "uri": "textures/blinn4_normal.png"
    }
  ],
  "materials": [
    {
      "doubleSided": true,
      "name": "blinn4",
      "normalTexture": {
        "index": 2
      },
      "pbrMetallicRoughness": {
        "baseColorTexture": {
          "index": 0
        },
        "metallicRoughnessTexture": {
          "index": 1
        }
      }
    }
  ],
  "meshes": [
    {
      "name": "Object_0",
      "primitives": [
        {
          "attributes": {
            "NORMAL": 1,
            "POSITION": 0,
            "TANGENT": 2,
            "TEXCOORD_0": 3
          },
          "indices": 4,
          "material": 0,
          "mode": 4
        }
      ]
    }
  ],
  "nodes": [
    {
      "children": [
        1
      ],
      "matrix": [
        0.009325403720140457,
        0.0,
        0.0,
        0.0,
        0.0,
        2.070655584805005e-18,
        -0.009325403720140457,
        0.0,
        0.0,
        0.009325403720140457,
        2.070655584805005e-18,
        0.0,
        0.0,
        0.0,
        0.0,
        1.0
      ],
      "name": "Sketchfab_model"
    },
    {
      "children": [
        2
      ],
      "name": "533ca3005d0a49b8af2f63ef9b828c3e.obj.cleaner.materialmerger.gles"
    },
    {
      "mesh": 0,
      "name": "Object_2"
    }
  ],
  "samplers": [
    {
      "magFilter": 9729,
      "minFilter": 9987,
      "wrapS": 10497,
      "wrapT": 10497
    }
  ],
  "scene": 0,
  "scenes": [
    {
      "name": "Sketchfab_Scene",
      "nodes": [
        0
      ]
    }
  ],
  "textures": [
    {
      "sampler": 0,
      "source": 0
    },
    {
      "sampler": 0,
      "source": 1
    },
    {
      "sampler": 0,
      "source": 2
    }
  ]
}
