{
	"asset":
	{
		"version": "2.0",
		"generator": "Unreal Engine 4.25.0 glTF Exporter 1.0.6"
	},
	"scene": 0,
	"accessors": [
		{
			"bufferView": 0,
			"count": 24,
			"type": "SCALAR",
			"componentType": 5121
		},
		{
			"bufferView": 1,
			"count": 16,
			"type": "VEC3",
			"componentType": 5126,
			"min": [ -47.1578026,
				-0.244737908,
				-34.2477493
			],
			"max": [ 47.1578026,
				0.244737908,
				34.2477493
			]
		},
		{
			"bufferView": 2,
			"count": 16,
			"type": "VEC3",
			"componentType": 5126
		},
		{
			"bufferView": 3,
			"count": 16,
			"type": "VEC4",
			"componentType": 5126
		},
		{
			"bufferView": 4,
			"count": 16,
			"type": "VEC2",
			"componentType": 5126
		},
		{
			"bufferView": 5,
			"count": 16,
			"type": "VEC2",
			"componentType": 5126
		},
		{
			"bufferView": 6,
			"count": 6,
			"type": "SCALAR",
			"componentType": 5121
		},
		{
			"bufferView": 7,
			"count": 4,
			"type": "VEC3",
			"componentType": 5126,
			"min": [ -47.1578026,
				0.244737908,
				-34.2477493
			],
			"max": [ 47.1578026,
				0.244737908,
				34.2477493
			]
		},
		{
			"bufferView": 8,
			"count": 4,
			"type": "VEC3",
			"componentType": 5126
		},
		{
			"bufferView": 9,
			"count": 4,
			"type": "VEC4",
			"componentType": 5126
		},
		{
			"bufferView": 10,
			"count": 4,
			"type": "VEC2",
			"componentType": 5126
		},
		{
			"bufferView": 11,
			"count": 4,
			"type": "VEC2",
			"componentType": 5126
		},
		{
			"bufferView": 12,
			"count": 6,
			"type": "SCALAR",
			"componentType": 5121
		},
		{
			"bufferView": 13,
			"count": 4,
			"type": "VEC3",
			"componentType": 5126,
			"min": [ -47.1578026,
				-0.244737908,
				-34.2477493
			],
			"max": [ 47.1578026,
				-0.244737908,
				34.2477493
			]
		},
		{
			"bufferView": 14,
			"count": 4,
			"type": "VEC3",
			"componentType": 5126
		},
		{
			"bufferView": 15,
			"count": 4,
			"type": "VEC4",
			"componentType": 5126
		},
		{
			"bufferView": 16,
			"count": 4,
			"type": "VEC2",
			"componentType": 5126
		},
		{
			"bufferView": 17,
			"count": 4,
			"type": "VEC2",
			"componentType": 5126
		}
	],
	"buffers": [
		{
			"uri": "autumn.bin",
			"byteLength": 1384
		}
	],
	"bufferViews": [
		{
			"buffer": 0,
			"byteLength": 24,
			"target": 34963
		},
		{
			"buffer": 0,
			"byteLength": 192,
			"byteOffset": 24,
			"target": 34962
		},
		{
			"buffer": 0,
			"byteLength": 192,
			"byteOffset": 216,
			"target": 34962
		},
		{
			"buffer": 0,
			"byteLength": 256,
			"byteOffset": 408,
			"target": 34962
		},
		{
			"buffer": 0,
			"byteLength": 128,
			"byteOffset": 664,
			"target": 34962
		},
		{
			"buffer": 0,
			"byteLength": 128,
			"byteOffset": 792,
			"target": 34962
		},
		{
			"buffer": 0,
			"byteLength": 6,
			"byteOffset": 920,
			"target": 34963
		},
		{
			"buffer": 0,
			"byteLength": 48,
			"byteOffset": 928,
			"target": 34962
		},
		{
			"buffer": 0,
			"byteLength": 48,
			"byteOffset": 976,
			"target": 34962
		},
		{
			"buffer": 0,
			"byteLength": 64,
			"byteOffset": 1024,
			"target": 34962
		},
		{
			"buffer": 0,
			"byteLength": 32,
			"byteOffset": 1088,
			"target": 34962
		},
		{
			"buffer": 0,
			"byteLength": 32,
			"byteOffset": 1120,
			"target": 34962
		},
		{
			"buffer": 0,
			"byteLength": 6,
			"byteOffset": 1152,
			"target": 34963
		},
		{
			"buffer": 0,
			"byteLength": 48,
			"byteOffset": 1160,
			"target": 34962
		},
		{
			"buffer": 0,
			"byteLength": 48,
			"byteOffset": 1208,
			"target": 34962
		},
		{
			"buffer": 0,
			"byteLength": 64,
			"byteOffset": 1256,
			"target": 34962
		},
		{
			"buffer": 0,
			"byteLength": 32,
			"byteOffset": 1320,
			"target": 34962
		},
		{
			"buffer": 0,
			"byteLength": 32,
			"byteOffset": 1352,
			"target": 34962
		}
	],
	"images": [
		{
			"uri": "Leaves_pbW6aMLxgEK5i9_ACoQCkQ_inst_BaseColor.png"
		},
		{
			"uri": "Leaves_pbW6aMLxgEK5i9_ACoQCkQ_inst_MetallicRoughness.png"
		},
		{
			"uri": "Leaves_pbW6aMLxgEK5i9_ACoQCkQ_inst_Normal.png"
		},
		{
			"uri": "SummerGround_WVgLkCIRek-CJ8TWyaPgFQ_inst_BaseColor.png"
		},
		{
			"uri": "SummerGround_WVgLkCIRek-CJ8TWyaPgFQ_inst_MetallicRoughness.png"
		},
		{
			"uri": "SummerGround_WVgLkCIRek-CJ8TWyaPgFQ_inst_Normal.png"
		},
		{
			"uri": "WorldGridMaterial_BaseColor.png"
		},
		{
			"uri": "WorldGridMaterial_MetallicRoughness.png"
		},
		{
			"uri": "WorldGridMaterial_Normal.png"
		}
	],
	"materials": [
		{
			"name": "Leaves_pbW6aMLxgEK5i9_ACoQCkQ_inst",
			"pbrMetallicRoughness":
			{
				"baseColorTexture":
				{
					"index": 0
				},
				"metallicRoughnessTexture":
				{
					"index": 1
				}
			},
			"normalTexture":
			{
				"index": 2
			}
		},
		{
			"name": "SummerGround_WVgLkCIRek-CJ8TWyaPgFQ_inst",
			"pbrMetallicRoughness":
			{
				"baseColorTexture":
				{
					"index": 3
				},
				"metallicRoughnessTexture":
				{
					"index": 4
				}
			},
			"normalTexture":
			{
				"index": 5
			}
		},
		{
			"name": "WorldGridMaterial",
			"pbrMetallicRoughness":
			{
				"baseColorTexture":
				{
					"index": 6
				},
				"metallicRoughnessTexture":
				{
					"index": 7
				}
			},
			"normalTexture":
			{
				"index": 8
			}
		}
	],
	"meshes": [
		{
			"name": "AutumnGround",
			"primitives": [
				{
					"attributes":
					{
						"POSITION": 1,
						"NORMAL": 2,
						"TANGENT": 3,
						"TEXCOORD_0": 4,
						"TEXCOORD_1": 5
					},
					"indices": 0,
					"material": 0
				},
				{
					"attributes":
					{
						"POSITION": 7,
						"NORMAL": 8,
						"TANGENT": 9,
						"TEXCOORD_0": 10,
						"TEXCOORD_1": 11
					},
					"indices": 6,
					"material": 1
				},
				{
					"attributes":
					{
						"POSITION": 13,
						"NORMAL": 14,
						"TANGENT": 15,
						"TEXCOORD_0": 16,
						"TEXCOORD_1": 17
					},
					"indices": 12,
					"material": 2
				}
			]
		}
	],
	"nodes": [
		{
			"name": "AutumnGround_StaticMeshComponent0",
			"translation": [ 66,
				2.04999995,
				86.7099991
			],
			"mesh": 0
		}
	],
	"samplers": [
		{
			"name": "Leaves_pbW6aMLxgEK5i9_ACoQCkQ_inst_BaseColor",
			"minFilter": 9987,
			"magFilter": 9729
		},
		{
			"name": "Leaves_pbW6aMLxgEK5i9_ACoQCkQ_inst_MetallicRoughness",
			"minFilter": 9987,
			"magFilter": 9729
		},
		{
			"name": "Leaves_pbW6aMLxgEK5i9_ACoQCkQ_inst_Normal",
			"minFilter": 9987,
			"magFilter": 9729
		},
		{
			"name": "SummerGround_WVgLkCIRek-CJ8TWyaPgFQ_inst_BaseColor",
			"minFilter": 9987,
			"magFilter": 9729
		},
		{
			"name": "SummerGround_WVgLkCIRek-CJ8TWyaPgFQ_inst_MetallicRoughness",
			"minFilter": 9987,
			"magFilter": 9729
		},
		{
			"name": "SummerGround_WVgLkCIRek-CJ8TWyaPgFQ_inst_Normal",
			"minFilter": 9987,
			"magFilter": 9729
		},
		{
			"name": "WorldGridMaterial_BaseColor",
			"minFilter": 9987,
			"magFilter": 9729
		},
		{
			"name": "WorldGridMaterial_MetallicRoughness",
			"minFilter": 9987,
			"magFilter": 9729
		},
		{
			"name": "WorldGridMaterial_Normal",
			"minFilter": 9987,
			"magFilter": 9729
		}
	],
	"scenes": [
		{
			"name": "ThirdPersonExampleMap",
			"nodes": [ 0 ]
		}
	],
	"textures": [
		{
			"name": "Leaves_pbW6aMLxgEK5i9_ACoQCkQ_inst_BaseColor",
			"sampler": 0,
			"source": 0
		},
		{
			"name": "Leaves_pbW6aMLxgEK5i9_ACoQCkQ_inst_MetallicRoughness",
			"sampler": 1,
			"source": 1
		},
		{
			"name": "Leaves_pbW6aMLxgEK5i9_ACoQCkQ_inst_Normal",
			"sampler": 2,
			"source": 2
		},
		{
			"name": "SummerGround_WVgLkCIRek-CJ8TWyaPgFQ_inst_BaseColor",
			"sampler": 3,
			"source": 3
		},
		{
			"name": "SummerGround_WVgLkCIRek-CJ8TWyaPgFQ_inst_MetallicRoughness",
			"sampler": 4,
			"source": 4
		},
		{
			"name": "SummerGround_WVgLkCIRek-CJ8TWyaPgFQ_inst_Normal",
			"sampler": 5,
			"source": 5
		},
		{
			"name": "WorldGridMaterial_BaseColor",
			"sampler": 6,
			"source": 6
		},
		{
			"name": "WorldGridMaterial_MetallicRoughness",
			"sampler": 7,
			"source": 7
		},
		{
			"name": "WorldGridMaterial_Normal",
			"sampler": 8,
			"source": 8
		}
	]
}