{
	"asset":
	{
		"version": "2.0",
		"generator": "Unreal Engine 4.25.0 glTF Exporter 1.0.6"
	},
	"scene": 0,
	"accessors": [
		{
			"bufferView": 0,
			"count": 1032,
			"type": "SCALAR",
			"componentType": 5123
		},
		{
			"bufferView": 1,
			"count": 688,
			"type": "VEC3",
			"componentType": 5126,
			"min": [ -0.0555940866,
				-0.0223047733,
				-0.0508693159
			],
			"max": [ 0.0565622002,
				0.0223061722,
				0.051050771
			]
		},
		{
			"bufferView": 2,
			"count": 688,
			"type": "VEC3",
			"componentType": 5126
		},
		{
			"bufferView": 3,
			"count": 688,
			"type": "VEC4",
			"componentType": 5126
		},
		{
			"bufferView": 4,
			"count": 688,
			"type": "VEC2",
			"componentType": 5126
		},
		{
			"bufferView": 5,
			"count": 688,
			"type": "VEC2",
			"componentType": 5126
		},
		{
			"bufferView": 6,
			"count": 6,
			"type": "SCALAR",
			"componentType": 5121
		},
		{
			"bufferView": 7,
			"count": 6,
			"type": "VEC3",
			"componentType": 5126,
			"min": [ -4.67232639e-05,
				-5.00050191e-05,
				-5.30707403e-05
			],
			"max": [ 5.30654142e-05,
				5.00050191e-05,
				5.30701072e-05
			]
		},
		{
			"bufferView": 8,
			"count": 6,
			"type": "VEC3",
			"componentType": 5126
		},
		{
			"bufferView": 9,
			"count": 6,
			"type": "VEC4",
			"componentType": 5126
		},
		{
			"bufferView": 10,
			"count": 6,
			"type": "VEC2",
			"componentType": 5126
		},
		{
			"bufferView": 11,
			"count": 6,
			"type": "VEC2",
			"componentType": 5126
		}
	],
	"buffers": [
		{
			"uri": "leaves2.bin",
			"byteLength": 40936
		}
	],
	"bufferViews": [
		{
			"buffer": 0,
			"byteLength": 2064,
			"target": 34963
		},
		{
			"buffer": 0,
			"byteLength": 8256,
			"byteOffset": 2064,
			"target": 34962
		},
		{
			"buffer": 0,
			"byteLength": 8256,
			"byteOffset": 10320,
			"target": 34962
		},
		{
			"buffer": 0,
			"byteLength": 11008,
			"byteOffset": 18576,
			"target": 34962
		},
		{
			"buffer": 0,
			"byteLength": 5504,
			"byteOffset": 29584,
			"target": 34962
		},
		{
			"buffer": 0,
			"byteLength": 5504,
			"byteOffset": 35088,
			"target": 34962
		},
		{
			"buffer": 0,
			"byteLength": 6,
			"byteOffset": 40592,
			"target": 34963
		},
		{
			"buffer": 0,
			"byteLength": 72,
			"byteOffset": 40600,
			"target": 34962
		},
		{
			"buffer": 0,
			"byteLength": 72,
			"byteOffset": 40672,
			"target": 34962
		},
		{
			"buffer": 0,
			"byteLength": 96,
			"byteOffset": 40744,
			"target": 34962
		},
		{
			"buffer": 0,
			"byteLength": 48,
			"byteOffset": 40840,
			"target": 34962
		},
		{
			"buffer": 0,
			"byteLength": 48,
			"byteOffset": 40888,
			"target": 34962
		}
	],
	"images": [
		{
			"uri": "db10d383-9b25-40e8-9003-2777223e01cf.png"
		}
	],
	"materials": [
		{
			"name": "Material1-material",
			"pbrMetallicRoughness":
			{
				"baseColorTexture":
				{
					"index": 0
				},
				"metallicFactor": 0,
				"roughnessFactor": 0.5
			},
			"alphaMode": "MASK",
			"alphaCutoff": 0.333299994
		},
		{
			"name": "Material0-material",
			"pbrMetallicRoughness":
			{
				"baseColorTexture":
				{
					"index": 0
				},
				"metallicFactor": 0,
				"roughnessFactor": 0.5
			},
			"alphaMode": "MASK",
			"alphaCutoff": 0.333299994
		}
	],
	"meshes": [
		{
			"name": "leav2_prim1",
			"primitives": [
				{
					"attributes":
					{
						"POSITION": 1,
						"NORMAL": 2,
						"TANGENT": 3,
						"TEXCOORD_0": 4,
						"TEXCOORD_1": 5
					},
					"indices": 0,
					"material": 0
				}
			]
		},
		{
			"name": "leav2_prim0",
			"primitives": [
				{
					"attributes":
					{
						"POSITION": 7,
						"NORMAL": 8,
						"TANGENT": 9,
						"TEXCOORD_0": 10,
						"TEXCOORD_1": 11
					},
					"indices": 6,
					"material": 1
				}
			]
		}
	],
	"nodes": [
		{
			"name": "leav2_prim1_3_StaticMeshComponent0",
			"translation": [ 11.3149214,
				6.5999999,
				4.38410139
			],
			"scale": [ 177,
				177,
				177
			],
			"mesh": 0
		},
		{
			"name": "leav2_prim0_5_StaticMeshComponent0",
			"translation": [ 11.3149214,
				6.5999999,
				4.38410139
			],
			"scale": [ 177,
				177,
				177
			],
			"mesh": 1
		}
	],
	"samplers": [
		{
			"name": "db10d383-9b25-40e8-9003-2777223e01cf",
			"minFilter": 9987,
			"magFilter": 9729
		}
	],
	"scenes": [
		{
			"name": "ThirdPersonExampleMap",
			"nodes": [ 0, 1 ]
		}
	],
	"textures": [
		{
			"name": "db10d383-9b25-40e8-9003-2777223e01cf",
			"sampler": 0,
			"source": 0
		}
	]
}