{
	"asset":
	{
		"version": "2.0",
		"generator": "Unreal Engine 4.25.0 glTF Exporter 1.0.6"
	},
	"scene": 0,
	"accessors": [
		{
			"bufferView": 0,
			"count": 3342,
			"type": "SCALAR",
			"componentType": 5123
		},
		{
			"bufferView": 1,
			"count": 2004,
			"type": "VEC3",
			"componentType": 5126,
			"min": [ -6.44906235,
				-4.04201031,
				-13.7999992
			],
			"max": [ 6.4501462,
				59.8038673,
				8.65019512
			]
		},
		{
			"bufferView": 2,
			"count": 2004,
			"type": "VEC3",
			"componentType": 5126
		},
		{
			"bufferView": 3,
			"count": 2004,
			"type": "VEC4",
			"componentType": 5126
		},
		{
			"bufferView": 4,
			"count": 2004,
			"type": "VEC2",
			"componentType": 5126
		},
		{
			"bufferView": 5,
			"count": 2004,
			"type": "VEC2",
			"componentType": 5126
		},
		{
			"bufferView": 6,
			"count": 2004,
			"type": "VEC2",
			"componentType": 5126
		},
		{
			"bufferView": 7,
			"count": 32508,
			"type": "SCALAR",
			"componentType": 5123
		},
		{
			"bufferView": 8,
			"count": 14191,
			"type": "VEC3",
			"componentType": 5126,
			"min": [ -6.58394527,
				-3.61640382,
				-13.7999992
			],
			"max": [ 6.58395481,
				59.7519188,
				8.66134739
			]
		},
		{
			"bufferView": 9,
			"count": 14191,
			"type": "VEC3",
			"componentType": 5126
		},
		{
			"bufferView": 10,
			"count": 14191,
			"type": "VEC4",
			"componentType": 5126
		},
		{
			"bufferView": 11,
			"count": 14191,
			"type": "VEC2",
			"componentType": 5126
		},
		{
			"bufferView": 12,
			"count": 14191,
			"type": "VEC2",
			"componentType": 5126
		},
		{
			"bufferView": 13,
			"count": 14191,
			"type": "VEC2",
			"componentType": 5126
		},
		{
			"bufferView": 14,
			"count": 35262,
			"type": "SCALAR",
			"componentType": 5123
		},
		{
			"bufferView": 15,
			"count": 15072,
			"type": "VEC3",
			"componentType": 5126,
			"min": [ -6.58394527,
				-4.04201031,
				-13.7999611
			],
			"max": [ 6.58395481,
				59.8038673,
				8.66134739
			]
		},
		{
			"bufferView": 16,
			"count": 15072,
			"type": "VEC3",
			"componentType": 5126
		},
		{
			"bufferView": 17,
			"count": 15072,
			"type": "VEC4",
			"componentType": 5126
		},
		{
			"bufferView": 18,
			"count": 15072,
			"type": "VEC2",
			"componentType": 5126
		},
		{
			"bufferView": 19,
			"count": 15072,
			"type": "VEC2",
			"componentType": 5126
		},
		{
			"bufferView": 20,
			"count": 15072,
			"type": "VEC2",
			"componentType": 5126
		},
		{
			"bufferView": 21,
			"count": 1518,
			"type": "SCALAR",
			"componentType": 5123
		},
		{
			"bufferView": 22,
			"count": 942,
			"type": "VEC3",
			"componentType": 5126,
			"min": [ -6.51758766,
				-4.04201031,
				-13.7999611
			],
			"max": [ 6.54752922,
				59.8038673,
				8.3068161
			]
		},
		{
			"bufferView": 23,
			"count": 942,
			"type": "VEC3",
			"componentType": 5126
		},
		{
			"bufferView": 24,
			"count": 942,
			"type": "VEC4",
			"componentType": 5126
		},
		{
			"bufferView": 25,
			"count": 942,
			"type": "VEC2",
			"componentType": 5126
		},
		{
			"bufferView": 26,
			"count": 942,
			"type": "VEC2",
			"componentType": 5126
		},
		{
			"bufferView": 27,
			"count": 942,
			"type": "VEC2",
			"componentType": 5126
		}
	],
	"buffers": [
		{
			"uri": "obswing.bin",
			"byteLength": 2206636
		}
	],
	"bufferViews": [
		{
			"buffer": 0,
			"byteLength": 6684,
			"target": 34963
		},
		{
			"buffer": 0,
			"byteLength": 24048,
			"byteOffset": 6684,
			"target": 34962
		},
		{
			"buffer": 0,
			"byteLength": 24048,
			"byteOffset": 30732,
			"target": 34962
		},
		{
			"buffer": 0,
			"byteLength": 32064,
			"byteOffset": 54780,
			"target": 34962
		},
		{
			"buffer": 0,
			"byteLength": 16032,
			"byteOffset": 86844,
			"target": 34962
		},
		{
			"buffer": 0,
			"byteLength": 16032,
			"byteOffset": 102876,
			"target": 34962
		},
		{
			"buffer": 0,
			"byteLength": 16032,
			"byteOffset": 118908,
			"target": 34962
		},
		{
			"buffer": 0,
			"byteLength": 65016,
			"byteOffset": 134940,
			"target": 34963
		},
		{
			"buffer": 0,
			"byteLength": 170292,
			"byteOffset": 199956,
			"target": 34962
		},
		{
			"buffer": 0,
			"byteLength": 170292,
			"byteOffset": 370248,
			"target": 34962
		},
		{
			"buffer": 0,
			"byteLength": 227056,
			"byteOffset": 540540,
			"target": 34962
		},
		{
			"buffer": 0,
			"byteLength": 113528,
			"byteOffset": 767596,
			"target": 34962
		},
		{
			"buffer": 0,
			"byteLength": 113528,
			"byteOffset": 881124,
			"target": 34962
		},
		{
			"buffer": 0,
			"byteLength": 113528,
			"byteOffset": 994652,
			"target": 34962
		},
		{
			"buffer": 0,
			"byteLength": 70524,
			"byteOffset": 1108180,
			"target": 34963
		},
		{
			"buffer": 0,
			"byteLength": 180864,
			"byteOffset": 1178704,
			"target": 34962
		},
		{
			"buffer": 0,
			"byteLength": 180864,
			"byteOffset": 1359568,
			"target": 34962
		},
		{
			"buffer": 0,
			"byteLength": 241152,
			"byteOffset": 1540432,
			"target": 34962
		},
		{
			"buffer": 0,
			"byteLength": 120576,
			"byteOffset": 1781584,
			"target": 34962
		},
		{
			"buffer": 0,
			"byteLength": 120576,
			"byteOffset": 1902160,
			"target": 34962
		},
		{
			"buffer": 0,
			"byteLength": 120576,
			"byteOffset": 2022736,
			"target": 34962
		},
		{
			"buffer": 0,
			"byteLength": 3036,
			"byteOffset": 2143312,
			"target": 34963
		},
		{
			"buffer": 0,
			"byteLength": 11304,
			"byteOffset": 2146348,
			"target": 34962
		},
		{
			"buffer": 0,
			"byteLength": 11304,
			"byteOffset": 2157652,
			"target": 34962
		},
		{
			"buffer": 0,
			"byteLength": 15072,
			"byteOffset": 2168956,
			"target": 34962
		},
		{
			"buffer": 0,
			"byteLength": 7536,
			"byteOffset": 2184028,
			"target": 34962
		},
		{
			"buffer": 0,
			"byteLength": 7536,
			"byteOffset": 2191564,
			"target": 34962
		},
		{
			"buffer": 0,
			"byteLength": 7536,
			"byteOffset": 2199100,
			"target": 34962
		}
	],
	"images": [
		{
			"uri": "Stucco_Wall_ulelehncw_inst_BaseColor.png"
		},
		{
			"uri": "Stucco_Wall_ulelehncw_inst_MetallicRoughness.png"
		},
		{
			"uri": "Stucco_Wall_ulelehncw_inst_Normal.png"
		},
		{
			"uri": "Asphalt_Road_vhwmdias_inst_BaseColor.png"
		},
		{
			"uri": "Asphalt_Road_vhwmdias_inst_MetallicRoughness.png"
		},
		{
			"uri": "Asphalt_Road_vhwmdias_inst_Normal.png"
		},
		{
			"uri": "WorldGridMaterial_BaseColor.png"
		},
		{
			"uri": "WorldGridMaterial_MetallicRoughness.png"
		},
		{
			"uri": "WorldGridMaterial_Normal.png"
		},
		{
			"uri": "Window_yny5JndO70-IsCIiIkwxhQ_inst_BaseColor.png"
		},
		{
			"uri": "Window_yny5JndO70-IsCIiIkwxhQ_inst_MetallicRoughness.png"
		},
		{
			"uri": "Window_yny5JndO70-IsCIiIkwxhQ_inst_Normal.png"
		}
	],
	"materials": [
		{
			"name": "Stucco_Wall_ulelehncw_inst",
			"pbrMetallicRoughness":
			{
				"baseColorTexture":
				{
					"index": 0
				},
				"metallicRoughnessTexture":
				{
					"index": 1
				}
			},
			"normalTexture":
			{
				"index": 2
			}
		},
		{
			"name": "Asphalt_Road_vhwmdias_inst",
			"pbrMetallicRoughness":
			{
				"baseColorTexture":
				{
					"index": 3
				},
				"metallicRoughnessTexture":
				{
					"index": 4
				}
			},
			"normalTexture":
			{
				"index": 5
			}
		},
		{
			"name": "WorldGridMaterial",
			"pbrMetallicRoughness":
			{
				"baseColorTexture":
				{
					"index": 6
				},
				"metallicRoughnessTexture":
				{
					"index": 7
				}
			},
			"normalTexture":
			{
				"index": 8
			}
		},
		{
			"name": "Window_yny5JndO70-IsCIiIkwxhQ_inst",
			"pbrMetallicRoughness":
			{
				"baseColorTexture":
				{
					"index": 9
				},
				"metallicRoughnessTexture":
				{
					"index": 10
				}
			},
			"normalTexture":
			{
				"index": 11
			}
		}
	],
	"meshes": [
		{
			"name": "Obs_wing",
			"primitives": [
				{
					"attributes":
					{
						"POSITION": 1,
						"NORMAL": 2,
						"TANGENT": 3,
						"TEXCOORD_0": 4,
						"TEXCOORD_1": 5,
						"TEXCOORD_2": 6
					},
					"indices": 0,
					"material": 0
				},
				{
					"attributes":
					{
						"POSITION": 8,
						"NORMAL": 9,
						"TANGENT": 10,
						"TEXCOORD_0": 11,
						"TEXCOORD_1": 12,
						"TEXCOORD_2": 13
					},
					"indices": 7,
					"material": 1
				},
				{
					"attributes":
					{
						"POSITION": 15,
						"NORMAL": 16,
						"TANGENT": 17,
						"TEXCOORD_0": 18,
						"TEXCOORD_1": 19,
						"TEXCOORD_2": 20
					},
					"indices": 14,
					"material": 2
				},
				{
					"attributes":
					{
						"POSITION": 22,
						"NORMAL": 23,
						"TANGENT": 24,
						"TEXCOORD_0": 25,
						"TEXCOORD_1": 26,
						"TEXCOORD_2": 27
					},
					"indices": 21,
					"material": 3
				}
			]
		}
	],
	"nodes": [
		{
			"name": "Obs_wing_67_StaticMeshComponent0",
			"translation": [ 90.3990479,
				4.5999999,
				178.049805
			],
			"mesh": 0
		}
	],
	"samplers": [
		{
			"name": "Stucco_Wall_ulelehncw_inst_BaseColor",
			"minFilter": 9987,
			"magFilter": 9729
		},
		{
			"name": "Stucco_Wall_ulelehncw_inst_MetallicRoughness",
			"minFilter": 9987,
			"magFilter": 9729
		},
		{
			"name": "Stucco_Wall_ulelehncw_inst_Normal",
			"minFilter": 9987,
			"magFilter": 9729
		},
		{
			"name": "Asphalt_Road_vhwmdias_inst_BaseColor",
			"minFilter": 9987,
			"magFilter": 9729
		},
		{
			"name": "Asphalt_Road_vhwmdias_inst_MetallicRoughness",
			"minFilter": 9987,
			"magFilter": 9729
		},
		{
			"name": "Asphalt_Road_vhwmdias_inst_Normal",
			"minFilter": 9987,
			"magFilter": 9729
		},
		{
			"name": "WorldGridMaterial_BaseColor",
			"minFilter": 9987,
			"magFilter": 9729
		},
		{
			"name": "WorldGridMaterial_MetallicRoughness",
			"minFilter": 9987,
			"magFilter": 9729
		},
		{
			"name": "WorldGridMaterial_Normal",
			"minFilter": 9987,
			"magFilter": 9729
		},
		{
			"name": "Window_yny5JndO70-IsCIiIkwxhQ_inst_BaseColor",
			"minFilter": 9987,
			"magFilter": 9729
		},
		{
			"name": "Window_yny5JndO70-IsCIiIkwxhQ_inst_MetallicRoughness",
			"minFilter": 9987,
			"magFilter": 9729
		},
		{
			"name": "Window_yny5JndO70-IsCIiIkwxhQ_inst_Normal",
			"minFilter": 9987,
			"magFilter": 9729
		}
	],
	"scenes": [
		{
			"name": "ThirdPersonExampleMap",
			"nodes": [ 0 ]
		}
	],
	"textures": [
		{
			"name": "Stucco_Wall_ulelehncw_inst_BaseColor",
			"sampler": 0,
			"source": 0
		},
		{
			"name": "Stucco_Wall_ulelehncw_inst_MetallicRoughness",
			"sampler": 1,
			"source": 1
		},
		{
			"name": "Stucco_Wall_ulelehncw_inst_Normal",
			"sampler": 2,
			"source": 2
		},
		{
			"name": "Asphalt_Road_vhwmdias_inst_BaseColor",
			"sampler": 3,
			"source": 3
		},
		{
			"name": "Asphalt_Road_vhwmdias_inst_MetallicRoughness",
			"sampler": 4,
			"source": 4
		},
		{
			"name": "Asphalt_Road_vhwmdias_inst_Normal",
			"sampler": 5,
			"source": 5
		},
		{
			"name": "WorldGridMaterial_BaseColor",
			"sampler": 6,
			"source": 6
		},
		{
			"name": "WorldGridMaterial_MetallicRoughness",
			"sampler": 7,
			"source": 7
		},
		{
			"name": "WorldGridMaterial_Normal",
			"sampler": 8,
			"source": 8
		},
		{
			"name": "Window_yny5JndO70-IsCIiIkwxhQ_inst_BaseColor",
			"sampler": 9,
			"source": 9
		},
		{
			"name": "Window_yny5JndO70-IsCIiIkwxhQ_inst_MetallicRoughness",
			"sampler": 10,
			"source": 10
		},
		{
			"name": "Window_yny5JndO70-IsCIiIkwxhQ_inst_Normal",
			"sampler": 11,
			"source": 11
		}
	]
}