{
	"asset":
	{
		"version": "2.0",
		"generator": "Unreal Engine 4.25.0 glTF Exporter 1.0.6"
	},
	"scene": 0,
	"accessors": [
		{
			"bufferView": 0,
			"count": 3276,
			"type": "SCALAR",
			"componentType": 5123
		},
		{
			"bufferView": 1,
			"count": 1960,
			"type": "VEC3",
			"componentType": 5126,
			"min": [ -6.44999981,
				-4.04201031,
				-8.64999962
			],
			"max": [ 6.44898415,
				59.7519188,
				13.7999992
			]
		},
		{
			"bufferView": 2,
			"count": 1960,
			"type": "VEC3",
			"componentType": 5126
		},
		{
			"bufferView": 3,
			"count": 1960,
			"type": "VEC4",
			"componentType": 5126
		},
		{
			"bufferView": 4,
			"count": 1960,
			"type": "VEC2",
			"componentType": 5126
		},
		{
			"bufferView": 5,
			"count": 1960,
			"type": "VEC2",
			"componentType": 5126
		},
		{
			"bufferView": 6,
			"count": 1960,
			"type": "VEC2",
			"componentType": 5126
		},
		{
			"bufferView": 7,
			"count": 32508,
			"type": "SCALAR",
			"componentType": 5123
		},
		{
			"bufferView": 8,
			"count": 14191,
			"type": "VEC3",
			"componentType": 5126,
			"min": [ -6.58385706,
				-3.61640382,
				-8.66126919
			],
			"max": [ 6.58385706,
				59.7519188,
				13.7999992
			]
		},
		{
			"bufferView": 9,
			"count": 14191,
			"type": "VEC3",
			"componentType": 5126
		},
		{
			"bufferView": 10,
			"count": 14191,
			"type": "VEC4",
			"componentType": 5126
		},
		{
			"bufferView": 11,
			"count": 14191,
			"type": "VEC2",
			"componentType": 5126
		},
		{
			"bufferView": 12,
			"count": 14191,
			"type": "VEC2",
			"componentType": 5126
		},
		{
			"bufferView": 13,
			"count": 14191,
			"type": "VEC2",
			"componentType": 5126
		},
		{
			"bufferView": 14,
			"count": 35154,
			"type": "SCALAR",
			"componentType": 5123
		},
		{
			"bufferView": 15,
			"count": 15008,
			"type": "VEC3",
			"componentType": 5126,
			"min": [ -6.58385706,
				-4.04201031,
				-8.66126919
			],
			"max": [ 6.58385706,
				59.7193985,
				13.7999992
			]
		},
		{
			"bufferView": 16,
			"count": 15008,
			"type": "VEC3",
			"componentType": 5126
		},
		{
			"bufferView": 17,
			"count": 15008,
			"type": "VEC4",
			"componentType": 5126
		},
		{
			"bufferView": 18,
			"count": 15008,
			"type": "VEC2",
			"componentType": 5126
		},
		{
			"bufferView": 19,
			"count": 15008,
			"type": "VEC2",
			"componentType": 5126
		},
		{
			"bufferView": 20,
			"count": 15008,
			"type": "VEC2",
			"componentType": 5126
		},
		{
			"bufferView": 21,
			"count": 1512,
			"type": "SCALAR",
			"componentType": 5123
		},
		{
			"bufferView": 22,
			"count": 938,
			"type": "VEC3",
			"componentType": 5126,
			"min": [ -6.54757786,
				-4.04201031,
				-8.20162106
			],
			"max": [ 6.51757812,
				59.7519188,
				13.7999992
			]
		},
		{
			"bufferView": 23,
			"count": 938,
			"type": "VEC3",
			"componentType": 5126
		},
		{
			"bufferView": 24,
			"count": 938,
			"type": "VEC4",
			"componentType": 5126
		},
		{
			"bufferView": 25,
			"count": 938,
			"type": "VEC2",
			"componentType": 5126
		},
		{
			"bufferView": 26,
			"count": 938,
			"type": "VEC2",
			"componentType": 5126
		},
		{
			"bufferView": 27,
			"count": 938,
			"type": "VEC2",
			"componentType": 5126
		}
	],
	"buffers": [
		{
			"uri": "obswing.bin",
			"byteLength": 2199108
		}
	],
	"bufferViews": [
		{
			"buffer": 0,
			"byteLength": 6552,
			"target": 34963
		},
		{
			"buffer": 0,
			"byteLength": 23520,
			"byteOffset": 6552,
			"target": 34962
		},
		{
			"buffer": 0,
			"byteLength": 23520,
			"byteOffset": 30072,
			"target": 34962
		},
		{
			"buffer": 0,
			"byteLength": 31360,
			"byteOffset": 53592,
			"target": 34962
		},
		{
			"buffer": 0,
			"byteLength": 15680,
			"byteOffset": 84952,
			"target": 34962
		},
		{
			"buffer": 0,
			"byteLength": 15680,
			"byteOffset": 100632,
			"target": 34962
		},
		{
			"buffer": 0,
			"byteLength": 15680,
			"byteOffset": 116312,
			"target": 34962
		},
		{
			"buffer": 0,
			"byteLength": 65016,
			"byteOffset": 131992,
			"target": 34963
		},
		{
			"buffer": 0,
			"byteLength": 170292,
			"byteOffset": 197008,
			"target": 34962
		},
		{
			"buffer": 0,
			"byteLength": 170292,
			"byteOffset": 367300,
			"target": 34962
		},
		{
			"buffer": 0,
			"byteLength": 227056,
			"byteOffset": 537592,
			"target": 34962
		},
		{
			"buffer": 0,
			"byteLength": 113528,
			"byteOffset": 764648,
			"target": 34962
		},
		{
			"buffer": 0,
			"byteLength": 113528,
			"byteOffset": 878176,
			"target": 34962
		},
		{
			"buffer": 0,
			"byteLength": 113528,
			"byteOffset": 991704,
			"target": 34962
		},
		{
			"buffer": 0,
			"byteLength": 70308,
			"byteOffset": 1105232,
			"target": 34963
		},
		{
			"buffer": 0,
			"byteLength": 180096,
			"byteOffset": 1175540,
			"target": 34962
		},
		{
			"buffer": 0,
			"byteLength": 180096,
			"byteOffset": 1355636,
			"target": 34962
		},
		{
			"buffer": 0,
			"byteLength": 240128,
			"byteOffset": 1535732,
			"target": 34962
		},
		{
			"buffer": 0,
			"byteLength": 120064,
			"byteOffset": 1775860,
			"target": 34962
		},
		{
			"buffer": 0,
			"byteLength": 120064,
			"byteOffset": 1895924,
			"target": 34962
		},
		{
			"buffer": 0,
			"byteLength": 120064,
			"byteOffset": 2015988,
			"target": 34962
		},
		{
			"buffer": 0,
			"byteLength": 3024,
			"byteOffset": 2136052,
			"target": 34963
		},
		{
			"buffer": 0,
			"byteLength": 11256,
			"byteOffset": 2139076,
			"target": 34962
		},
		{
			"buffer": 0,
			"byteLength": 11256,
			"byteOffset": 2150332,
			"target": 34962
		},
		{
			"buffer": 0,
			"byteLength": 15008,
			"byteOffset": 2161588,
			"target": 34962
		},
		{
			"buffer": 0,
			"byteLength": 7504,
			"byteOffset": 2176596,
			"target": 34962
		},
		{
			"buffer": 0,
			"byteLength": 7504,
			"byteOffset": 2184100,
			"target": 34962
		},
		{
			"buffer": 0,
			"byteLength": 7504,
			"byteOffset": 2191604,
			"target": 34962
		}
	],
	"images": [
		{
			"uri": "Stucco_Wall_ulelehncw_inst_BaseColor.png"
		},
		{
			"uri": "Stucco_Wall_ulelehncw_inst_MetallicRoughness.png"
		},
		{
			"uri": "Stucco_Wall_ulelehncw_inst_Normal.png"
		},
		{
			"uri": "Asphalt_Road_vhwmdias_inst_BaseColor.png"
		},
		{
			"uri": "Asphalt_Road_vhwmdias_inst_MetallicRoughness.png"
		},
		{
			"uri": "Asphalt_Road_vhwmdias_inst_Normal.png"
		},
		{
			"uri": "WorldGridMaterial_BaseColor.png"
		},
		{
			"uri": "WorldGridMaterial_MetallicRoughness.png"
		},
		{
			"uri": "WorldGridMaterial_Normal.png"
		},
		{
			"uri": "Window_yny5JndO70-IsCIiIkwxhQ_inst_BaseColor.png"
		},
		{
			"uri": "Window_yny5JndO70-IsCIiIkwxhQ_inst_MetallicRoughness.png"
		},
		{
			"uri": "Window_yny5JndO70-IsCIiIkwxhQ_inst_Normal.png"
		}
	],
	"materials": [
		{
			"name": "Stucco_Wall_ulelehncw_inst",
			"pbrMetallicRoughness":
			{
				"baseColorTexture":
				{
					"index": 0
				},
				"metallicRoughnessTexture":
				{
					"index": 1
				}
			},
			"normalTexture":
			{
				"index": 2
			}
		},
		{
			"name": "Asphalt_Road_vhwmdias_inst",
			"pbrMetallicRoughness":
			{
				"baseColorTexture":
				{
					"index": 3
				},
				"metallicRoughnessTexture":
				{
					"index": 4
				}
			},
			"normalTexture":
			{
				"index": 5
			}
		},
		{
			"name": "WorldGridMaterial",
			"pbrMetallicRoughness":
			{
				"baseColorTexture":
				{
					"index": 6
				},
				"metallicRoughnessTexture":
				{
					"index": 7
				}
			},
			"normalTexture":
			{
				"index": 8
			}
		},
		{
			"name": "Window_yny5JndO70-IsCIiIkwxhQ_inst",
			"pbrMetallicRoughness":
			{
				"baseColorTexture":
				{
					"index": 9
				},
				"metallicRoughnessTexture":
				{
					"index": 10
				}
			},
			"normalTexture":
			{
				"index": 11
			}
		}
	],
	"meshes": [
		{
			"name": "Obs_wing",
			"primitives": [
				{
					"attributes":
					{
						"POSITION": 1,
						"NORMAL": 2,
						"TANGENT": 3,
						"TEXCOORD_0": 4,
						"TEXCOORD_1": 5,
						"TEXCOORD_2": 6
					},
					"indices": 0,
					"material": 0
				},
				{
					"attributes":
					{
						"POSITION": 8,
						"NORMAL": 9,
						"TANGENT": 10,
						"TEXCOORD_0": 11,
						"TEXCOORD_1": 12,
						"TEXCOORD_2": 13
					},
					"indices": 7,
					"material": 1
				},
				{
					"attributes":
					{
						"POSITION": 15,
						"NORMAL": 16,
						"TANGENT": 17,
						"TEXCOORD_0": 18,
						"TEXCOORD_1": 19,
						"TEXCOORD_2": 20
					},
					"indices": 14,
					"material": 2
				},
				{
					"attributes":
					{
						"POSITION": 22,
						"NORMAL": 23,
						"TANGENT": 24,
						"TEXCOORD_0": 25,
						"TEXCOORD_1": 26,
						"TEXCOORD_2": 27
					},
					"indices": 21,
					"material": 3
				}
			]
		}
	],
	"nodes": [
		{
			"name": "Obs_wing5_StaticMeshComponent0",
			"translation": [ 91.0990524,
				4.79999971,
				178.049805
			],
			"rotation": [ 0,
				1,
				-0,
				5.30481339e-06
			],
			"mesh": 0
		}
	],
	"samplers": [
		{
			"name": "Stucco_Wall_ulelehncw_inst_BaseColor",
			"minFilter": 9987,
			"magFilter": 9729
		},
		{
			"name": "Stucco_Wall_ulelehncw_inst_MetallicRoughness",
			"minFilter": 9987,
			"magFilter": 9729
		},
		{
			"name": "Stucco_Wall_ulelehncw_inst_Normal",
			"minFilter": 9987,
			"magFilter": 9729
		},
		{
			"name": "Asphalt_Road_vhwmdias_inst_BaseColor",
			"minFilter": 9987,
			"magFilter": 9729
		},
		{
			"name": "Asphalt_Road_vhwmdias_inst_MetallicRoughness",
			"minFilter": 9987,
			"magFilter": 9729
		},
		{
			"name": "Asphalt_Road_vhwmdias_inst_Normal",
			"minFilter": 9987,
			"magFilter": 9729
		},
		{
			"name": "WorldGridMaterial_BaseColor",
			"minFilter": 9987,
			"magFilter": 9729
		},
		{
			"name": "WorldGridMaterial_MetallicRoughness",
			"minFilter": 9987,
			"magFilter": 9729
		},
		{
			"name": "WorldGridMaterial_Normal",
			"minFilter": 9987,
			"magFilter": 9729
		},
		{
			"name": "Window_yny5JndO70-IsCIiIkwxhQ_inst_BaseColor",
			"minFilter": 9987,
			"magFilter": 9729
		},
		{
			"name": "Window_yny5JndO70-IsCIiIkwxhQ_inst_MetallicRoughness",
			"minFilter": 9987,
			"magFilter": 9729
		},
		{
			"name": "Window_yny5JndO70-IsCIiIkwxhQ_inst_Normal",
			"minFilter": 9987,
			"magFilter": 9729
		}
	],
	"scenes": [
		{
			"name": "ThirdPersonExampleMap",
			"nodes": [ 0 ]
		}
	],
	"textures": [
		{
			"name": "Stucco_Wall_ulelehncw_inst_BaseColor",
			"sampler": 0,
			"source": 0
		},
		{
			"name": "Stucco_Wall_ulelehncw_inst_MetallicRoughness",
			"sampler": 1,
			"source": 1
		},
		{
			"name": "Stucco_Wall_ulelehncw_inst_Normal",
			"sampler": 2,
			"source": 2
		},
		{
			"name": "Asphalt_Road_vhwmdias_inst_BaseColor",
			"sampler": 3,
			"source": 3
		},
		{
			"name": "Asphalt_Road_vhwmdias_inst_MetallicRoughness",
			"sampler": 4,
			"source": 4
		},
		{
			"name": "Asphalt_Road_vhwmdias_inst_Normal",
			"sampler": 5,
			"source": 5
		},
		{
			"name": "WorldGridMaterial_BaseColor",
			"sampler": 6,
			"source": 6
		},
		{
			"name": "WorldGridMaterial_MetallicRoughness",
			"sampler": 7,
			"source": 7
		},
		{
			"name": "WorldGridMaterial_Normal",
			"sampler": 8,
			"source": 8
		},
		{
			"name": "Window_yny5JndO70-IsCIiIkwxhQ_inst_BaseColor",
			"sampler": 9,
			"source": 9
		},
		{
			"name": "Window_yny5JndO70-IsCIiIkwxhQ_inst_MetallicRoughness",
			"sampler": 10,
			"source": 10
		},
		{
			"name": "Window_yny5JndO70-IsCIiIkwxhQ_inst_Normal",
			"sampler": 11,
			"source": 11
		}
	]
}