{
	"asset":
	{
		"version": "2.0",
		"generator": "Unreal Engine 4.25.0 glTF Exporter 1.0.6"
	},
	"scene": 0,
	"accessors": [
		{
			"bufferView": 0,
			"count": 36,
			"type": "SCALAR",
			"componentType": 5121
		},
		{
			"bufferView": 1,
			"count": 24,
			"type": "VEC3",
			"componentType": 5126,
			"min": [ -0.018014418,
				-1.67678082,
				-1.08549988
			],
			"max": [ 0.018014418,
				1.67678082,
				1.08549988
			]
		},
		{
			"bufferView": 2,
			"count": 24,
			"type": "VEC3",
			"componentType": 5126
		},
		{
			"bufferView": 3,
			"count": 24,
			"type": "VEC4",
			"componentType": 5126
		},
		{
			"bufferView": 4,
			"count": 24,
			"type": "VEC2",
			"componentType": 5126
		},
		{
			"bufferView": 5,
			"count": 24,
			"type": "VEC2",
			"componentType": 5126
		}
	],
	"buffers": [
		{
			"uri": "mirror.bin",
			"byteLength": 1380
		}
	],
	"bufferViews": [
		{
			"buffer": 0,
			"byteLength": 36,
			"target": 34963
		},
		{
			"buffer": 0,
			"byteLength": 288,
			"byteOffset": 36,
			"target": 34962
		},
		{
			"buffer": 0,
			"byteLength": 288,
			"byteOffset": 324,
			"target": 34962
		},
		{
			"buffer": 0,
			"byteLength": 384,
			"byteOffset": 612,
			"target": 34962
		},
		{
			"buffer": 0,
			"byteLength": 192,
			"byteOffset": 996,
			"target": 34962
		},
		{
			"buffer": 0,
			"byteLength": 192,
			"byteOffset": 1188,
			"target": 34962
		}
	],
	"materials": [
		{
			"name": "Carbon_002",
			"pbrMetallicRoughness":
			{
				"baseColorFactor": [ 0.0331047662,
					0.0331047662,
					0.0331047662,
					1
				],
				"metallicFactor": 0,
				"roughnessFactor": 0.5
			}
		}
	],
	"meshes": [
		{
			"name": "mirror",
			"primitives": [
				{
					"attributes":
					{
						"POSITION": 1,
						"NORMAL": 2,
						"TANGENT": 3,
						"TEXCOORD_0": 4,
						"TEXCOORD_1": 5
					},
					"indices": 0,
					"material": 0
				}
			]
		}
	],
	"nodes": [
		{
			"name": "mirror_StaticMeshComponent0",
			"translation": [ 14.2999992,
				3.19999981,
				23.8999996
			],
			"mesh": 0
		}
	],
	"scenes": [
		{
			"name": "ThirdPersonExampleMap",
			"nodes": [ 0 ]
		}
	]
}