{
	"asset":
	{
		"version": "2.0",
		"generator": "Unreal Engine 4.25.0 glTF Exporter 1.0.6"
	},
	"scene": 0,
	"accessors": [
		{
			"bufferView": 0,
			"count": 14532,
			"type": "SCALAR",
			"componentType": 5123
		},
		{
			"bufferView": 1,
			"count": 9688,
			"type": "VEC3",
			"componentType": 5126,
			"min": [ -1.20515168,
				-0.976170421,
				-1.17791986
			],
			"max": [ 1.2050904,
				0.976169944,
				1.16573441
			]
		},
		{
			"bufferView": 2,
			"count": 9688,
			"type": "VEC3",
			"componentType": 5126
		},
		{
			"bufferView": 3,
			"count": 9688,
			"type": "VEC4",
			"componentType": 5126
		},
		{
			"bufferView": 4,
			"count": 9688,
			"type": "VEC2",
			"componentType": 5126
		},
		{
			"bufferView": 5,
			"count": 9688,
			"type": "VEC2",
			"componentType": 5126
		},
		{
			"bufferView": 6,
			"count": 1200,
			"type": "SCALAR",
			"componentType": 5123
		},
		{
			"bufferView": 7,
			"count": 396,
			"type": "VEC3",
			"componentType": 5126,
			"min": [ -0.133295059,
				-1.3302083,
				-0.0228037909
			],
			"max": [ 0.353964686,
				-0.432531983,
				0.442618221
			]
		},
		{
			"bufferView": 8,
			"count": 396,
			"type": "VEC3",
			"componentType": 5126
		},
		{
			"bufferView": 9,
			"count": 396,
			"type": "VEC4",
			"componentType": 5126
		},
		{
			"bufferView": 10,
			"count": 396,
			"type": "VEC2",
			"componentType": 5126
		},
		{
			"bufferView": 11,
			"count": 396,
			"type": "VEC2",
			"componentType": 5126
		},
		{
			"bufferView": 12,
			"count": 10332,
			"type": "SCALAR",
			"componentType": 5123
		},
		{
			"bufferView": 13,
			"count": 6888,
			"type": "VEC3",
			"componentType": 5126,
			"min": [ -0.795206428,
				0.568267047,
				-1.08589137
			],
			"max": [ 1.33046138,
				2.24257445,
				1.3864224
			]
		},
		{
			"bufferView": 14,
			"count": 6888,
			"type": "VEC3",
			"componentType": 5126
		},
		{
			"bufferView": 15,
			"count": 6888,
			"type": "VEC4",
			"componentType": 5126
		},
		{
			"bufferView": 16,
			"count": 6888,
			"type": "VEC2",
			"componentType": 5126
		},
		{
			"bufferView": 17,
			"count": 6888,
			"type": "VEC2",
			"componentType": 5126
		},
		{
			"bufferView": 18,
			"count": 4704,
			"type": "SCALAR",
			"componentType": 5123
		},
		{
			"bufferView": 19,
			"count": 1562,
			"type": "VEC3",
			"componentType": 5126,
			"min": [ -0.664544284,
				-1.88392556,
				-0.693467855
			],
			"max": [ 0.726849794,
				0.48934409,
				0.707047462
			]
		},
		{
			"bufferView": 20,
			"count": 1562,
			"type": "VEC3",
			"componentType": 5126
		},
		{
			"bufferView": 21,
			"count": 1562,
			"type": "VEC4",
			"componentType": 5126
		},
		{
			"bufferView": 22,
			"count": 1562,
			"type": "VEC2",
			"componentType": 5126
		},
		{
			"bufferView": 23,
			"count": 1562,
			"type": "VEC2",
			"componentType": 5126
		},
		{
			"bufferView": 24,
			"count": 4269,
			"type": "SCALAR",
			"componentType": 5123
		},
		{
			"bufferView": 25,
			"count": 1683,
			"type": "VEC3",
			"componentType": 5126,
			"min": [ -0.482519686,
				1.40884674,
				-0.344881088
			],
			"max": [ 0.749308705,
				3.32255554,
				0.747300327
			]
		},
		{
			"bufferView": 26,
			"count": 1683,
			"type": "VEC3",
			"componentType": 5126
		},
		{
			"bufferView": 27,
			"count": 1683,
			"type": "VEC4",
			"componentType": 5126
		},
		{
			"bufferView": 28,
			"count": 1683,
			"type": "VEC2",
			"componentType": 5126
		},
		{
			"bufferView": 29,
			"count": 1683,
			"type": "VEC2",
			"componentType": 5126
		},
		{
			"bufferView": 30,
			"count": 8496,
			"type": "SCALAR",
			"componentType": 5123
		},
		{
			"bufferView": 31,
			"count": 5630,
			"type": "VEC3",
			"componentType": 5126,
			"min": [ -0.993258774,
				1.83081305,
				-0.886198163
			],
			"max": [ 1.24790645,
				3.53260469,
				1.26266348
			]
		},
		{
			"bufferView": 32,
			"count": 5630,
			"type": "VEC3",
			"componentType": 5126
		},
		{
			"bufferView": 33,
			"count": 5630,
			"type": "VEC4",
			"componentType": 5126
		},
		{
			"bufferView": 34,
			"count": 5630,
			"type": "VEC2",
			"componentType": 5126
		},
		{
			"bufferView": 35,
			"count": 5630,
			"type": "VEC2",
			"componentType": 5126
		},
		{
			"bufferView": 36,
			"count": 5325,
			"type": "SCALAR",
			"componentType": 5123
		},
		{
			"bufferView": 37,
			"count": 1794,
			"type": "VEC3",
			"componentType": 5126,
			"min": [ -0.384343892,
				0.069189243,
				-0.5522995
			],
			"max": [ 0.92146194,
				1.96181321,
				0.941172719
			]
		},
		{
			"bufferView": 38,
			"count": 1794,
			"type": "VEC3",
			"componentType": 5126
		},
		{
			"bufferView": 39,
			"count": 1794,
			"type": "VEC4",
			"componentType": 5126
		},
		{
			"bufferView": 40,
			"count": 1794,
			"type": "VEC2",
			"componentType": 5126
		},
		{
			"bufferView": 41,
			"count": 1794,
			"type": "VEC2",
			"componentType": 5126
		}
	],
	"buffers": [
		{
			"uri": "tr6.bin",
			"byteLength": 1645616
		}
	],
	"bufferViews": [
		{
			"buffer": 0,
			"byteLength": 29064,
			"target": 34963
		},
		{
			"buffer": 0,
			"byteLength": 116256,
			"byteOffset": 29064,
			"target": 34962
		},
		{
			"buffer": 0,
			"byteLength": 116256,
			"byteOffset": 145320,
			"target": 34962
		},
		{
			"buffer": 0,
			"byteLength": 155008,
			"byteOffset": 261576,
			"target": 34962
		},
		{
			"buffer": 0,
			"byteLength": 77504,
			"byteOffset": 416584,
			"target": 34962
		},
		{
			"buffer": 0,
			"byteLength": 77504,
			"byteOffset": 494088,
			"target": 34962
		},
		{
			"buffer": 0,
			"byteLength": 2400,
			"byteOffset": 571592,
			"target": 34963
		},
		{
			"buffer": 0,
			"byteLength": 4752,
			"byteOffset": 573992,
			"target": 34962
		},
		{
			"buffer": 0,
			"byteLength": 4752,
			"byteOffset": 578744,
			"target": 34962
		},
		{
			"buffer": 0,
			"byteLength": 6336,
			"byteOffset": 583496,
			"target": 34962
		},
		{
			"buffer": 0,
			"byteLength": 3168,
			"byteOffset": 589832,
			"target": 34962
		},
		{
			"buffer": 0,
			"byteLength": 3168,
			"byteOffset": 593000,
			"target": 34962
		},
		{
			"buffer": 0,
			"byteLength": 20664,
			"byteOffset": 596168,
			"target": 34963
		},
		{
			"buffer": 0,
			"byteLength": 82656,
			"byteOffset": 616832,
			"target": 34962
		},
		{
			"buffer": 0,
			"byteLength": 82656,
			"byteOffset": 699488,
			"target": 34962
		},
		{
			"buffer": 0,
			"byteLength": 110208,
			"byteOffset": 782144,
			"target": 34962
		},
		{
			"buffer": 0,
			"byteLength": 55104,
			"byteOffset": 892352,
			"target": 34962
		},
		{
			"buffer": 0,
			"byteLength": 55104,
			"byteOffset": 947456,
			"target": 34962
		},
		{
			"buffer": 0,
			"byteLength": 9408,
			"byteOffset": 1002560,
			"target": 34963
		},
		{
			"buffer": 0,
			"byteLength": 18744,
			"byteOffset": 1011968,
			"target": 34962
		},
		{
			"buffer": 0,
			"byteLength": 18744,
			"byteOffset": 1030712,
			"target": 34962
		},
		{
			"buffer": 0,
			"byteLength": 24992,
			"byteOffset": 1049456,
			"target": 34962
		},
		{
			"buffer": 0,
			"byteLength": 12496,
			"byteOffset": 1074448,
			"target": 34962
		},
		{
			"buffer": 0,
			"byteLength": 12496,
			"byteOffset": 1086944,
			"target": 34962
		},
		{
			"buffer": 0,
			"byteLength": 8538,
			"byteOffset": 1099440,
			"target": 34963
		},
		{
			"buffer": 0,
			"byteLength": 20196,
			"byteOffset": 1107980,
			"target": 34962
		},
		{
			"buffer": 0,
			"byteLength": 20196,
			"byteOffset": 1128176,
			"target": 34962
		},
		{
			"buffer": 0,
			"byteLength": 26928,
			"byteOffset": 1148372,
			"target": 34962
		},
		{
			"buffer": 0,
			"byteLength": 13464,
			"byteOffset": 1175300,
			"target": 34962
		},
		{
			"buffer": 0,
			"byteLength": 13464,
			"byteOffset": 1188764,
			"target": 34962
		},
		{
			"buffer": 0,
			"byteLength": 16992,
			"byteOffset": 1202228,
			"target": 34963
		},
		{
			"buffer": 0,
			"byteLength": 67560,
			"byteOffset": 1219220,
			"target": 34962
		},
		{
			"buffer": 0,
			"byteLength": 67560,
			"byteOffset": 1286780,
			"target": 34962
		},
		{
			"buffer": 0,
			"byteLength": 90080,
			"byteOffset": 1354340,
			"target": 34962
		},
		{
			"buffer": 0,
			"byteLength": 45040,
			"byteOffset": 1444420,
			"target": 34962
		},
		{
			"buffer": 0,
			"byteLength": 45040,
			"byteOffset": 1489460,
			"target": 34962
		},
		{
			"buffer": 0,
			"byteLength": 10650,
			"byteOffset": 1534500,
			"target": 34963
		},
		{
			"buffer": 0,
			"byteLength": 21528,
			"byteOffset": 1545152,
			"target": 34962
		},
		{
			"buffer": 0,
			"byteLength": 21528,
			"byteOffset": 1566680,
			"target": 34962
		},
		{
			"buffer": 0,
			"byteLength": 28704,
			"byteOffset": 1588208,
			"target": 34962
		},
		{
			"buffer": 0,
			"byteLength": 14352,
			"byteOffset": 1616912,
			"target": 34962
		},
		{
			"buffer": 0,
			"byteLength": 14352,
			"byteOffset": 1631264,
			"target": 34962
		}
	],
	"images": [
		{
			"uri": "Material1-material_tr6_prim6_70_BaseColor.png"
		},
		{
			"uri": "Material1-material_tr6_prim4_74_BaseColor.png"
		},
		{
			"uri": "Material1-material_tr6_prim1_80_BaseColor.png"
		},
		{
			"uri": "5d18788e-17f4-4522-ac88-689863528fee.png"
		}
	],
	"materials": [
		{
			"name": "Material1-material_tr6_prim6_70",
			"pbrMetallicRoughness":
			{
				"baseColorTexture":
				{
					"index": 0,
					"texCoord": 1
				},
				"metallicFactor": 0,
				"roughnessFactor": 0.5
			},
			"alphaMode": "MASK",
			"alphaCutoff": 0.333299994,
			"doubleSided": true
		},
		{
			"name": "Material0-material",
			"pbrMetallicRoughness":
			{
				"baseColorTexture":
				{
					"index": 1
				},
				"metallicFactor": 0,
				"roughnessFactor": 0.5
			}
		},
		{
			"name": "Material1-material_tr6_prim4_74",
			"pbrMetallicRoughness":
			{
				"baseColorTexture":
				{
					"index": 2,
					"texCoord": 1
				},
				"metallicFactor": 0,
				"roughnessFactor": 0.5
			},
			"alphaMode": "MASK",
			"alphaCutoff": 0.333299994,
			"doubleSided": true
		},
		{
			"name": "Material1-material_tr6_prim1_80",
			"pbrMetallicRoughness":
			{
				"baseColorTexture":
				{
					"index": 3,
					"texCoord": 1
				},
				"metallicFactor": 0,
				"roughnessFactor": 0.5
			},
			"alphaMode": "MASK",
			"alphaCutoff": 0.333299994,
			"doubleSided": true
		}
	],
	"meshes": [
		{
			"name": "tr6_prim6_70",
			"primitives": [
				{
					"attributes":
					{
						"POSITION": 1,
						"NORMAL": 2,
						"TANGENT": 3,
						"TEXCOORD_0": 4,
						"TEXCOORD_1": 5
					},
					"indices": 0,
					"material": 0
				}
			]
		},
		{
			"name": "tr6_prim5",
			"primitives": [
				{
					"attributes":
					{
						"POSITION": 7,
						"NORMAL": 8,
						"TANGENT": 9,
						"TEXCOORD_0": 10,
						"TEXCOORD_1": 11
					},
					"indices": 6,
					"material": 1
				}
			]
		},
		{
			"name": "tr6_prim4_74",
			"primitives": [
				{
					"attributes":
					{
						"POSITION": 13,
						"NORMAL": 14,
						"TANGENT": 15,
						"TEXCOORD_0": 16,
						"TEXCOORD_1": 17
					},
					"indices": 12,
					"material": 2
				}
			]
		},
		{
			"name": "tr6_prim3",
			"primitives": [
				{
					"attributes":
					{
						"POSITION": 19,
						"NORMAL": 20,
						"TANGENT": 21,
						"TEXCOORD_0": 22,
						"TEXCOORD_1": 23
					},
					"indices": 18,
					"material": 1
				}
			]
		},
		{
			"name": "tr6_prim2",
			"primitives": [
				{
					"attributes":
					{
						"POSITION": 25,
						"NORMAL": 26,
						"TANGENT": 27,
						"TEXCOORD_0": 28,
						"TEXCOORD_1": 29
					},
					"indices": 24,
					"material": 1
				}
			]
		},
		{
			"name": "tr6_prim1_80",
			"primitives": [
				{
					"attributes":
					{
						"POSITION": 31,
						"NORMAL": 32,
						"TANGENT": 33,
						"TEXCOORD_0": 34,
						"TEXCOORD_1": 35
					},
					"indices": 30,
					"material": 3
				}
			]
		},
		{
			"name": "tr6_prim0",
			"primitives": [
				{
					"attributes":
					{
						"POSITION": 37,
						"NORMAL": 38,
						"TANGENT": 39,
						"TEXCOORD_0": 40,
						"TEXCOORD_1": 41
					},
					"indices": 36,
					"material": 1
				}
			]
		}
	],
	"nodes": [
		{
			"name": "tr6_prim6_70_StaticMeshComponent0",
			"translation": [ 12.5,
				3.19999981,
				42.2000008
			],
			"mesh": 0
		},
		{
			"name": "tr6_prim5_72_StaticMeshComponent0",
			"translation": [ 12.5,
				3.19999981,
				42.2000008
			],
			"mesh": 1
		},
		{
			"name": "tr6_prim4_74_StaticMeshComponent0",
			"translation": [ 12.5,
				3.19999981,
				42.2000008
			],
			"mesh": 2
		},
		{
			"name": "tr6_prim3_76_StaticMeshComponent0",
			"translation": [ 12.5,
				3.19999981,
				42.2000008
			],
			"mesh": 3
		},
		{
			"name": "tr6_prim2_78_StaticMeshComponent0",
			"translation": [ 12.5,
				3.19999981,
				42.2000008
			],
			"mesh": 4
		},
		{
			"name": "tr6_prim1_80_StaticMeshComponent0",
			"translation": [ 12.5,
				3.19999981,
				42.2000008
			],
			"mesh": 5
		},
		{
			"name": "tr6_prim0_82_StaticMeshComponent0",
			"translation": [ 12.5,
				3.19999981,
				42.2000008
			],
			"mesh": 6
		}
	],
	"samplers": [
		{
			"name": "Material1-material_tr6_prim6_70_BaseColor",
			"minFilter": 9987,
			"magFilter": 9729
		},
		{
			"name": "Material1-material_tr6_prim4_74_BaseColor",
			"minFilter": 9987,
			"magFilter": 9729
		},
		{
			"name": "Material1-material_tr6_prim1_80_BaseColor",
			"minFilter": 9987,
			"magFilter": 9729
		},
		{
			"name": "5d18788e-17f4-4522-ac88-689863528fee",
			"minFilter": 9987,
			"magFilter": 9729
		}
	],
	"scenes": [
		{
			"name": "ThirdPersonExampleMap",
			"nodes": [ 0, 1, 2, 3, 4, 5, 6 ]
		}
	],
	"textures": [
		{
			"name": "Material1-material_tr6_prim6_70_BaseColor",
			"sampler": 0,
			"source": 0
		},
		{
			"name": "5d18788e-17f4-4522-ac88-689863528fee",
			"sampler": 3,
			"source": 3
		},
		{
			"name": "Material1-material_tr6_prim4_74_BaseColor",
			"sampler": 1,
			"source": 1
		},
		{
			"name": "Material1-material_tr6_prim1_80_BaseColor",
			"sampler": 2,
			"source": 2
		}
	]
}