{
  "accessors": [
    {
      "bufferView": 2,
      "componentType": 5126,
      "count": 6174,
      "max": [
        1930.6700439453125,
        926.6400146484375,
        1884.5699462890625
      ],
      "min": [
        -1927.9000244140625,
        -840.15997314453125,
        1.283750057220459
      ],
      "type": "VEC3"
    },
    {
      "bufferView": 2,
      "byteOffset": 74088,
      "componentType": 5126,
      "count": 6174,
      "max": [
        1,
        1,
        0.99998688697814941
      ],
      "min": [
        -0.99981099367141724,
        -1,
        -1
      ],
      "type": "VEC3"
    },
    {
      "bufferView": 3,
      "componentType": 5126,
      "count": 6174,
      "max": [
        1,
        1,
        1,
        1
      ],
      "min": [
        -0.99981433153152466,
        -0.99999970197677612,
        -1,
        1
      ],
      "type": "VEC4"
    },
    {
      "bufferView": 1,
      "componentType": 5126,
      "count": 6174,
      "max": [
        0.99684602022171021,
        0.99707001447677612
      ],
      "min": [
        0.0029296900611370802,
        0.0029296900611370802
      ],
      "type": "VEC2"
    },
    {
      "bufferView": 0,
      "componentType": 5125,
      "count": 24186,
      "max": [
        6173
      ],
      "min": [
        0
      ],
      "type": "SCALAR"
    },
    {
      "bufferView": 2,
      "byteOffset": 148176,
      "componentType": 5126,
      "count": 1881,
      "max": [
        1857.75,
        1014.6900024414062,
        1816.199951171875
      ],
      "min": [
        -673.468994140625,
        -928.2750244140625,
        151.1929931640625
      ],
      "type": "VEC3"
    },
    {
      "bufferView": 2,
      "byteOffset": 170748,
      "componentType": 5126,
      "count": 1881,
      "max": [
        0.99998223781585693,
        0.99999988079071045,
        0.99893653392791748
      ],
      "min": [
        -0.99998223781585693,
        -0.99999988079071045,
        -0.99534136056900024
      ],
      "type": "VEC3"
    },
    {
      "bufferView": 3,
      "byteOffset": 98784,
      "componentType": 5126,
      "count": 1881,
      "max": [
        1,
        1,
        0.99981534481048584,
        1
      ],
      "min": [
        -1,
        -0.99999994039535522,
        -0.99981600046157837,
        1
      ],
      "type": "VEC4"
    },
    {
      "bufferView": 1,
      "byteOffset": 49392,
      "componentType": 5126,
      "count": 1881,
      "max": [
        0.99697798490524292,
        0.98667198419570923
      ],
      "min": [
        0.0029296900611370802,
        0.0029296900611370802
      ],
      "type": "VEC2"
    },
    {
      "bufferView": 0,
      "byteOffset": 96744,
      "componentType": 5125,
      "count": 7668,
      "max": [
        1880
      ],
      "min": [
        0
      ],
      "type": "SCALAR"
    }
  ],
  "asset": {
    "extras": {
      "author": "hawol (https://sketchfab.com/hawol)",
      "license": "CC-BY-4.0 (http://creativecommons.org/licenses/by/4.0/)",
      "source": "https://sketchfab.com/models/09016f12adde42e996c29209635e2b92",
      "title": "UAZ 001 УАЗ"
    },
    "generator": "Sketchfab-3.47.2",
    "version": "2.0"
  },
  "bufferViews": [
    {
      "buffer": 0,
      "byteLength": 127416,
      "byteOffset": 0,
      "name": "floatBufferViews",
      "target": 34963
    },
    {
      "buffer": 0,
      "byteLength": 64440,
      "byteOffset": 127416,
      "byteStride": 8,
      "name": "floatBufferViews",
      "target": 34962
    },
    {
      "buffer": 0,
      "byteLength": 193320,
      "byteOffset": 191856,
      "byteStride": 12,
      "name": "floatBufferViews",
      "target": 34962
    },
    {
      "buffer": 0,
      "byteLength": 128880,
      "byteOffset": 385176,
      "byteStride": 16,
      "name": "floatBufferViews",
      "target": 34962
    }
  ],
  "buffers": [
    {
      "byteLength": 514056,
      "uri": "scene.bin"
    }
  ],
  "images": [
    {
      "uri": "textures/material_normal.png"
    },
    {
      "uri": "textures/material_metallicRoughness.png"
    },
    {
      "uri": "textures/material_emissive.png"
    },
    {
      "uri": "textures/material_baseColor.png"
    }
  ],
  "materials": [
    {
      "doubleSided": true,
      "emissiveFactor": [
        1,
        1,
        1
      ],
      "emissiveTexture": {
        "index": 2,
        "texCoord": 0
      },
      "name": "material",
      "normalTexture": {
        "index": 0,
        "scale": 1,
        "texCoord": 0
      },
      "occlusionTexture": {
        "index": 1,
        "strength": 1,
        "texCoord": 0
      },
      "pbrMetallicRoughness": {
        "baseColorFactor": [
          1,
          1,
          1,
          1
        ],
        "baseColorTexture": {
          "index": 3,
          "texCoord": 0
        },
        "metallicFactor": 1,
        "metallicRoughnessTexture": {
          "index": 1,
          "texCoord": 0
        },
        "roughnessFactor": 1
      }
    }
  ],
  "meshes": [
    {
      "primitives": [
        {
          "attributes": {
            "NORMAL": 1,
            "POSITION": 0,
            "TANGENT": 2,
            "TEXCOORD_0": 3
          },
          "indices": 4,
          "material": 0,
          "mode": 4
        }
      ]
    },
    {
      "primitives": [
        {
          "attributes": {
            "NORMAL": 6,
            "POSITION": 5,
            "TANGENT": 7,
            "TEXCOORD_0": 8
          },
          "indices": 9,
          "material": 0,
          "mode": 4
        }
      ]
    }
  ],
  "nodes": [
    {
      "children": [
        1
      ],
      "name": "RootNode (gltf orientation matrix)",
      "rotation": [
        -0.70710678118654746,
        -0,
        -0,
        0.70710678118654757
      ]
    },
    {
      "children": [
        2
      ],
      "name": "RootNode (model correction matrix)"
    },
    {
      "children": [
        3,
        4
      ],
      "name": "UAZ_001.obj.cleaner.materialmerger.gles"
    },
    {
      "mesh": 0,
      "name": ""
    },
    {
      "mesh": 1,
      "name": ""
    }
  ],
  "samplers": [
    {
      "magFilter": 9729,
      "minFilter": 9987,
      "wrapS": 10497,
      "wrapT": 10497
    }
  ],
  "scene": 0,
  "scenes": [
    {
      "name": "OSG_Scene",
      "nodes": [
        0
      ]
    }
  ],
  "textures": [
    {
      "sampler": 0,
      "source": 0
    },
    {
      "sampler": 0,
      "source": 1
    },
    {
      "sampler": 0,
      "source": 2
    },
    {
      "sampler": 0,
      "source": 3
    }
  ]
}

