{
	"asset":
	{
		"version": "2.0",
		"generator": "Unreal Engine 4.25.0 glTF Exporter 1.0.6"
	},
	"scene": 0,
	"accessors": [
		{
			"bufferView": 0,
			"count": 5916,
			"type": "SCALAR",
			"componentType": 5123
		},
		{
			"bufferView": 1,
			"count": 1062,
			"type": "VEC3",
			"componentType": 5126,
			"min": [ -0.294727474,
				-2.42897534e-17,
				-0.12222629
			],
			"max": [ 0.509522319,
				17.6274433,
				0.662838042
			]
		},
		{
			"bufferView": 2,
			"count": 1062,
			"type": "VEC3",
			"componentType": 5126
		},
		{
			"bufferView": 3,
			"count": 1062,
			"type": "VEC4",
			"componentType": 5126
		},
		{
			"bufferView": 4,
			"count": 1062,
			"type": "VEC2",
			"componentType": 5126
		},
		{
			"bufferView": 5,
			"count": 1062,
			"type": "VEC2",
			"componentType": 5126
		},
		{
			"bufferView": 6,
			"count": 1062,
			"type": "VEC2",
			"componentType": 5126
		},
		{
			"bufferView": 7,
			"count": 1062,
			"type": "VEC2",
			"componentType": 5126
		},
		{
			"bufferView": 8,
			"count": 1062,
			"type": "VEC2",
			"componentType": 5126
		},
		{
			"bufferView": 9,
			"count": 1062,
			"type": "VEC2",
			"componentType": 5126
		},
		{
			"bufferView": 10,
			"count": 1062,
			"type": "VEC2",
			"componentType": 5126
		},
		{
			"bufferView": 11,
			"count": 1062,
			"type": "VEC2",
			"componentType": 5126
		},
		{
			"bufferView": 12,
			"count": 1710,
			"type": "SCALAR",
			"componentType": 5123
		},
		{
			"bufferView": 13,
			"count": 570,
			"type": "VEC3",
			"componentType": 5126,
			"min": [ -4.83608818,
				0.0756417811,
				-4.61678553
			],
			"max": [ 4.83608818,
				19.2363491,
				4.61678553
			]
		},
		{
			"bufferView": 14,
			"count": 570,
			"type": "VEC3",
			"componentType": 5126
		},
		{
			"bufferView": 15,
			"count": 570,
			"type": "VEC4",
			"componentType": 5126
		},
		{
			"bufferView": 16,
			"count": 570,
			"type": "VEC2",
			"componentType": 5126
		},
		{
			"bufferView": 17,
			"count": 570,
			"type": "VEC2",
			"componentType": 5126
		},
		{
			"bufferView": 18,
			"count": 570,
			"type": "VEC2",
			"componentType": 5126
		},
		{
			"bufferView": 19,
			"count": 570,
			"type": "VEC2",
			"componentType": 5126
		},
		{
			"bufferView": 20,
			"count": 570,
			"type": "VEC2",
			"componentType": 5126
		},
		{
			"bufferView": 21,
			"count": 570,
			"type": "VEC2",
			"componentType": 5126
		},
		{
			"bufferView": 22,
			"count": 570,
			"type": "VEC2",
			"componentType": 5126
		},
		{
			"bufferView": 23,
			"count": 570,
			"type": "VEC2",
			"componentType": 5126
		},
		{
			"bufferView": 24,
			"count": 0,
			"type": "VEC3",
			"componentType": 5126
		},
		{
			"bufferView": 25,
			"count": 0,
			"type": "VEC3",
			"componentType": 5126
		},
		{
			"bufferView": 26,
			"count": 0,
			"type": "VEC4",
			"componentType": 5126
		},
		{
			"bufferView": 27,
			"count": 0,
			"type": "VEC2",
			"componentType": 5126
		},
		{
			"bufferView": 28,
			"count": 0,
			"type": "VEC2",
			"componentType": 5126
		},
		{
			"bufferView": 29,
			"count": 0,
			"type": "VEC2",
			"componentType": 5126
		},
		{
			"bufferView": 30,
			"count": 0,
			"type": "VEC2",
			"componentType": 5126
		},
		{
			"bufferView": 31,
			"count": 0,
			"type": "VEC2",
			"componentType": 5126
		},
		{
			"bufferView": 32,
			"count": 0,
			"type": "VEC2",
			"componentType": 5126
		},
		{
			"bufferView": 33,
			"count": 0,
			"type": "VEC2",
			"componentType": 5126
		},
		{
			"bufferView": 34,
			"count": 0,
			"type": "VEC2",
			"componentType": 5126
		}
	],
	"buffers": [
		{
			"uri": "elka.bin",
			"byteLength": 184980
		}
	],
	"bufferViews": [
		{
			"buffer": 0,
			"byteLength": 11832,
			"target": 34963
		},
		{
			"buffer": 0,
			"byteLength": 12744,
			"byteOffset": 11832,
			"target": 34962
		},
		{
			"buffer": 0,
			"byteLength": 12744,
			"byteOffset": 24576,
			"target": 34962
		},
		{
			"buffer": 0,
			"byteLength": 16992,
			"byteOffset": 37320,
			"target": 34962
		},
		{
			"buffer": 0,
			"byteLength": 8496,
			"byteOffset": 54312,
			"target": 34962
		},
		{
			"buffer": 0,
			"byteLength": 8496,
			"byteOffset": 62808,
			"target": 34962
		},
		{
			"buffer": 0,
			"byteLength": 8496,
			"byteOffset": 71304,
			"target": 34962
		},
		{
			"buffer": 0,
			"byteLength": 8496,
			"byteOffset": 79800,
			"target": 34962
		},
		{
			"buffer": 0,
			"byteLength": 8496,
			"byteOffset": 88296,
			"target": 34962
		},
		{
			"buffer": 0,
			"byteLength": 8496,
			"byteOffset": 96792,
			"target": 34962
		},
		{
			"buffer": 0,
			"byteLength": 8496,
			"byteOffset": 105288,
			"target": 34962
		},
		{
			"buffer": 0,
			"byteLength": 8496,
			"byteOffset": 113784,
			"target": 34962
		},
		{
			"buffer": 0,
			"byteLength": 3420,
			"byteOffset": 122280,
			"target": 34963
		},
		{
			"buffer": 0,
			"byteLength": 6840,
			"byteOffset": 125700,
			"target": 34962
		},
		{
			"buffer": 0,
			"byteLength": 6840,
			"byteOffset": 132540,
			"target": 34962
		},
		{
			"buffer": 0,
			"byteLength": 9120,
			"byteOffset": 139380,
			"target": 34962
		},
		{
			"buffer": 0,
			"byteLength": 4560,
			"byteOffset": 148500,
			"target": 34962
		},
		{
			"buffer": 0,
			"byteLength": 4560,
			"byteOffset": 153060,
			"target": 34962
		},
		{
			"buffer": 0,
			"byteLength": 4560,
			"byteOffset": 157620,
			"target": 34962
		},
		{
			"buffer": 0,
			"byteLength": 4560,
			"byteOffset": 162180,
			"target": 34962
		},
		{
			"buffer": 0,
			"byteLength": 4560,
			"byteOffset": 166740,
			"target": 34962
		},
		{
			"buffer": 0,
			"byteLength": 4560,
			"byteOffset": 171300,
			"target": 34962
		},
		{
			"buffer": 0,
			"byteLength": 4560,
			"byteOffset": 175860,
			"target": 34962
		},
		{
			"buffer": 0,
			"byteLength": 4560,
			"byteOffset": 180420,
			"target": 34962
		},
		{
			"buffer": 0,
			"byteLength": 0,
			"byteOffset": 184980,
			"target": 34962
		},
		{
			"buffer": 0,
			"byteLength": 0,
			"byteOffset": 184980,
			"target": 34962
		},
		{
			"buffer": 0,
			"byteLength": 0,
			"byteOffset": 184980,
			"target": 34962
		},
		{
			"buffer": 0,
			"byteLength": 0,
			"byteOffset": 184980,
			"target": 34962
		},
		{
			"buffer": 0,
			"byteLength": 0,
			"byteOffset": 184980,
			"target": 34962
		},
		{
			"buffer": 0,
			"byteLength": 0,
			"byteOffset": 184980,
			"target": 34962
		},
		{
			"buffer": 0,
			"byteLength": 0,
			"byteOffset": 184980,
			"target": 34962
		},
		{
			"buffer": 0,
			"byteLength": 0,
			"byteOffset": 184980,
			"target": 34962
		},
		{
			"buffer": 0,
			"byteLength": 0,
			"byteOffset": 184980,
			"target": 34962
		},
		{
			"buffer": 0,
			"byteLength": 0,
			"byteOffset": 184980,
			"target": 34962
		},
		{
			"buffer": 0,
			"byteLength": 0,
			"byteOffset": 184980,
			"target": 34962
		}
	],
	"images": [
		{
			"uri": "MI_AlaskaCedar_Bark_SM_AlaskaCedar_17_BaseColor.png"
		},
		{
			"uri": "MI_AlaskaCedar_Bark_SM_AlaskaCedar_17_Normal.png"
		},
		{
			"uri": "MI_AlaskaCedar_Leaf_SM_AlaskaCedar_17_BaseColor.png"
		},
		{
			"uri": "MI_AlaskaCedar_Leaf_SM_AlaskaCedar_17_MetallicRoughness.png"
		},
		{
			"uri": "MI_AlaskaCedar_Leaf_SM_AlaskaCedar_17_Normal.png"
		},
		{
			"uri": "MI_AlaskaCedar_1_B_BaseColor.png"
		},
		{
			"uri": "MI_AlaskaCedar_1_B_MetallicRoughness.png"
		},
		{
			"uri": "MI_AlaskaCedar_1_B_Normal.png"
		}
	],
	"materials": [
		{
			"name": "MI_AlaskaCedar_Bark_SM_AlaskaCedar_17",
			"pbrMetallicRoughness":
			{
				"baseColorTexture":
				{
					"index": 0,
					"texCoord": 1
				},
				"metallicFactor": 0
			},
			"normalTexture":
			{
				"index": 1,
				"texCoord": 1
			},
			"alphaMode": "MASK",
			"alphaCutoff": 0.333299994,
			"doubleSided": true
		},
		{
			"name": "MI_AlaskaCedar_Leaf_SM_AlaskaCedar_17",
			"pbrMetallicRoughness":
			{
				"baseColorTexture":
				{
					"index": 2,
					"texCoord": 1
				},
				"metallicRoughnessTexture":
				{
					"index": 3,
					"texCoord": 1
				}
			},
			"normalTexture":
			{
				"index": 4,
				"texCoord": 1
			},
			"alphaMode": "MASK",
			"alphaCutoff": 0.333332986,
			"doubleSided": true
		},
		{
			"name": "MI_AlaskaCedar_1_B",
			"pbrMetallicRoughness":
			{
				"baseColorTexture":
				{
					"index": 5
				},
				"metallicRoughnessTexture":
				{
					"index": 6
				}
			},
			"normalTexture":
			{
				"index": 7
			},
			"alphaMode": "MASK",
			"alphaCutoff": 0.333299994
		}
	],
	"meshes": [
		{
			"name": "SM_AlaskaCedar_17",
			"primitives": [
				{
					"attributes":
					{
						"POSITION": 1,
						"NORMAL": 2,
						"TANGENT": 3,
						"TEXCOORD_0": 4,
						"TEXCOORD_1": 5,
						"TEXCOORD_2": 6,
						"TEXCOORD_3": 7,
						"TEXCOORD_4": 8,
						"TEXCOORD_5": 9,
						"TEXCOORD_6": 10,
						"TEXCOORD_7": 11
					},
					"indices": 0,
					"material": 0
				},
				{
					"attributes":
					{
						"POSITION": 13,
						"NORMAL": 14,
						"TANGENT": 15,
						"TEXCOORD_0": 16,
						"TEXCOORD_1": 17,
						"TEXCOORD_2": 18,
						"TEXCOORD_3": 19,
						"TEXCOORD_4": 20,
						"TEXCOORD_5": 21,
						"TEXCOORD_6": 22,
						"TEXCOORD_7": 23
					},
					"indices": 12,
					"material": 1
				},
				{
					"attributes":
					{
						"POSITION": 24,
						"NORMAL": 25,
						"TANGENT": 26,
						"TEXCOORD_0": 27,
						"TEXCOORD_1": 28,
						"TEXCOORD_2": 29,
						"TEXCOORD_3": 30,
						"TEXCOORD_4": 31,
						"TEXCOORD_5": 32,
						"TEXCOORD_6": 33,
						"TEXCOORD_7": 34
					},
					"material": 2
				}
			]
		}
	],
	"nodes": [
		{
			"name": "SM_AlaskaCedar_17_StaticMeshComponent0",
			"translation": [ 93.0999985,
				1.29999995,
				10
			],
			"mesh": 0
		}
	],
	"samplers": [
		{
			"name": "MI_AlaskaCedar_Bark_SM_AlaskaCedar_17_BaseColor",
			"minFilter": 9987,
			"magFilter": 9729
		},
		{
			"name": "MI_AlaskaCedar_Bark_SM_AlaskaCedar_17_Normal",
			"minFilter": 9987,
			"magFilter": 9729
		},
		{
			"name": "MI_AlaskaCedar_Leaf_SM_AlaskaCedar_17_BaseColor",
			"minFilter": 9987,
			"magFilter": 9729
		},
		{
			"name": "MI_AlaskaCedar_Leaf_SM_AlaskaCedar_17_MetallicRoughness",
			"minFilter": 9987,
			"magFilter": 9729
		},
		{
			"name": "MI_AlaskaCedar_Leaf_SM_AlaskaCedar_17_Normal",
			"minFilter": 9987,
			"magFilter": 9729
		},
		{
			"name": "MI_AlaskaCedar_1_B_BaseColor",
			"minFilter": 9987,
			"magFilter": 9729
		},
		{
			"name": "MI_AlaskaCedar_1_B_MetallicRoughness",
			"minFilter": 9987,
			"magFilter": 9729
		},
		{
			"name": "MI_AlaskaCedar_1_B_Normal",
			"minFilter": 9987,
			"magFilter": 9729
		}
	],
	"scenes": [
		{
			"name": "ThirdPersonExampleMap",
			"nodes": [ 0 ]
		}
	],
	"textures": [
		{
			"name": "MI_AlaskaCedar_Bark_SM_AlaskaCedar_17_BaseColor",
			"sampler": 0,
			"source": 0
		},
		{
			"name": "MI_AlaskaCedar_Bark_SM_AlaskaCedar_17_Normal",
			"sampler": 1,
			"source": 1
		},
		{
			"name": "MI_AlaskaCedar_Leaf_SM_AlaskaCedar_17_BaseColor",
			"sampler": 2,
			"source": 2
		},
		{
			"name": "MI_AlaskaCedar_Leaf_SM_AlaskaCedar_17_MetallicRoughness",
			"sampler": 3,
			"source": 3
		},
		{
			"name": "MI_AlaskaCedar_Leaf_SM_AlaskaCedar_17_Normal",
			"sampler": 4,
			"source": 4
		},
		{
			"name": "MI_AlaskaCedar_1_B_BaseColor",
			"sampler": 5,
			"source": 5
		},
		{
			"name": "MI_AlaskaCedar_1_B_MetallicRoughness",
			"sampler": 6,
			"source": 6
		},
		{
			"name": "MI_AlaskaCedar_1_B_Normal",
			"sampler": 7,
			"source": 7
		}
	]
}