{
	"asset":
	{
		"version": "2.0",
		"generator": "Unreal Engine 4.25.0 glTF Exporter 1.0.6"
	},
	"scene": 0,
	"accessors": [
		{
			"bufferView": 0,
			"count": 1437,
			"type": "SCALAR",
			"componentType": 5123
		},
		{
			"bufferView": 1,
			"count": 293,
			"type": "VEC3",
			"componentType": 5126,
			"min": [ -0.330131739,
				-0.0104062511,
				-0.425394922
			],
			"max": [ 0.453345448,
				11.1419878,
				0.384652317
			]
		},
		{
			"bufferView": 2,
			"count": 293,
			"type": "VEC3",
			"componentType": 5126
		},
		{
			"bufferView": 3,
			"count": 293,
			"type": "VEC4",
			"componentType": 5126
		},
		{
			"bufferView": 4,
			"count": 293,
			"type": "VEC2",
			"componentType": 5126
		},
		{
			"bufferView": 5,
			"count": 293,
			"type": "VEC2",
			"componentType": 5126
		},
		{
			"bufferView": 6,
			"count": 293,
			"type": "VEC2",
			"componentType": 5126
		},
		{
			"bufferView": 7,
			"count": 54516,
			"type": "SCALAR",
			"componentType": 5123
		},
		{
			"bufferView": 8,
			"count": 21333,
			"type": "VEC3",
			"componentType": 5126,
			"min": [ -3.66930676,
				-0.258060843,
				-3.49650478
			],
			"max": [ 3.32507992,
				11.6501131,
				3.25931597
			]
		},
		{
			"bufferView": 9,
			"count": 21333,
			"type": "VEC3",
			"componentType": 5126
		},
		{
			"bufferView": 10,
			"count": 21333,
			"type": "VEC4",
			"componentType": 5126
		},
		{
			"bufferView": 11,
			"count": 21333,
			"type": "VEC2",
			"componentType": 5126
		},
		{
			"bufferView": 12,
			"count": 21333,
			"type": "VEC2",
			"componentType": 5126
		},
		{
			"bufferView": 13,
			"count": 21333,
			"type": "VEC2",
			"componentType": 5126
		},
		{
			"bufferView": 14,
			"count": 16758,
			"type": "SCALAR",
			"componentType": 5123
		},
		{
			"bufferView": 15,
			"count": 4094,
			"type": "VEC3",
			"componentType": 5126,
			"min": [ -3.0981307,
				1.35906196,
				-2.92977858
			],
			"max": [ 2.69522643,
				11.1338902,
				2.6765883
			]
		},
		{
			"bufferView": 16,
			"count": 4094,
			"type": "VEC3",
			"componentType": 5126
		},
		{
			"bufferView": 17,
			"count": 4094,
			"type": "VEC4",
			"componentType": 5126
		},
		{
			"bufferView": 18,
			"count": 4094,
			"type": "VEC2",
			"componentType": 5126
		},
		{
			"bufferView": 19,
			"count": 4094,
			"type": "VEC2",
			"componentType": 5126
		},
		{
			"bufferView": 20,
			"count": 4094,
			"type": "VEC2",
			"componentType": 5126
		},
		{
			"bufferView": 21,
			"count": 0,
			"type": "VEC3",
			"componentType": 5126
		},
		{
			"bufferView": 22,
			"count": 0,
			"type": "VEC3",
			"componentType": 5126
		},
		{
			"bufferView": 23,
			"count": 0,
			"type": "VEC4",
			"componentType": 5126
		},
		{
			"bufferView": 24,
			"count": 0,
			"type": "VEC2",
			"componentType": 5126
		},
		{
			"bufferView": 25,
			"count": 0,
			"type": "VEC2",
			"componentType": 5126
		},
		{
			"bufferView": 26,
			"count": 0,
			"type": "VEC2",
			"componentType": 5126
		}
	],
	"buffers": [
		{
			"uri": "elka.bin",
			"byteLength": 1791504
		}
	],
	"bufferViews": [
		{
			"buffer": 0,
			"byteLength": 2874,
			"target": 34963
		},
		{
			"buffer": 0,
			"byteLength": 3516,
			"byteOffset": 2876,
			"target": 34962
		},
		{
			"buffer": 0,
			"byteLength": 3516,
			"byteOffset": 6392,
			"target": 34962
		},
		{
			"buffer": 0,
			"byteLength": 4688,
			"byteOffset": 9908,
			"target": 34962
		},
		{
			"buffer": 0,
			"byteLength": 2344,
			"byteOffset": 14596,
			"target": 34962
		},
		{
			"buffer": 0,
			"byteLength": 2344,
			"byteOffset": 16940,
			"target": 34962
		},
		{
			"buffer": 0,
			"byteLength": 2344,
			"byteOffset": 19284,
			"target": 34962
		},
		{
			"buffer": 0,
			"byteLength": 109032,
			"byteOffset": 21628,
			"target": 34963
		},
		{
			"buffer": 0,
			"byteLength": 255996,
			"byteOffset": 130660,
			"target": 34962
		},
		{
			"buffer": 0,
			"byteLength": 255996,
			"byteOffset": 386656,
			"target": 34962
		},
		{
			"buffer": 0,
			"byteLength": 341328,
			"byteOffset": 642652,
			"target": 34962
		},
		{
			"buffer": 0,
			"byteLength": 170664,
			"byteOffset": 983980,
			"target": 34962
		},
		{
			"buffer": 0,
			"byteLength": 170664,
			"byteOffset": 1154644,
			"target": 34962
		},
		{
			"buffer": 0,
			"byteLength": 170664,
			"byteOffset": 1325308,
			"target": 34962
		},
		{
			"buffer": 0,
			"byteLength": 33516,
			"byteOffset": 1495972,
			"target": 34963
		},
		{
			"buffer": 0,
			"byteLength": 49128,
			"byteOffset": 1529488,
			"target": 34962
		},
		{
			"buffer": 0,
			"byteLength": 49128,
			"byteOffset": 1578616,
			"target": 34962
		},
		{
			"buffer": 0,
			"byteLength": 65504,
			"byteOffset": 1627744,
			"target": 34962
		},
		{
			"buffer": 0,
			"byteLength": 32752,
			"byteOffset": 1693248,
			"target": 34962
		},
		{
			"buffer": 0,
			"byteLength": 32752,
			"byteOffset": 1726000,
			"target": 34962
		},
		{
			"buffer": 0,
			"byteLength": 32752,
			"byteOffset": 1758752,
			"target": 34962
		},
		{
			"buffer": 0,
			"byteLength": 0,
			"byteOffset": 1791504,
			"target": 34962
		},
		{
			"buffer": 0,
			"byteLength": 0,
			"byteOffset": 1791504,
			"target": 34962
		},
		{
			"buffer": 0,
			"byteLength": 0,
			"byteOffset": 1791504,
			"target": 34962
		},
		{
			"buffer": 0,
			"byteLength": 0,
			"byteOffset": 1791504,
			"target": 34962
		},
		{
			"buffer": 0,
			"byteLength": 0,
			"byteOffset": 1791504,
			"target": 34962
		},
		{
			"buffer": 0,
			"byteLength": 0,
			"byteOffset": 1791504,
			"target": 34962
		}
	],
	"images": [
		{
			"uri": "spruce_full_02_trunk_Normal.png"
		},
		{
			"uri": "spruce_full_02_trunk_Occlusion.png"
		},
		{
			"uri": "spruce_full_02_leaf_BaseColor.png"
		},
		{
			"uri": "spruce_full_02_leaf_Normal.png"
		},
		{
			"uri": "spruce_full_02_leaf_Occlusion.png"
		},
		{
			"uri": "spruce_full_02_branch_BaseColor.png"
		},
		{
			"uri": "spruce_full_02_branch_Normal.png"
		},
		{
			"uri": "spruce_full_02_branch_Occlusion.png"
		}
	],
	"materials": [
		{
			"name": "spruce_full_02_trunk",
			"pbrMetallicRoughness":
			{
				"baseColorFactor": [ 0,
					0,
					0,
					1
				],
				"metallicFactor": 0
			},
			"normalTexture":
			{
				"index": 0
			},
			"occlusionTexture":
			{
				"index": 1
			},
			"alphaMode": "MASK",
			"alphaCutoff": 0.333299994,
			"doubleSided": true
		},
		{
			"name": "spruce_full_02_leaf",
			"pbrMetallicRoughness":
			{
				"baseColorTexture":
				{
					"index": 2
				},
				"metallicFactor": 0
			},
			"normalTexture":
			{
				"index": 3
			},
			"occlusionTexture":
			{
				"index": 4
			},
			"alphaMode": "MASK",
			"alphaCutoff": 0.333299994,
			"doubleSided": true
		},
		{
			"name": "spruce_full_02_branch",
			"pbrMetallicRoughness":
			{
				"baseColorTexture":
				{
					"index": 5
				},
				"metallicFactor": 0
			},
			"normalTexture":
			{
				"index": 6
			},
			"occlusionTexture":
			{
				"index": 7
			},
			"alphaMode": "MASK",
			"alphaCutoff": 0.333299994,
			"doubleSided": true
		},
		{
			"name": "full_02_imposter",
			"pbrMetallicRoughness":
			{
				"baseColorFactor": [ 0,
					0,
					0,
					0
				],
				"metallicFactor": 0,
				"roughnessFactor": 5
			},
			"alphaMode": "MASK",
			"alphaCutoff": 0.333299994,
			"doubleSided": true
		}
	],
	"meshes": [
		{
			"name": "spruce_full_02_2",
			"primitives": [
				{
					"attributes":
					{
						"POSITION": 1,
						"NORMAL": 2,
						"TANGENT": 3,
						"TEXCOORD_0": 4,
						"TEXCOORD_1": 5,
						"TEXCOORD_2": 6
					},
					"indices": 0,
					"material": 0
				},
				{
					"attributes":
					{
						"POSITION": 8,
						"NORMAL": 9,
						"TANGENT": 10,
						"TEXCOORD_0": 11,
						"TEXCOORD_1": 12,
						"TEXCOORD_2": 13
					},
					"indices": 7,
					"material": 1
				},
				{
					"attributes":
					{
						"POSITION": 15,
						"NORMAL": 16,
						"TANGENT": 17,
						"TEXCOORD_0": 18,
						"TEXCOORD_1": 19,
						"TEXCOORD_2": 20
					},
					"indices": 14,
					"material": 2
				},
				{
					"attributes":
					{
						"POSITION": 21,
						"NORMAL": 22,
						"TANGENT": 23,
						"TEXCOORD_0": 24,
						"TEXCOORD_1": 25,
						"TEXCOORD_2": 26
					},
					"material": 3
				}
			]
		}
	],
	"nodes": [
		{
			"name": "spruce_full_02_2_StaticMeshComponent0",
			"translation": [ 48.5,
				1.29999995,
				35.5
			],
			"mesh": 0
		}
	],
	"samplers": [
		{
			"name": "spruce_full_02_trunk_Normal",
			"minFilter": 9987,
			"magFilter": 9729
		},
		{
			"name": "spruce_full_02_trunk_Occlusion",
			"minFilter": 9987,
			"magFilter": 9729
		},
		{
			"name": "spruce_full_02_leaf_BaseColor",
			"minFilter": 9987,
			"magFilter": 9729
		},
		{
			"name": "spruce_full_02_leaf_Normal",
			"minFilter": 9987,
			"magFilter": 9729
		},
		{
			"name": "spruce_full_02_leaf_Occlusion",
			"minFilter": 9987,
			"magFilter": 9729
		},
		{
			"name": "spruce_full_02_branch_BaseColor",
			"minFilter": 9987,
			"magFilter": 9729
		},
		{
			"name": "spruce_full_02_branch_Normal",
			"minFilter": 9987,
			"magFilter": 9729
		},
		{
			"name": "spruce_full_02_branch_Occlusion",
			"minFilter": 9987,
			"magFilter": 9729
		}
	],
	"scenes": [
		{
			"name": "ThirdPersonExampleMap",
			"nodes": [ 0 ]
		}
	],
	"textures": [
		{
			"name": "spruce_full_02_trunk_Normal",
			"sampler": 0,
			"source": 0
		},
		{
			"name": "spruce_full_02_trunk_Occlusion",
			"sampler": 1,
			"source": 1
		},
		{
			"name": "spruce_full_02_leaf_BaseColor",
			"sampler": 2,
			"source": 2
		},
		{
			"name": "spruce_full_02_leaf_Normal",
			"sampler": 3,
			"source": 3
		},
		{
			"name": "spruce_full_02_leaf_Occlusion",
			"sampler": 4,
			"source": 4
		},
		{
			"name": "spruce_full_02_branch_BaseColor",
			"sampler": 5,
			"source": 5
		},
		{
			"name": "spruce_full_02_branch_Normal",
			"sampler": 6,
			"source": 6
		},
		{
			"name": "spruce_full_02_branch_Occlusion",
			"sampler": 7,
			"source": 7
		}
	]
}