{
	"asset":
	{
		"version": "2.0",
		"generator": "Unreal Engine 4.25.0 glTF Exporter 1.0.6"
	},
	"scene": 0,
	"accessors": [
		{
			"bufferView": 0,
			"count": 540,
			"type": "SCALAR",
			"componentType": 5123
		},
		{
			"bufferView": 1,
			"count": 344,
			"type": "VEC3",
			"componentType": 5126,
			"min": [ -32.6339722,
				-5.11870432,
				-9.47113705
			],
			"max": [ 2.75330067,
				5.01870346,
				48.1862335
			]
		},
		{
			"bufferView": 2,
			"count": 344,
			"type": "VEC3",
			"componentType": 5126
		},
		{
			"bufferView": 3,
			"count": 344,
			"type": "VEC4",
			"componentType": 5126
		},
		{
			"bufferView": 4,
			"count": 344,
			"type": "VEC2",
			"componentType": 5126
		},
		{
			"bufferView": 5,
			"count": 344,
			"type": "VEC2",
			"componentType": 5126
		},
		{
			"bufferView": 6,
			"count": 344,
			"type": "VEC2",
			"componentType": 5126
		},
		{
			"bufferView": 7,
			"count": 78,
			"type": "SCALAR",
			"componentType": 5121
		},
		{
			"bufferView": 8,
			"count": 48,
			"type": "VEC3",
			"componentType": 5126,
			"min": [ -32.6339722,
				4.91870356,
				-9.47113705
			],
			"max": [ 2.75330067,
				5.01870346,
				48.1862335
			]
		},
		{
			"bufferView": 9,
			"count": 48,
			"type": "VEC3",
			"componentType": 5126
		},
		{
			"bufferView": 10,
			"count": 48,
			"type": "VEC4",
			"componentType": 5126
		},
		{
			"bufferView": 11,
			"count": 48,
			"type": "VEC2",
			"componentType": 5126
		},
		{
			"bufferView": 12,
			"count": 48,
			"type": "VEC2",
			"componentType": 5126
		},
		{
			"bufferView": 13,
			"count": 48,
			"type": "VEC2",
			"componentType": 5126
		},
		{
			"bufferView": 14,
			"count": 318,
			"type": "SCALAR",
			"componentType": 5121
		},
		{
			"bufferView": 15,
			"count": 194,
			"type": "VEC3",
			"componentType": 5126,
			"min": [ -3.78559065,
				-4.96959782,
				-9.47113705
			],
			"max": [ 2.75330067,
				3.94439435,
				46.2165337
			]
		},
		{
			"bufferView": 16,
			"count": 194,
			"type": "VEC3",
			"componentType": 5126
		},
		{
			"bufferView": 17,
			"count": 194,
			"type": "VEC4",
			"componentType": 5126
		},
		{
			"bufferView": 18,
			"count": 194,
			"type": "VEC2",
			"componentType": 5126
		},
		{
			"bufferView": 19,
			"count": 194,
			"type": "VEC2",
			"componentType": 5126
		},
		{
			"bufferView": 20,
			"count": 194,
			"type": "VEC2",
			"componentType": 5126
		},
		{
			"bufferView": 21,
			"count": 78,
			"type": "SCALAR",
			"componentType": 5121
		},
		{
			"bufferView": 22,
			"count": 44,
			"type": "VEC3",
			"componentType": 5126,
			"min": [ -3.78559065,
				-4.2926178,
				-8.63024426
			],
			"max": [ 1.57412112,
				3.94439435,
				46.2165337
			]
		},
		{
			"bufferView": 23,
			"count": 44,
			"type": "VEC3",
			"componentType": 5126
		},
		{
			"bufferView": 24,
			"count": 44,
			"type": "VEC4",
			"componentType": 5126
		},
		{
			"bufferView": 25,
			"count": 44,
			"type": "VEC2",
			"componentType": 5126
		},
		{
			"bufferView": 26,
			"count": 44,
			"type": "VEC2",
			"componentType": 5126
		},
		{
			"bufferView": 27,
			"count": 44,
			"type": "VEC2",
			"componentType": 5126
		},
		{
			"bufferView": 28,
			"count": 66,
			"type": "SCALAR",
			"componentType": 5121
		},
		{
			"bufferView": 29,
			"count": 40,
			"type": "VEC3",
			"componentType": 5126,
			"min": [ -32.6339722,
				-5.11870432,
				-9.47113705
			],
			"max": [ 0.566025376,
				-5.01870394,
				48.1862335
			]
		},
		{
			"bufferView": 30,
			"count": 40,
			"type": "VEC3",
			"componentType": 5126
		},
		{
			"bufferView": 31,
			"count": 40,
			"type": "VEC4",
			"componentType": 5126
		},
		{
			"bufferView": 32,
			"count": 40,
			"type": "VEC2",
			"componentType": 5126
		},
		{
			"bufferView": 33,
			"count": 40,
			"type": "VEC2",
			"componentType": 5126
		},
		{
			"bufferView": 34,
			"count": 40,
			"type": "VEC2",
			"componentType": 5126
		}
	],
	"buffers": [
		{
			"uri": "sport.bin",
			"byteLength": 44508
		}
	],
	"bufferViews": [
		{
			"buffer": 0,
			"byteLength": 1080,
			"target": 34963
		},
		{
			"buffer": 0,
			"byteLength": 4128,
			"byteOffset": 1080,
			"target": 34962
		},
		{
			"buffer": 0,
			"byteLength": 4128,
			"byteOffset": 5208,
			"target": 34962
		},
		{
			"buffer": 0,
			"byteLength": 5504,
			"byteOffset": 9336,
			"target": 34962
		},
		{
			"buffer": 0,
			"byteLength": 2752,
			"byteOffset": 14840,
			"target": 34962
		},
		{
			"buffer": 0,
			"byteLength": 2752,
			"byteOffset": 17592,
			"target": 34962
		},
		{
			"buffer": 0,
			"byteLength": 2752,
			"byteOffset": 20344,
			"target": 34962
		},
		{
			"buffer": 0,
			"byteLength": 78,
			"byteOffset": 23096,
			"target": 34963
		},
		{
			"buffer": 0,
			"byteLength": 576,
			"byteOffset": 23176,
			"target": 34962
		},
		{
			"buffer": 0,
			"byteLength": 576,
			"byteOffset": 23752,
			"target": 34962
		},
		{
			"buffer": 0,
			"byteLength": 768,
			"byteOffset": 24328,
			"target": 34962
		},
		{
			"buffer": 0,
			"byteLength": 384,
			"byteOffset": 25096,
			"target": 34962
		},
		{
			"buffer": 0,
			"byteLength": 384,
			"byteOffset": 25480,
			"target": 34962
		},
		{
			"buffer": 0,
			"byteLength": 384,
			"byteOffset": 25864,
			"target": 34962
		},
		{
			"buffer": 0,
			"byteLength": 318,
			"byteOffset": 26248,
			"target": 34963
		},
		{
			"buffer": 0,
			"byteLength": 2328,
			"byteOffset": 26568,
			"target": 34962
		},
		{
			"buffer": 0,
			"byteLength": 2328,
			"byteOffset": 28896,
			"target": 34962
		},
		{
			"buffer": 0,
			"byteLength": 3104,
			"byteOffset": 31224,
			"target": 34962
		},
		{
			"buffer": 0,
			"byteLength": 1552,
			"byteOffset": 34328,
			"target": 34962
		},
		{
			"buffer": 0,
			"byteLength": 1552,
			"byteOffset": 35880,
			"target": 34962
		},
		{
			"buffer": 0,
			"byteLength": 1552,
			"byteOffset": 37432,
			"target": 34962
		},
		{
			"buffer": 0,
			"byteLength": 78,
			"byteOffset": 38984,
			"target": 34963
		},
		{
			"buffer": 0,
			"byteLength": 528,
			"byteOffset": 39064,
			"target": 34962
		},
		{
			"buffer": 0,
			"byteLength": 528,
			"byteOffset": 39592,
			"target": 34962
		},
		{
			"buffer": 0,
			"byteLength": 704,
			"byteOffset": 40120,
			"target": 34962
		},
		{
			"buffer": 0,
			"byteLength": 352,
			"byteOffset": 40824,
			"target": 34962
		},
		{
			"buffer": 0,
			"byteLength": 352,
			"byteOffset": 41176,
			"target": 34962
		},
		{
			"buffer": 0,
			"byteLength": 352,
			"byteOffset": 41528,
			"target": 34962
		},
		{
			"buffer": 0,
			"byteLength": 66,
			"byteOffset": 41880,
			"target": 34963
		},
		{
			"buffer": 0,
			"byteLength": 480,
			"byteOffset": 41948,
			"target": 34962
		},
		{
			"buffer": 0,
			"byteLength": 480,
			"byteOffset": 42428,
			"target": 34962
		},
		{
			"buffer": 0,
			"byteLength": 640,
			"byteOffset": 42908,
			"target": 34962
		},
		{
			"buffer": 0,
			"byteLength": 320,
			"byteOffset": 43548,
			"target": 34962
		},
		{
			"buffer": 0,
			"byteLength": 320,
			"byteOffset": 43868,
			"target": 34962
		},
		{
			"buffer": 0,
			"byteLength": 320,
			"byteOffset": 44188,
			"target": 34962
		}
	],
	"images": [
		{
			"uri": "Wooden_Facade_Panels_uidndcbew_inst_BaseColor.png"
		},
		{
			"uri": "Wooden_Facade_Panels_uidndcbew_inst_MetallicRoughness.png"
		},
		{
			"uri": "Wooden_Facade_Panels_uidndcbew_inst_Normal.png"
		},
		{
			"uri": "Asphalt_Road_vhwmdias_inst_BaseColor.png"
		},
		{
			"uri": "Asphalt_Road_vhwmdias_inst_MetallicRoughness.png"
		},
		{
			"uri": "Asphalt_Road_vhwmdias_inst_Normal.png"
		},
		{
			"uri": "Stucco_Wall_ulelehncw_inst_BaseColor.png"
		},
		{
			"uri": "Stucco_Wall_ulelehncw_inst_MetallicRoughness.png"
		},
		{
			"uri": "Stucco_Wall_ulelehncw_inst_Normal.png"
		},
		{
			"uri": "Window_yny5JndO70-IsCIiIkwxhQ_inst_BaseColor.png"
		},
		{
			"uri": "Window_yny5JndO70-IsCIiIkwxhQ_inst_MetallicRoughness.png"
		},
		{
			"uri": "Window_yny5JndO70-IsCIiIkwxhQ_inst_Normal.png"
		},
		{
			"uri": "WorldGridMaterial_BaseColor.png"
		},
		{
			"uri": "WorldGridMaterial_MetallicRoughness.png"
		},
		{
			"uri": "WorldGridMaterial_Normal.png"
		}
	],
	"materials": [
		{
			"name": "Wooden_Facade_Panels_uidndcbew_inst",
			"pbrMetallicRoughness":
			{
				"baseColorTexture":
				{
					"index": 0
				},
				"metallicRoughnessTexture":
				{
					"index": 1
				}
			},
			"normalTexture":
			{
				"index": 2
			}
		},
		{
			"name": "Asphalt_Road_vhwmdias_inst",
			"pbrMetallicRoughness":
			{
				"baseColorTexture":
				{
					"index": 3
				},
				"metallicRoughnessTexture":
				{
					"index": 4
				}
			},
			"normalTexture":
			{
				"index": 5
			}
		},
		{
			"name": "Stucco_Wall_ulelehncw_inst",
			"pbrMetallicRoughness":
			{
				"baseColorTexture":
				{
					"index": 6
				},
				"metallicRoughnessTexture":
				{
					"index": 7
				}
			},
			"normalTexture":
			{
				"index": 8
			}
		},
		{
			"name": "Window_yny5JndO70-IsCIiIkwxhQ_inst",
			"pbrMetallicRoughness":
			{
				"baseColorTexture":
				{
					"index": 9
				},
				"metallicRoughnessTexture":
				{
					"index": 10
				}
			},
			"normalTexture":
			{
				"index": 11
			}
		},
		{
			"name": "WorldGridMaterial",
			"pbrMetallicRoughness":
			{
				"baseColorTexture":
				{
					"index": 12
				},
				"metallicRoughnessTexture":
				{
					"index": 13
				}
			},
			"normalTexture":
			{
				"index": 14
			}
		}
	],
	"meshes": [
		{
			"name": "sport",
			"primitives": [
				{
					"attributes":
					{
						"POSITION": 1,
						"NORMAL": 2,
						"TANGENT": 3,
						"TEXCOORD_0": 4,
						"TEXCOORD_1": 5,
						"TEXCOORD_2": 6
					},
					"indices": 0,
					"material": 0
				},
				{
					"attributes":
					{
						"POSITION": 8,
						"NORMAL": 9,
						"TANGENT": 10,
						"TEXCOORD_0": 11,
						"TEXCOORD_1": 12,
						"TEXCOORD_2": 13
					},
					"indices": 7,
					"material": 1
				},
				{
					"attributes":
					{
						"POSITION": 15,
						"NORMAL": 16,
						"TANGENT": 17,
						"TEXCOORD_0": 18,
						"TEXCOORD_1": 19,
						"TEXCOORD_2": 20
					},
					"indices": 14,
					"material": 2
				},
				{
					"attributes":
					{
						"POSITION": 22,
						"NORMAL": 23,
						"TANGENT": 24,
						"TEXCOORD_0": 25,
						"TEXCOORD_1": 26,
						"TEXCOORD_2": 27
					},
					"indices": 21,
					"material": 3
				},
				{
					"attributes":
					{
						"POSITION": 29,
						"NORMAL": 30,
						"TANGENT": 31,
						"TEXCOORD_0": 32,
						"TEXCOORD_1": 33,
						"TEXCOORD_2": 34
					},
					"indices": 28,
					"material": 4
				}
			]
		}
	],
	"nodes": [
		{
			"name": "sport_StaticMeshComponent0",
			"translation": [ 65.7339706,
				5.9000001,
				16.3302441
			],
			"mesh": 0
		}
	],
	"samplers": [
		{
			"name": "Wooden_Facade_Panels_uidndcbew_inst_BaseColor",
			"minFilter": 9987,
			"magFilter": 9729
		},
		{
			"name": "Wooden_Facade_Panels_uidndcbew_inst_MetallicRoughness",
			"minFilter": 9987,
			"magFilter": 9729
		},
		{
			"name": "Wooden_Facade_Panels_uidndcbew_inst_Normal",
			"minFilter": 9987,
			"magFilter": 9729
		},
		{
			"name": "Asphalt_Road_vhwmdias_inst_BaseColor",
			"minFilter": 9987,
			"magFilter": 9729
		},
		{
			"name": "Asphalt_Road_vhwmdias_inst_MetallicRoughness",
			"minFilter": 9987,
			"magFilter": 9729
		},
		{
			"name": "Asphalt_Road_vhwmdias_inst_Normal",
			"minFilter": 9987,
			"magFilter": 9729
		},
		{
			"name": "Stucco_Wall_ulelehncw_inst_BaseColor",
			"minFilter": 9987,
			"magFilter": 9729
		},
		{
			"name": "Stucco_Wall_ulelehncw_inst_MetallicRoughness",
			"minFilter": 9987,
			"magFilter": 9729
		},
		{
			"name": "Stucco_Wall_ulelehncw_inst_Normal",
			"minFilter": 9987,
			"magFilter": 9729
		},
		{
			"name": "Window_yny5JndO70-IsCIiIkwxhQ_inst_BaseColor",
			"minFilter": 9987,
			"magFilter": 9729
		},
		{
			"name": "Window_yny5JndO70-IsCIiIkwxhQ_inst_MetallicRoughness",
			"minFilter": 9987,
			"magFilter": 9729
		},
		{
			"name": "Window_yny5JndO70-IsCIiIkwxhQ_inst_Normal",
			"minFilter": 9987,
			"magFilter": 9729
		},
		{
			"name": "WorldGridMaterial_BaseColor",
			"minFilter": 9987,
			"magFilter": 9729
		},
		{
			"name": "WorldGridMaterial_MetallicRoughness",
			"minFilter": 9987,
			"magFilter": 9729
		},
		{
			"name": "WorldGridMaterial_Normal",
			"minFilter": 9987,
			"magFilter": 9729
		}
	],
	"scenes": [
		{
			"name": "ThirdPersonExampleMap",
			"nodes": [ 0 ]
		}
	],
	"textures": [
		{
			"name": "Wooden_Facade_Panels_uidndcbew_inst_BaseColor",
			"sampler": 0,
			"source": 0
		},
		{
			"name": "Wooden_Facade_Panels_uidndcbew_inst_MetallicRoughness",
			"sampler": 1,
			"source": 1
		},
		{
			"name": "Wooden_Facade_Panels_uidndcbew_inst_Normal",
			"sampler": 2,
			"source": 2
		},
		{
			"name": "Asphalt_Road_vhwmdias_inst_BaseColor",
			"sampler": 3,
			"source": 3
		},
		{
			"name": "Asphalt_Road_vhwmdias_inst_MetallicRoughness",
			"sampler": 4,
			"source": 4
		},
		{
			"name": "Asphalt_Road_vhwmdias_inst_Normal",
			"sampler": 5,
			"source": 5
		},
		{
			"name": "Stucco_Wall_ulelehncw_inst_BaseColor",
			"sampler": 6,
			"source": 6
		},
		{
			"name": "Stucco_Wall_ulelehncw_inst_MetallicRoughness",
			"sampler": 7,
			"source": 7
		},
		{
			"name": "Stucco_Wall_ulelehncw_inst_Normal",
			"sampler": 8,
			"source": 8
		},
		{
			"name": "Window_yny5JndO70-IsCIiIkwxhQ_inst_BaseColor",
			"sampler": 9,
			"source": 9
		},
		{
			"name": "Window_yny5JndO70-IsCIiIkwxhQ_inst_MetallicRoughness",
			"sampler": 10,
			"source": 10
		},
		{
			"name": "Window_yny5JndO70-IsCIiIkwxhQ_inst_Normal",
			"sampler": 11,
			"source": 11
		},
		{
			"name": "WorldGridMaterial_BaseColor",
			"sampler": 12,
			"source": 12
		},
		{
			"name": "WorldGridMaterial_MetallicRoughness",
			"sampler": 13,
			"source": 13
		},
		{
			"name": "WorldGridMaterial_Normal",
			"sampler": 14,
			"source": 14
		}
	]
}